SplineFontDB: 1.0
FontName: THK2DJuly8-BoldItalic
FullName: THK2DJuly8-BoldItalic
FamilyName: TH K2D July8
Weight: Bold
Copyright: Copyright (c) 2006 by Department of Intellectual Property (DIP), Ministry of Commerce and Software Industry Promotion Agency (Public Organization) (SIPA). All rights reserved.
Version: 1.1
ItalicAngle: -12
UnderlinePosition: -55
UnderlineWidth: 50
Ascent: 800
Descent: 200
Order2: 1
XUID: [1021 375 425136265 7420101]
FSType: 0
OS2Version: 3
OS2_WeightWidthSlopeOnly: 0
OS2_UseTypoMetrics: 1
CreationTime: 1158666360
ModificationTime: 1174405873
PfmFamily: 17
TTFWeight: 700
TTFWidth: 5
LineGap: 60
VLineGap: 0
Panose: 2 0 5 6 0 0 0 2 0 4
OS2TypoAscent: 0
OS2TypoAOffset: 1
OS2TypoDescent: 0
OS2TypoDOffset: 1
OS2TypoLinegap: 0
OS2WinAscent: -26
OS2WinAOffset: 1
OS2WinDescent: -176
OS2WinDOffset: 1
HheadAscent: -26
HheadAOffset: 1
HheadDescent: 176
HheadDOffset: 1
OS2SubXSize: 700
OS2SubYSize: 650
OS2SubXOff: 0
OS2SubYOff: 140
OS2SupXSize: 700
OS2SupYSize: 650
OS2SupXOff: 0
OS2SupYOff: 477
OS2StrikeYSize: 50
OS2StrikeYPos: 250
OS2FamilyClass: 773
OS2Vendor: 'K2D '
ScriptLang: 2
 1 latn 1 dflt 
 0 
ChainSub: coverage 0 0 'liga' 0 0 0 1
 1 0 1
  Coverage: 64 uni0E48.alt2 uni0E49.alt2 uni0E4A.alt2 uni0E4B.alt2 uni0E4C.alt2
  FCoverage: 7 uni0E33
 1
  SeqLookup: 0 'L027'
EndFPST
ChainSub: coverage 0 0 'liga' 0 0 0 1
 1 1 0
  Coverage: 7 uni0E47
  BCoverage: 12 uni0E2C.alt1
 1
  SeqLookup: 0 'L026'
EndFPST
ChainSub: coverage 0 0 'liga' 0 0 0 1
 1 0 1
  Coverage: 7 uni0E2C
  FCoverage: 39 uni0E34 uni0E35 uni0E36 uni0E37 uni0E47
 1
  SeqLookup: 0 'L026'
EndFPST
ChainSub: coverage 0 0 'liga' 0 0 0 1
 1 0 1
  Coverage: 15 uni0E0E uni0E0F
  FCoverage: 38 uni0E38.alt1 uni0E39.alt1 uni0E3A.alt1
 1
  SeqLookup: 0 'L026'
EndFPST
ChainSub: coverage 0 0 'liga' 0 0 0 1
 1 1 0
  Coverage: 5 a b c
  BCoverage: 23 uni0E1B uni0E1D uni0E1F
 1
  SeqLookup: 0 'L026'
EndFPST
ChainSub: coverage 0 0 'liga' 0 0 0 1
 1 0 1
  Coverage: 5 a b c

StartChar: .notdef
Encoding: 65536 -1 0
Width: 520
Flags: W
Fore
406 39 m 1,0,-1
 537 656 l 1,1,-1
 258 656 l 1,2,-1
 127 39 l 1,3,-1
 406 39 l 1,0,-1
456 0 m 1,4,-1
 61 0 l 1,5,-1
 208 695 l 1,6,-1
 603 695 l 1,7,-1
 456 0 l 1,4,-1
EndSplineSet
EndChar
StartChar: numbersign
Encoding: 35 35 4
Width: 433
Flags: W
Fore
364 449 m 2,0,1
 376 488 376 488 432 480 c 1,2,-1
 379 323 l 1,3,-1
 470 323 l 1,4,5
 462 288 462 288 419 288 c 2,6,-1
 368 288 l 1,7,-1
 333 182 l 1,8,-1
 424 182 l 1,9,10
 416 146 416 146 373 146 c 2,11,-1
 322 146 l 1,12,13
 312 115 312 115 301.5 84.5 c 128,-1,14
 291 54 291 54 282 25 c 0,15,16
 270 -13 270 -13 213 -5 c 1,17,-1
 264 146 l 1,18,-1
 206 146 l 1,19,20
 197 115 197 115 186.5 84.5 c 128,-1,21
 176 54 176 54 167 25 c 0,22,23
 155 -13 155 -13 98 -5 c 1,24,-1
 149 146 l 1,25,-1
 61 146 l 1,26,27
 68 182 68 182 111 182 c 2,28,-1
 160 182 l 1,29,-1
 196 288 l 1,30,-1
 107 288 l 1,31,32
 114 323 114 323 157 323 c 2,33,-1
 207 323 l 1,34,-1
 249 449 l 2,35,36
 261 487 261 487 317 480 c 1,37,-1
 264 323 l 1,38,-1
 322 323 l 1,39,-1
 364 449 l 2,0,1
217 182 m 1,40,-1
 275 182 l 1,41,-1
 311 288 l 1,42,-1
 253 288 l 1,43,-1
 217 182 l 1,40,-1
EndSplineSet
EndChar
StartChar: dollar
Encoding: 36 36 5
Width: 473
Flags: W
Fore
132 151 m 2,0,1
 123 109 123 109 146 77 c 128,-1,2
 169 45 169 45 213 37 c 1,3,-1
 254 229 l 1,4,5
 220 236 220 236 195.5 245 c 128,-1,6
 171 254 171 254 155 266.5 c 128,-1,7
 139 279 139 279 133 296 c 128,-1,8
 127 313 127 313 130 338 c 256,9,10
 133 363 133 363 147 387 c 128,-1,11
 161 411 161 411 184.5 430 c 128,-1,12
 208 449 208 449 239 462 c 128,-1,13
 270 475 270 475 307 479 c 1,14,-1
 311 495 l 2,15,16
 319 531 319 531 376 531 c 1,17,-1
 365 479 l 1,18,19
 426 471 426 471 455.5 436.5 c 128,-1,20
 485 402 485 402 483 352 c 0,21,22
 482 339 482 339 475 330 c 128,-1,23
 468 321 468 321 457 315 c 128,-1,24
 446 309 446 309 433.5 306.5 c 128,-1,25
 421 304 421 304 410 304 c 1,26,27
 412 309 412 309 413 314.5 c 128,-1,28
 414 320 414 320 416 325 c 1,29,30
 424 367 424 367 409.5 398.5 c 128,-1,31
 395 430 395 430 357 438 c 1,32,-1
 319 261 l 1,33,34
 353 254 353 254 381.5 246.5 c 128,-1,35
 410 239 410 239 429.5 227 c 128,-1,36
 449 215 449 215 458.5 197 c 128,-1,37
 468 179 468 179 465 152 c 0,38,39
 460 123 460 123 441.5 96.5 c 128,-1,40
 423 70 423 70 395.5 49 c 128,-1,41
 368 28 368 28 333.5 14 c 128,-1,42
 299 0 299 0 263 -4 c 1,43,-1
 259 -20 l 2,44,45
 251 -56 251 -56 194 -56 c 1,46,-1
 205 -4 l 1,47,48
 143 4 143 4 104.5 38.5 c 128,-1,49
 66 73 66 73 66 123 c 0,50,51
 66 136 66 136 72.5 145.5 c 128,-1,52
 79 155 79 155 89.5 161 c 128,-1,53
 100 167 100 167 112.5 170 c 128,-1,54
 125 173 125 173 137 173 c 1,55,56
 136 171 136 171 135.5 167.5 c 128,-1,57
 135 164 135 164 134 161 c 2,58,-1
 132 151 l 2,0,1
400 149 m 0,59,60
 404 179 404 179 379 193 c 128,-1,61
 354 207 354 207 310 218 c 1,62,-1
 271 37 l 1,63,64
 295 41 295 41 317 52 c 128,-1,65
 339 63 339 63 356.5 78 c 128,-1,66
 374 93 374 93 385.5 111.5 c 128,-1,67
 397 130 397 130 400 149 c 0,59,60
194 342 m 0,68,69
 190 313 190 313 207.5 297.5 c 128,-1,70
 225 282 225 282 263 272 c 1,71,-1
 299 438 l 1,72,73
 277 434 277 434 258.5 424.5 c 128,-1,74
 240 415 240 415 226 402 c 128,-1,75
 212 389 212 389 203.5 373.5 c 128,-1,76
 195 358 195 358 194 342 c 0,68,69
EndSplineSet
EndChar
StartChar: percent
Encoding: 37 37 6
Width: 587
Flags: W
Fore
323 283 m 2,0,1
 319 266 319 266 307.5 251.5 c 128,-1,2
 296 237 296 237 278.5 226.5 c 128,-1,3
 261 216 261 216 240 209.5 c 128,-1,4
 219 203 219 203 196 203 c 256,5,6
 173 203 173 203 154 209.5 c 128,-1,7
 135 216 135 216 122 226.5 c 128,-1,8
 109 237 109 237 103.5 251.5 c 128,-1,9
 98 266 98 266 102 283 c 2,10,-1
 126 399 l 2,11,12
 134 432 134 432 170.5 455 c 128,-1,13
 207 478 207 478 254 478 c 0,14,15
 300 478 300 478 327 455 c 128,-1,16
 354 432 354 432 347 399 c 2,17,-1
 323 283 l 2,0,1
158 283 m 2,18,19
 153 263 153 263 166.5 249.5 c 128,-1,20
 180 236 180 236 203 236 c 0,21,22
 225 236 225 236 243.5 249.5 c 128,-1,23
 262 263 262 263 267 283 c 2,24,-1
 291 399 l 2,25,26
 296 419 296 419 282.5 432 c 128,-1,27
 269 445 269 445 247 445 c 0,28,29
 224 445 224 445 205.5 432 c 128,-1,30
 187 419 187 419 182 399 c 2,31,-1
 158 283 l 2,18,19
559 76 m 2,32,33
 556 60 556 60 544 45.5 c 128,-1,34
 532 31 532 31 515 20.5 c 128,-1,35
 498 10 498 10 476.5 3.5 c 128,-1,36
 455 -3 455 -3 432 -3 c 256,37,38
 409 -3 409 -3 390 3.5 c 128,-1,39
 371 10 371 10 358.5 20.5 c 128,-1,40
 346 31 346 31 340.5 45.5 c 128,-1,41
 335 60 335 60 338 76 c 2,42,-1
 362 192 l 2,43,44
 370 226 370 226 406.5 249 c 128,-1,45
 443 272 443 272 490 272 c 0,46,47
 536 272 536 272 563 249 c 128,-1,48
 590 226 590 226 583 192 c 2,49,-1
 559 76 l 2,32,33
394 76 m 2,50,51
 389 57 389 57 402.5 43.5 c 128,-1,52
 416 30 416 30 439 30 c 0,53,54
 461 30 461 30 479 43.5 c 128,-1,55
 497 57 497 57 502 76 c 2,56,-1
 526 192 l 2,57,58
 531 212 531 212 518 225.5 c 128,-1,59
 505 239 505 239 483 239 c 0,60,61
 460 239 460 239 441.5 225.5 c 128,-1,62
 423 212 423 212 418 192 c 2,63,-1
 394 76 l 2,50,51
484 480 m 2,64,65
 498 498 498 498 516 502.5 c 128,-1,66
 534 507 534 507 556 494 c 1,67,-1
 202 -1 l 2,68,69
 173 -42 173 -42 131 -15 c 1,70,-1
 484 480 l 2,64,65
EndSplineSet
EndChar
StartChar: ampersand
Encoding: 38 38 7
Width: 450
Flags: W
Fore
342 45 m 1,0,1
 303 21 303 21 258 7.5 c 128,-1,2
 213 -6 213 -6 175 -6 c 0,3,4
 143 -6 143 -6 116.5 4 c 128,-1,5
 90 14 90 14 73 31.5 c 128,-1,6
 56 49 56 49 49 73.5 c 128,-1,7
 42 98 42 98 48 127 c 0,8,9
 59 176 59 176 95.5 211.5 c 128,-1,10
 132 247 132 247 178 269 c 1,11,12
 164 295 164 295 157.5 319.5 c 128,-1,13
 151 344 151 344 156 367 c 0,14,15
 160 389 160 389 173 410 c 128,-1,16
 186 431 186 431 206 446.5 c 128,-1,17
 226 462 226 462 252 471.5 c 128,-1,18
 278 481 278 481 310 481 c 0,19,20
 359 481 359 481 384.5 455.5 c 128,-1,21
 410 430 410 430 401 386 c 0,22,23
 393 348 393 348 354 314.5 c 128,-1,24
 315 281 315 281 253 255 c 1,25,26
 282 212 282 212 309 173.5 c 128,-1,27
 336 135 336 135 354 113 c 1,28,29
 374 132 374 132 388 155 c 128,-1,30
 402 178 402 178 410 219 c 1,31,32
 441 219 441 219 452.5 208.5 c 128,-1,33
 464 198 464 198 460 181 c 0,34,35
 455 157 455 157 433 131 c 128,-1,36
 411 105 411 105 384 80 c 1,37,-1
 389 74 l 2,38,39
 401 59 401 59 414.5 41.5 c 128,-1,40
 428 24 428 24 442 9 c 1,41,42
 425 -6 425 -6 406 -8 c 128,-1,43
 387 -10 387 -10 373 6 c 2,44,-1
 342 45 l 1,0,1
338 382 m 0,45,46
 343 405 343 405 334.5 423.5 c 128,-1,47
 326 442 326 442 297 442 c 256,48,49
 268 442 268 442 247 421 c 128,-1,50
 226 400 226 400 220 371 c 256,51,52
 214 342 214 342 221.5 324 c 128,-1,53
 229 306 229 306 237 289 c 1,54,55
 275 307 275 307 302.5 328 c 128,-1,56
 330 349 330 349 338 382 c 0,45,46
191 34 m 0,57,58
 225 34 225 34 257 46.5 c 128,-1,59
 289 59 289 59 315 78 c 1,60,61
 306 89 306 89 292.5 107 c 128,-1,62
 279 125 279 125 263.5 146 c 128,-1,63
 248 167 248 167 231.5 190 c 128,-1,64
 215 213 215 213 200 235 c 1,65,66
 188 228 188 228 174.5 219 c 128,-1,67
 161 210 161 210 148.5 197 c 128,-1,68
 136 184 136 184 126.5 168 c 128,-1,69
 117 152 117 152 113 132 c 0,70,71
 102 85 102 85 126 59.5 c 128,-1,72
 150 34 150 34 191 34 c 0,57,58
EndSplineSet
EndChar
StartChar: quotesingle
Encoding: 39 39 8
Width: 166
Flags: W
Fore
139 432 m 2,0,1
 143 457 143 457 165 469 c 128,-1,2
 187 481 187 481 221 481 c 1,3,-1
 192 374 l 2,4,5
 187 360 187 360 168.5 347 c 128,-1,6
 150 334 150 334 124 334 c 1,7,-1
 139 432 l 2,0,1
EndSplineSet
EndChar
StartChar: parenleft
Encoding: 40 40 9
Width: 211
Flags: W
Fore
88 204 m 256,0,1
 98 251 98 251 115 291.5 c 128,-1,2
 132 332 132 332 153 366 c 128,-1,3
 174 400 174 400 198 429 c 128,-1,4
 222 458 222 458 246 482 c 0,5,6
 261 498 261 498 278.5 497 c 128,-1,7
 296 496 296 496 304 481 c 1,8,9
 249 428 249 428 210 361.5 c 128,-1,10
 171 295 171 295 152 204 c 0,11,12
 132 114 132 114 143 47 c 128,-1,13
 154 -20 154 -20 186 -72 c 1,14,15
 172 -87 172 -87 154.5 -88 c 128,-1,16
 137 -89 137 -89 128 -73 c 0,17,18
 114 -49 114 -49 102.5 -20 c 128,-1,19
 91 9 91 9 84 43 c 128,-1,20
 77 77 77 77 77.5 117 c 128,-1,21
 78 157 78 157 88 204 c 256,0,1
EndSplineSet
EndChar
StartChar: asterisk
Encoding: 42 42 11
Width: 308
Flags: W
Fore
260 358 m 1,0,1
 265 348 265 348 270.5 339 c 128,-1,2
 276 330 276 330 281 320 c 1,3,-1
 280 320 l 1,4,5
 286 310 286 310 292 299.5 c 128,-1,6
 298 289 298 289 304 279 c 1,7,-1
 241 249 l 1,8,-1
 218 329 l 1,9,10
 215 324 215 324 211 318 c 128,-1,11
 207 312 207 312 204 307 c 2,12,-1
 159 249 l 1,13,-1
 118 280 l 1,14,-1
 195 360 l 1,15,-1
 157 357 l 2,16,17
 144 355 144 355 124.5 354 c 128,-1,18
 105 353 105 353 93 352 c 1,19,-1
 103 396 l 1,20,-1
 203 388 l 1,21,22
 199 396 199 396 194 403.5 c 128,-1,23
 189 411 189 411 186 419 c 1,24,-1
 158 469 l 1,25,-1
 220 502 l 1,26,-1
 243 425 l 1,27,-1
 259 447 l 2,28,29
 267 458 267 458 278.5 474.5 c 128,-1,30
 290 491 290 491 297 502 c 1,31,-1
 344 470 l 1,32,-1
 265 388 l 1,33,-1
 305 391 l 2,34,35
 318 392 318 392 337 393.5 c 128,-1,36
 356 395 356 395 370 397 c 1,37,-1
 360 352 l 1,38,-1
 260 358 l 1,0,1
EndSplineSet
EndChar
StartChar: plus
Encoding: 43 43 12
Width: 420
Flags: W
Fore
216 180 m 1,0,-1
 67 180 l 1,1,2
 75 217 75 217 120 217 c 2,3,-1
 224 217 l 1,4,-1
 247 329 l 2,5,6
 256 369 256 369 318 369 c 1,7,-1
 286 217 l 1,8,-1
 436 217 l 1,9,10
 427 180 427 180 382 180 c 2,11,-1
 278 180 l 1,12,-1
 254 67 l 2,13,14
 245 28 245 28 183 28 c 1,15,-1
 216 180 l 1,0,-1
EndSplineSet
EndChar
StartChar: comma
Encoding: 44 44 13
Width: 148
Flags: W
Fore
33 33 m 0,0,1
 36 50 36 50 52.5 61 c 128,-1,2
 69 72 69 72 90 72 c 256,3,4
 111 72 111 72 122.5 61 c 128,-1,5
 134 50 134 50 131 33 c 0,6,7
 125 4 125 4 115.5 -17 c 128,-1,8
 106 -38 106 -38 94.5 -52.5 c 128,-1,9
 83 -67 83 -67 71 -77 c 128,-1,10
 59 -87 59 -87 48 -95 c 0,11,12
 40 -100 40 -100 30 -99.5 c 128,-1,13
 20 -99 20 -99 15 -93 c 1,14,15
 60 -59 60 -59 73 -6 c 1,16,17
 52 -6 52 -6 40.5 5 c 128,-1,18
 29 16 29 16 33 33 c 0,0,1
EndSplineSet
EndChar
StartChar: hyphen
Encoding: 45 45 14
Width: 255
Flags: W
Fore
66 179 m 1,0,1
 73 218 73 218 120 218 c 2,2,-1
 272 218 l 1,3,4
 267 198 267 198 254.5 188.5 c 128,-1,5
 242 179 242 179 218 179 c 2,6,-1
 66 179 l 1,0,1
EndSplineSet
EndChar
StartChar: period
Encoding: 46 46 15
Width: 151
Flags: W
Fore
33 33 m 0,0,1
 36 50 36 50 52.5 61 c 128,-1,2
 69 72 69 72 90 72 c 256,3,4
 111 72 111 72 122.5 61 c 128,-1,5
 134 50 134 50 131 33 c 0,6,7
 127 16 127 16 110.5 5 c 128,-1,8
 94 -6 94 -6 73 -6 c 256,9,10
 52 -6 52 -6 40.5 5 c 128,-1,11
 29 16 29 16 33 33 c 0,0,1
EndSplineSet
EndChar
StartChar: slash
Encoding: 47 47 16
Width: 299
Flags: W
Fore
340 478 m 2,0,1
 354 496 354 496 372 500.5 c 128,-1,2
 390 505 390 505 412 492 c 1,3,-1
 58 -3 l 2,4,5
 29 -44 29 -44 -13 -17 c 1,6,-1
 340 478 l 2,0,1
EndSplineSet
EndChar
StartChar: zero
Encoding: 48 48 17
Width: 480
Flags: W
Fore
451 130 m 2,0,1
 445 102 445 102 425 77 c 128,-1,2
 405 52 405 52 376 33.5 c 128,-1,3
 347 15 347 15 311 4.5 c 128,-1,4
 275 -6 275 -6 237 -6 c 256,5,6
 199 -6 199 -6 167.5 4.5 c 128,-1,7
 136 15 136 15 115 33.5 c 128,-1,8
 94 52 94 52 85 77 c 128,-1,9
 76 102 76 102 82 130 c 2,10,-1
 128 345 l 2,11,12
 134 373 134 373 153.5 398 c 128,-1,13
 173 423 173 423 202 441.5 c 128,-1,14
 231 460 231 460 267 470.5 c 128,-1,15
 303 481 303 481 341 481 c 256,16,17
 379 481 379 481 410.5 470.5 c 128,-1,18
 442 460 442 460 463 441.5 c 128,-1,19
 484 423 484 423 493.5 398 c 128,-1,20
 503 373 503 373 497 345 c 2,21,-1
 451 130 l 2,0,1
145 130 m 2,22,23
 137 89 137 89 166.5 61.5 c 128,-1,24
 196 34 196 34 246 34 c 0,25,26
 271 34 271 34 294.5 41.5 c 128,-1,27
 318 49 318 49 337.5 62 c 128,-1,28
 357 75 357 75 370 92.5 c 128,-1,29
 383 110 383 110 387 130 c 2,30,-1
 433 345 l 2,31,32
 441 386 441 386 412 413.5 c 128,-1,33
 383 441 383 441 332 441 c 0,34,35
 307 441 307 441 283.5 433.5 c 128,-1,36
 260 426 260 426 241 413 c 128,-1,37
 222 400 222 400 208.5 382.5 c 128,-1,38
 195 365 195 365 191 345 c 2,39,-1
 145 130 l 2,22,23
EndSplineSet
EndChar
StartChar: one
Encoding: 49 49 18
Width: 480
Flags: W
Fore
360 475 m 1,0,1
 374 475 374 475 381.5 468.5 c 128,-1,2
 389 462 389 462 387 454 c 2,3,-1
 298 36 l 2,4,5
 289 -6 289 -6 225 -6 c 1,6,-1
 319 436 l 1,7,-1
 287 436 l 2,8,9
 241 436 241 436 248 475 c 1,10,-1
 360 475 l 1,11,-1
 360 475 l 1,0,1
EndSplineSet
EndChar
StartChar: two
Encoding: 50 50 19
Width: 480
Flags: W
Fore
381 40 m 2,0,1
 404 40 404 40 416 30 c 128,-1,2
 428 20 428 20 424 0 c 1,3,-1
 86 0 l 2,4,5
 75 0 75 0 66.5 5 c 128,-1,6
 58 10 58 10 60 18 c 0,7,8
 72 75 72 75 124.5 126 c 128,-1,9
 177 177 177 177 265 214 c 2,10,-1
 290 224 l 2,11,12
 310 232 310 232 333 242 c 128,-1,13
 356 252 356 252 376.5 265.5 c 128,-1,14
 397 279 397 279 412 296 c 128,-1,15
 427 313 427 313 432 336 c 0,16,17
 436 357 436 357 431 376.5 c 128,-1,18
 426 396 426 396 412.5 410 c 128,-1,19
 399 424 399 424 378.5 432.5 c 128,-1,20
 358 441 358 441 333 441 c 256,21,22
 308 441 308 441 284 432.5 c 128,-1,23
 260 424 260 424 240.5 410 c 128,-1,24
 221 396 221 396 207 376.5 c 128,-1,25
 193 357 193 357 189 336 c 0,26,27
 187 330 187 330 186.5 325.5 c 128,-1,28
 186 321 186 321 186 314 c 1,29,30
 162 314 162 314 146.5 327.5 c 128,-1,31
 131 341 131 341 133 356 c 1,32,33
 145 385 145 385 167.5 408 c 128,-1,34
 190 431 190 431 218.5 447.5 c 128,-1,35
 247 464 247 464 279.5 472.5 c 128,-1,36
 312 481 312 481 342 481 c 0,37,38
 373 481 373 481 403.5 471.5 c 128,-1,39
 434 462 434 462 457 443.5 c 128,-1,40
 480 425 480 425 491 398 c 128,-1,41
 502 371 502 371 495 336 c 0,42,43
 489 307 489 307 467.5 284 c 128,-1,44
 446 261 446 261 416.5 242 c 128,-1,45
 387 223 387 223 352 207.5 c 128,-1,46
 317 192 317 192 283 178 c 0,47,48
 224 152 224 152 184 116.5 c 128,-1,49
 144 81 144 81 129 40 c 1,50,-1
 381 40 l 2,0,1
EndSplineSet
EndChar
StartChar: three
Encoding: 51 51 20
Width: 480
Flags: W
Fore
163 380 m 0,0,1
 170 398 170 398 186.5 416.5 c 128,-1,2
 203 435 203 435 226 449 c 128,-1,3
 249 463 249 463 278.5 472 c 128,-1,4
 308 481 308 481 341 481 c 256,5,6
 374 481 374 481 400.5 471.5 c 128,-1,7
 427 462 427 462 445 445.5 c 128,-1,8
 463 429 463 429 470.5 407 c 128,-1,9
 478 385 478 385 473 360 c 0,10,11
 467 330 467 330 442 304 c 128,-1,12
 417 278 417 278 382 260 c 1,13,14
 423 242 423 242 441.5 208.5 c 128,-1,15
 460 175 460 175 452 136 c 0,16,17
 446 107 446 107 426 81 c 128,-1,18
 406 55 406 55 376.5 35.5 c 128,-1,19
 347 16 347 16 311 5 c 128,-1,20
 275 -6 275 -6 237 -6 c 256,21,22
 199 -6 199 -6 169 5 c 128,-1,23
 139 16 139 16 118.5 33.5 c 128,-1,24
 98 51 98 51 88.5 72.5 c 128,-1,25
 79 94 79 94 82 116 c 0,26,27
 85 136 85 136 101 147.5 c 128,-1,28
 117 159 117 159 153 158 c 1,29,30
 151 153 151 153 149.5 148 c 128,-1,31
 148 143 148 143 146 136 c 0,32,33
 141 115 141 115 147 96 c 128,-1,34
 153 77 153 77 166.5 63.5 c 128,-1,35
 180 50 180 50 200.5 42 c 128,-1,36
 221 34 221 34 246 34 c 256,37,38
 271 34 271 34 294.5 42 c 128,-1,39
 318 50 318 50 337.5 63.5 c 128,-1,40
 357 77 357 77 370 96 c 128,-1,41
 383 115 383 115 388 136 c 0,42,43
 392 157 392 157 387 175.5 c 128,-1,44
 382 194 382 194 368.5 208 c 128,-1,45
 355 222 355 222 334.5 230 c 128,-1,46
 314 238 314 238 289 238 c 0,47,48
 275 238 275 238 267.5 244 c 128,-1,49
 260 250 260 250 262 259 c 256,50,51
 264 268 264 268 274 273.5 c 128,-1,52
 284 279 284 279 298 279 c 0,53,54
 317 279 317 279 335.5 285.5 c 128,-1,55
 354 292 354 292 369 303 c 128,-1,56
 384 314 384 314 394.5 328.5 c 128,-1,57
 405 343 405 343 409 360 c 0,58,59
 417 394 417 394 394 417.5 c 128,-1,60
 371 441 371 441 332 441 c 0,61,62
 313 441 313 441 294.5 434.5 c 128,-1,63
 276 428 276 428 261 417 c 128,-1,64
 246 406 246 406 235.5 391.5 c 128,-1,65
 225 377 225 377 221 360 c 0,66,67
 220 357 220 357 219 350.5 c 128,-1,68
 218 344 218 344 219 339 c 1,69,70
 192 337 192 337 173 347.5 c 128,-1,71
 154 358 154 358 163 380 c 0,0,1
EndSplineSet
EndChar
StartChar: four
Encoding: 52 52 21
Width: 480
Flags: W
Fore
483 158 m 1,0,1
 474 118 474 118 428 118 c 2,2,-1
 395 118 l 1,3,-1
 377 36 l 2,4,5
 368 -6 368 -6 305 -6 c 1,6,-1
 332 118 l 1,7,-1
 89 118 l 2,8,9
 74 118 74 118 67.5 129 c 128,-1,10
 61 140 61 140 73 151 c 2,11,-1
 415 474 l 2,12,13
 434 490 434 490 452 485 c 128,-1,14
 470 480 470 480 467 460 c 2,15,-1
 403 158 l 1,16,-1
 483 158 l 1,0,1
340 158 m 1,17,-1
 388 385 l 1,18,-1
 146 158 l 1,19,-1
 340 158 l 1,17,-1
EndSplineSet
EndChar
StartChar: five
Encoding: 53 53 22
Width: 480
Flags: W
Fore
242 331 m 1,0,1
 273 343 273 343 311 343 c 256,2,3
 349 343 349 343 380 329.5 c 128,-1,4
 411 316 411 316 431 292 c 128,-1,5
 451 268 451 268 459 236.5 c 128,-1,6
 467 205 467 205 459 169 c 256,7,8
 451 133 451 133 430 101 c 128,-1,9
 409 69 409 69 379 45 c 128,-1,10
 349 21 349 21 312 7.5 c 128,-1,11
 275 -6 275 -6 237 -6 c 256,12,13
 199 -6 199 -6 169.5 6.5 c 128,-1,14
 140 19 140 19 120.5 40.5 c 128,-1,15
 101 62 101 62 93 90 c 128,-1,16
 85 118 85 118 89 149 c 0,17,18
 92 169 92 169 108 180 c 128,-1,19
 124 191 124 191 160 190 c 1,20,21
 158 186 158 186 156.5 181 c 128,-1,22
 155 176 155 176 153 169 c 0,23,24
 147 141 147 141 151.5 116.5 c 128,-1,25
 156 92 156 92 168.5 73.5 c 128,-1,26
 181 55 181 55 201 44.5 c 128,-1,27
 221 34 221 34 246 34 c 256,28,29
 271 34 271 34 295 44.5 c 128,-1,30
 319 55 319 55 339.5 73.5 c 128,-1,31
 360 92 360 92 374.5 116.5 c 128,-1,32
 389 141 389 141 395 169 c 256,33,34
 401 197 401 197 397 221.5 c 128,-1,35
 393 246 393 246 380.5 264.5 c 128,-1,36
 368 283 368 283 348 293.5 c 128,-1,37
 328 304 328 304 303 304 c 0,38,39
 275 304 275 304 249.5 291.5 c 128,-1,40
 224 279 224 279 204 259 c 0,41,42
 193 250 193 250 180.5 247 c 128,-1,43
 168 244 168 244 159 246.5 c 128,-1,44
 150 249 150 249 146.5 256.5 c 128,-1,45
 143 264 143 264 149 276 c 2,46,-1
 250 459 l 1,47,-1
 249 458 l 1,48,49
 252 466 252 466 262 470.5 c 128,-1,50
 272 475 272 475 283 475 c 2,51,-1
 492 475 l 1,52,53
 485 436 485 436 436 436 c 2,54,-1
 297 436 l 1,55,-1
 242 331 l 1,0,1
EndSplineSet
EndChar
StartChar: six
Encoding: 54 54 23
Width: 480
Flags: W
Fore
296 342 m 1,0,1
 301 343 301 343 311 343 c 0,2,3
 349 343 349 343 380 329.5 c 128,-1,4
 411 316 411 316 431 292 c 128,-1,5
 451 268 451 268 459 236.5 c 128,-1,6
 467 205 467 205 459 169 c 256,7,8
 451 133 451 133 430 101 c 128,-1,9
 409 69 409 69 379 45 c 128,-1,10
 349 21 349 21 312 7.5 c 128,-1,11
 275 -6 275 -6 237 -6 c 256,12,13
 199 -6 199 -6 168.5 7.5 c 128,-1,14
 138 21 138 21 118 45 c 128,-1,15
 98 69 98 69 90 101 c 128,-1,16
 82 133 82 133 90 169 c 0,17,18
 98 203 98 203 120.5 235.5 c 128,-1,19
 143 268 143 268 172 294 c 2,20,-1
 371 467 l 2,21,22
 410 501 410 501 440 468 c 1,23,-1
 296 342 l 1,0,1
395 169 m 256,24,25
 401 197 401 197 397 221.5 c 128,-1,26
 393 246 393 246 380.5 264.5 c 128,-1,27
 368 283 368 283 348 293.5 c 128,-1,28
 328 304 328 304 303 304 c 256,29,30
 278 304 278 304 254 293.5 c 128,-1,31
 230 283 230 283 209.5 264.5 c 128,-1,32
 189 246 189 246 174 221.5 c 128,-1,33
 159 197 159 197 153 169 c 256,34,35
 147 141 147 141 151.5 116.5 c 128,-1,36
 156 92 156 92 168.5 73.5 c 128,-1,37
 181 55 181 55 201 44.5 c 128,-1,38
 221 34 221 34 246 34 c 256,39,40
 271 34 271 34 295 44.5 c 128,-1,41
 319 55 319 55 339.5 73.5 c 128,-1,42
 360 92 360 92 374.5 116.5 c 128,-1,43
 389 141 389 141 395 169 c 256,24,25
EndSplineSet
EndChar
StartChar: seven
Encoding: 55 55 24
Width: 480
Flags: W
Fore
449 436 m 1,0,-1
 201 436 l 2,1,2
 155 436 155 436 162 475 c 1,3,-1
 498 475 l 2,4,5
 512 475 512 475 520.5 465 c 128,-1,6
 529 455 529 455 521 443 c 2,7,-1
 209 15 l 2,8,9
 181 -22 181 -22 136 3 c 1,10,-1
 449 436 l 1,0,-1
EndSplineSet
EndChar
StartChar: eight
Encoding: 56 56 25
Width: 480
Flags: W
Fore
157 360 m 0,0,1
 162 385 162 385 179.5 407 c 128,-1,2
 197 429 197 429 222 445.5 c 128,-1,3
 247 462 247 462 277.5 471.5 c 128,-1,4
 308 481 308 481 341 481 c 256,5,6
 374 481 374 481 400.5 471.5 c 128,-1,7
 427 462 427 462 445 445.5 c 128,-1,8
 463 429 463 429 470.5 407 c 128,-1,9
 478 385 478 385 473 360 c 0,10,11
 467 330 467 330 442 304 c 128,-1,12
 417 278 417 278 382 260 c 1,13,14
 423 242 423 242 441.5 208.5 c 128,-1,15
 460 175 460 175 452 136 c 0,16,17
 446 107 446 107 426 81 c 128,-1,18
 406 55 406 55 376.5 35.5 c 128,-1,19
 347 16 347 16 311 5 c 128,-1,20
 275 -6 275 -6 237 -6 c 256,21,22
 199 -6 199 -6 168 5 c 128,-1,23
 137 16 137 16 116 35.5 c 128,-1,24
 95 55 95 55 86 81 c 128,-1,25
 77 107 77 107 83 136 c 0,26,27
 91 174 91 174 124.5 207.5 c 128,-1,28
 158 241 158 241 205 260 c 1,29,30
 177 278 177 278 164 304.5 c 128,-1,31
 151 331 151 331 157 360 c 0,0,1
146 136 m 0,32,33
 141 115 141 115 147 96 c 128,-1,34
 153 77 153 77 166.5 63.5 c 128,-1,35
 180 50 180 50 200.5 42 c 128,-1,36
 221 34 221 34 246 34 c 256,37,38
 271 34 271 34 294.5 42 c 128,-1,39
 318 50 318 50 337.5 63.5 c 128,-1,40
 357 77 357 77 370 96 c 128,-1,41
 383 115 383 115 388 136 c 0,42,43
 392 157 392 157 387 175.5 c 128,-1,44
 382 194 382 194 368.5 208 c 128,-1,45
 355 222 355 222 334.5 230 c 128,-1,46
 314 238 314 238 289 238 c 256,47,48
 264 238 264 238 240.5 230 c 128,-1,49
 217 222 217 222 197.5 208 c 128,-1,50
 178 194 178 194 164 175.5 c 128,-1,51
 150 157 150 157 146 136 c 0,32,33
221 360 m 0,52,53
 213 326 213 326 236 302.5 c 128,-1,54
 259 279 259 279 298 279 c 0,55,56
 317 279 317 279 335.5 285.5 c 128,-1,57
 354 292 354 292 369 303 c 128,-1,58
 384 314 384 314 394.5 328.5 c 128,-1,59
 405 343 405 343 409 360 c 0,60,61
 417 394 417 394 394 417.5 c 128,-1,62
 371 441 371 441 332 441 c 0,63,64
 312 441 312 441 294 434.5 c 128,-1,65
 276 428 276 428 261 417 c 128,-1,66
 246 406 246 406 235.5 391.5 c 128,-1,67
 225 377 225 377 221 360 c 0,52,53
EndSplineSet
EndChar
StartChar: nine
Encoding: 57 57 26
Width: 480
Flags: W
Fore
207 8 m 2,0,1
 189 -9 189 -9 171 -9.5 c 128,-1,2
 153 -10 153 -10 138 7 c 1,3,-1
 281 132 l 1,4,-1
 267 132 l 2,5,6
 229 132 229 132 198 145.5 c 128,-1,7
 167 159 167 159 147 183 c 128,-1,8
 127 207 127 207 119.5 239 c 128,-1,9
 112 271 112 271 120 307 c 0,10,11
 127 343 127 343 148.5 374.5 c 128,-1,12
 170 406 170 406 200 430 c 128,-1,13
 230 454 230 454 266.5 467.5 c 128,-1,14
 303 481 303 481 341 481 c 256,15,16
 379 481 379 481 410 467.5 c 128,-1,17
 441 454 441 454 461 430 c 128,-1,18
 481 406 481 406 488.5 374.5 c 128,-1,19
 496 343 496 343 489 307 c 0,20,21
 481 272 481 272 458 240 c 128,-1,22
 435 208 435 208 406 182 c 2,23,-1
 207 8 l 2,0,1
183 307 m 256,24,25
 177 279 177 279 181.5 254.5 c 128,-1,26
 186 230 186 230 198.5 211.5 c 128,-1,27
 211 193 211 193 230.5 182.5 c 128,-1,28
 250 172 250 172 275 172 c 256,29,30
 300 172 300 172 324.5 182.5 c 128,-1,31
 349 193 349 193 369 211.5 c 128,-1,32
 389 230 389 230 404 254.5 c 128,-1,33
 419 279 419 279 425 307 c 256,34,35
 431 335 431 335 426.5 359.5 c 128,-1,36
 422 384 422 384 409.5 402 c 128,-1,37
 397 420 397 420 377 430.5 c 128,-1,38
 357 441 357 441 332 441 c 256,39,40
 307 441 307 441 283 430.5 c 128,-1,41
 259 420 259 420 238.5 402 c 128,-1,42
 218 384 218 384 203.5 359.5 c 128,-1,43
 189 335 189 335 183 307 c 256,24,25
EndSplineSet
EndChar
StartChar: less
Encoding: 60 60 29
Width: 420
Flags: W
Fore
466 399 m 1,0,1
 470 381 470 381 464 366 c 128,-1,2
 458 351 458 351 441 343 c 2,3,-1
 147 198 l 1,4,5
 204 162 204 162 263 126 c 128,-1,6
 322 90 322 90 380 54 c 0,7,8
 393 46 393 46 392.5 31 c 128,-1,9
 392 16 392 16 381 -2 c 1,10,-1
 84 184 l 2,11,12
 71 190 71 190 73 198 c 1,13,14
 73 204 73 204 90 213 c 2,15,-1
 466 399 l 1,0,1
EndSplineSet
EndChar
StartChar: equal
Encoding: 61 61 30
Width: 420
Flags: W
Fore
79 239 m 1,0,1
 88 277 88 277 132 277 c 2,2,-1
 448 277 l 1,3,4
 440 239 440 239 394 239 c 2,5,-1
 79 239 l 1,0,1
54 120 m 1,6,7
 62 158 62 158 107 158 c 2,8,-1
 423 158 l 1,9,10
 415 120 415 120 369 120 c 2,11,-1
 54 120 l 1,6,7
EndSplineSet
EndChar
StartChar: question
Encoding: 63 63 32
Width: 354
Flags: W
Fore
231 135 m 2,0,1
 222 95 222 95 162 95 c 1,2,-1
 175 156 l 2,3,4
 183 190 183 190 207 212.5 c 128,-1,5
 231 235 231 235 260 255 c 0,6,7
 285 272 285 272 306.5 292.5 c 128,-1,8
 328 313 328 313 335 348 c 0,9,10
 344 390 344 390 324.5 416.5 c 128,-1,11
 305 443 305 443 266 443 c 0,12,13
 230 443 230 443 198 417.5 c 128,-1,14
 166 392 166 392 156 348 c 0,15,16
 155 341 155 341 154.5 337 c 128,-1,17
 154 333 154 333 153 327 c 1,18,19
 130 327 130 327 114 339.5 c 128,-1,20
 98 352 98 352 101 367 c 1,21,22
 111 391 111 391 128.5 412 c 128,-1,23
 146 433 146 433 169.5 448 c 128,-1,24
 193 463 193 463 219.5 472 c 128,-1,25
 246 481 246 481 274 481 c 0,26,27
 304 481 304 481 329.5 472 c 128,-1,28
 355 463 355 463 372 445.5 c 128,-1,29
 389 428 389 428 396 403.5 c 128,-1,30
 403 379 403 379 396 348 c 0,31,32
 391 326 391 326 381 308.5 c 128,-1,33
 371 291 371 291 357.5 277 c 128,-1,34
 344 263 344 263 328.5 251 c 128,-1,35
 313 239 313 239 298 228 c 0,36,37
 276 213 276 213 258.5 197.5 c 128,-1,38
 241 182 241 182 236 156 c 2,39,-1
 231 135 l 2,0,1
131 33 m 0,40,41
 134 50 134 50 150.5 61 c 128,-1,42
 167 72 167 72 187 72 c 0,43,44
 208 72 208 72 220 61 c 128,-1,45
 232 50 232 50 229 33 c 0,46,47
 225 16 225 16 208 5 c 128,-1,48
 191 -6 191 -6 170 -6 c 0,49,50
 150 -6 150 -6 138.5 5 c 128,-1,51
 127 16 127 16 131 33 c 0,40,41
EndSplineSet
EndChar
StartChar: at
Encoding: 64 64 33
Width: 582
Flags: W
Fore
275 126 m 256,0,1
 296 126 296 126 317.5 142.5 c 128,-1,2
 339 159 339 159 357.5 183.5 c 128,-1,3
 376 208 376 208 389 236 c 128,-1,4
 402 264 402 264 407 286 c 0,5,6
 412 309 412 309 405 327.5 c 128,-1,7
 398 346 398 346 381 346 c 0,8,9
 358 346 358 346 335.5 331 c 128,-1,10
 313 316 313 316 294.5 293 c 128,-1,11
 276 270 276 270 262.5 242.5 c 128,-1,12
 249 215 249 215 244 191 c 0,13,14
 238 162 238 162 246 144 c 128,-1,15
 254 126 254 126 275 126 c 256,0,1
465 370 m 1,16,-1
 522 370 l 1,17,-1
 418 176 l 1,18,-1
 413 167 l 2,19,20
 405 154 405 154 401 140 c 0,21,22
 398 124 398 124 405 124 c 0,23,24
 421 124 421 124 441 138 c 128,-1,25
 461 152 461 152 479 174 c 128,-1,26
 497 196 497 196 511.5 224 c 128,-1,27
 526 252 526 252 532 281 c 0,28,29
 540 319 540 319 533 350 c 128,-1,30
 526 381 526 381 507 402.5 c 128,-1,31
 488 424 488 424 459 436 c 128,-1,32
 430 448 430 448 396 448 c 0,33,34
 354 448 354 448 315 431 c 128,-1,35
 276 414 276 414 243.5 385 c 128,-1,36
 211 356 211 356 187.5 317 c 128,-1,37
 164 278 164 278 155 235 c 0,38,39
 146 193 146 193 153 155 c 128,-1,40
 160 117 160 117 180.5 89 c 128,-1,41
 201 61 201 61 233.5 44.5 c 128,-1,42
 266 28 266 28 307 28 c 0,43,44
 353 28 353 28 402 51.5 c 128,-1,45
 451 75 451 75 488 117 c 0,46,47
 505 135 505 135 518.5 133.5 c 128,-1,48
 532 132 532 132 542 115 c 1,49,50
 520 88 520 88 492.5 65.5 c 128,-1,51
 465 43 465 43 433.5 27 c 128,-1,52
 402 11 402 11 368 2.5 c 128,-1,53
 334 -6 334 -6 300 -6 c 0,54,55
 246 -6 246 -6 204 13.5 c 128,-1,56
 162 33 162 33 135.5 66.5 c 128,-1,57
 109 100 109 100 99 145 c 128,-1,58
 89 190 89 190 100 240 c 0,59,60
 110 289 110 289 140 333 c 128,-1,61
 170 377 170 377 211 410 c 128,-1,62
 252 443 252 443 301.5 462 c 128,-1,63
 351 481 351 481 402 481 c 0,64,65
 450 481 450 481 489 466 c 128,-1,66
 528 451 528 451 553.5 424 c 128,-1,67
 579 397 579 397 589 360 c 128,-1,68
 599 323 599 323 590 280 c 0,69,70
 581 240 581 240 559 205.5 c 128,-1,71
 537 171 537 171 508.5 145.5 c 128,-1,72
 480 120 480 120 449 105 c 128,-1,73
 418 90 418 90 391 90 c 0,74,75
 352 90 352 90 344 120 c 1,76,77
 326 108 326 108 303.5 99 c 128,-1,78
 281 90 281 90 259 90 c 0,79,80
 235 90 235 90 218 98 c 128,-1,81
 201 106 201 106 190.5 119.5 c 128,-1,82
 180 133 180 133 177 150.5 c 128,-1,83
 174 168 174 168 178 187 c 0,84,85
 186 223 186 223 206 258.5 c 128,-1,86
 226 294 226 294 254.5 321.5 c 128,-1,87
 283 349 283 349 318 366 c 128,-1,88
 353 383 353 383 392 383 c 0,89,90
 412 383 412 383 428.5 376.5 c 128,-1,91
 445 370 445 370 454 351 c 1,92,-1
 465 370 l 1,16,-1
EndSplineSet
EndChar
StartChar: A
Encoding: 65 65 34
Width: 440
Flags: W
Fore
426 49 m 2,0,1
 428 33 428 33 412 15.5 c 128,-1,2
 396 -2 396 -2 371 -11 c 1,3,-1
 342 154 l 1,4,-1
 161 154 l 1,5,6
 137 114 137 114 111.5 71 c 128,-1,7
 86 28 86 28 62 -11 c 1,8,9
 39 -2 39 -2 31 15.5 c 128,-1,10
 23 33 23 33 33 49 c 2,11,-1
 289 469 l 2,12,13
 297 482 297 482 321 482 c 0,14,15
 331 482 331 482 338.5 478.5 c 128,-1,16
 346 475 346 475 348 469 c 2,17,-1
 426 49 l 2,0,1
301 389 m 1,18,-1
 186 194 l 1,19,-1
 336 194 l 1,20,-1
 301 389 l 1,18,-1
EndSplineSet
EndChar
StartChar: B
Encoding: 66 66 35
Width: 485
Flags: W
Fore
488 348 m 0,0,1
 483 322 483 322 463 294 c 128,-1,2
 443 266 443 266 412 251 c 1,3,4
 454 238 454 238 472.5 205 c 128,-1,5
 491 172 491 172 482 130 c 0,6,7
 476 104 476 104 462.5 80.5 c 128,-1,8
 449 57 449 57 428.5 39 c 128,-1,9
 408 21 408 21 381.5 10.5 c 128,-1,10
 355 0 355 0 324 0 c 2,11,-1
 90 0 l 2,12,13
 76 0 76 0 68 6.5 c 128,-1,14
 60 13 60 13 62 22 c 2,15,-1
 154 454 l 2,16,17
 156 464 156 464 166.5 470 c 128,-1,18
 177 476 177 476 191 476 c 2,19,-1
 385 476 l 2,20,21
 413 476 413 476 434.5 465.5 c 128,-1,22
 456 455 456 455 470 437 c 128,-1,23
 484 419 484 419 489 396 c 128,-1,24
 494 373 494 373 488 348 c 0,0,1
177 259 m 1,25,-1
 339 259 l 2,26,27
 353 259 353 259 367 267 c 128,-1,28
 381 275 381 275 393 287.5 c 128,-1,29
 405 300 405 300 413.5 316 c 128,-1,30
 422 332 422 332 425 348 c 256,31,32
 428 364 428 364 426.5 379.5 c 128,-1,33
 425 395 425 395 418.5 408 c 128,-1,34
 412 421 412 421 401 429 c 128,-1,35
 390 437 390 437 376 437 c 2,36,-1
 214 437 l 1,37,-1
 177 259 l 1,25,-1
332 40 m 2,38,39
 361 40 361 40 385.5 64 c 128,-1,40
 410 88 410 88 419 130 c 256,41,42
 428 172 428 172 413.5 195.5 c 128,-1,43
 399 219 399 219 370 219 c 2,44,-1
 168 219 l 1,45,-1
 130 40 l 1,46,-1
 332 40 l 2,38,39
EndSplineSet
EndChar
StartChar: C
Encoding: 67 67 36
Width: 484
Flags: W
Fore
144 151 m 2,0,1
 139 127 139 127 145 105.5 c 128,-1,2
 151 84 151 84 165.5 68.5 c 128,-1,3
 180 53 180 53 202.5 43.5 c 128,-1,4
 225 34 225 34 253 34 c 256,5,6
 281 34 281 34 308 43.5 c 128,-1,7
 335 53 335 53 356.5 68.5 c 128,-1,8
 378 84 378 84 393.5 105.5 c 128,-1,9
 409 127 409 127 414 151 c 0,10,11
 415 156 415 156 416 162 c 128,-1,12
 417 168 417 168 417 173 c 1,13,14
 428 173 428 173 439 170 c 128,-1,15
 450 167 450 167 458 161 c 128,-1,16
 466 155 466 155 469 145.5 c 128,-1,17
 472 136 472 136 468 123 c 0,18,19
 455 94 455 94 431 70 c 128,-1,20
 407 46 407 46 376 29 c 128,-1,21
 345 12 345 12 311 3 c 128,-1,22
 277 -6 277 -6 244 -6 c 0,23,24
 209 -6 209 -6 176.5 4.5 c 128,-1,25
 144 15 144 15 120 35.5 c 128,-1,26
 96 56 96 56 84 85 c 128,-1,27
 72 114 72 114 80 151 c 2,28,-1
 117 326 l 2,29,30
 124 362 124 362 148 391 c 128,-1,31
 172 420 172 420 204.5 440 c 128,-1,32
 237 460 237 460 274.5 471 c 128,-1,33
 312 482 312 482 348 482 c 0,34,35
 380 482 380 482 410 474 c 128,-1,36
 440 466 440 466 463.5 450.5 c 128,-1,37
 487 435 487 435 501.5 411 c 128,-1,38
 516 387 516 387 517 355 c 0,39,40
 517 341 517 341 510 331.5 c 128,-1,41
 503 322 503 322 492.5 316 c 128,-1,42
 482 310 482 310 469 307 c 128,-1,43
 456 304 456 304 445 304 c 1,44,45
 447 309 447 309 448 315 c 128,-1,46
 449 321 449 321 451 326 c 1,47,48
 456 350 456 350 449.5 371 c 128,-1,49
 443 392 443 392 428 408 c 128,-1,50
 413 424 413 424 390 433 c 128,-1,51
 367 442 367 442 339 442 c 256,52,53
 311 442 311 442 285 433 c 128,-1,54
 259 424 259 424 237.5 408 c 128,-1,55
 216 392 216 392 201 371 c 128,-1,56
 186 350 186 350 181 326 c 2,57,-1
 144 151 l 2,0,1
EndSplineSet
EndChar
StartChar: D
Encoding: 68 68 37
Width: 504
Flags: W
Fore
357 476 m 2,0,1
 392 476 392 476 425 465.5 c 128,-1,2
 458 455 458 455 482 435.5 c 128,-1,3
 506 416 506 416 518 386.5 c 128,-1,4
 530 357 530 357 522 320 c 2,5,-1
 487 157 l 2,6,7
 479 121 479 121 455.5 92 c 128,-1,8
 432 63 432 63 400 42.5 c 128,-1,9
 368 22 368 22 330 11 c 128,-1,10
 292 0 292 0 256 0 c 2,11,-1
 90 0 l 2,12,13
 76 0 76 0 68 6.5 c 128,-1,14
 60 13 60 13 62 22 c 2,15,-1
 154 454 l 2,16,17
 156 464 156 464 166.5 470 c 128,-1,18
 177 476 177 476 191 476 c 2,19,-1
 357 476 l 2,0,1
214 437 m 1,20,-1
 130 40 l 1,21,-1
 264 40 l 2,22,23
 292 40 292 40 318.5 49.5 c 128,-1,24
 345 59 345 59 367 74.5 c 128,-1,25
 389 90 389 90 404.5 111.5 c 128,-1,26
 420 133 420 133 425 157 c 2,27,-1
 460 320 l 2,28,29
 465 344 465 344 458.5 365.5 c 128,-1,30
 452 387 452 387 436.5 402.5 c 128,-1,31
 421 418 421 418 398.5 427.5 c 128,-1,32
 376 437 376 437 348 437 c 2,33,-1
 214 437 l 1,20,-1
EndSplineSet
EndChar
StartChar: E
Encoding: 69 69 38
Width: 484
Flags: W
Fore
167 259 m 1,0,-1
 364 259 l 1,1,2
 355 219 355 219 307 219 c 2,3,-1
 158 219 l 1,4,-1
 144 151 l 2,5,6
 139 127 139 127 145 105.5 c 128,-1,7
 151 84 151 84 165.5 68.5 c 128,-1,8
 180 53 180 53 202.5 43.5 c 128,-1,9
 225 34 225 34 253 34 c 256,10,11
 281 34 281 34 308 43.5 c 128,-1,12
 335 53 335 53 356.5 68.5 c 128,-1,13
 378 84 378 84 393.5 105.5 c 128,-1,14
 409 127 409 127 414 151 c 0,15,16
 415 156 415 156 416 162 c 128,-1,17
 417 168 417 168 417 173 c 1,18,19
 428 173 428 173 439 170 c 128,-1,20
 450 167 450 167 458 161 c 128,-1,21
 466 155 466 155 469 145.5 c 128,-1,22
 472 136 472 136 468 123 c 0,23,24
 455 94 455 94 431 70 c 128,-1,25
 407 46 407 46 376 29 c 128,-1,26
 345 12 345 12 311 3 c 128,-1,27
 277 -6 277 -6 244 -6 c 0,28,29
 209 -6 209 -6 176.5 4.5 c 128,-1,30
 144 15 144 15 120 35.5 c 128,-1,31
 96 56 96 56 84 85 c 128,-1,32
 72 114 72 114 80 151 c 2,33,-1
 117 326 l 2,34,35
 124 362 124 362 148 391 c 128,-1,36
 172 420 172 420 204.5 440 c 128,-1,37
 237 460 237 460 274.5 471 c 128,-1,38
 312 482 312 482 348 482 c 0,39,40
 380 482 380 482 410 474 c 128,-1,41
 440 466 440 466 463.5 450.5 c 128,-1,42
 487 435 487 435 501.5 411 c 128,-1,43
 516 387 516 387 517 355 c 0,44,45
 517 341 517 341 510 331.5 c 128,-1,46
 503 322 503 322 492.5 316 c 128,-1,47
 482 310 482 310 469 307 c 128,-1,48
 456 304 456 304 445 304 c 1,49,50
 447 309 447 309 448 315 c 128,-1,51
 449 321 449 321 451 326 c 1,52,53
 456 350 456 350 449.5 371 c 128,-1,54
 443 392 443 392 428 408 c 128,-1,55
 413 424 413 424 390 433 c 128,-1,56
 367 442 367 442 339 442 c 256,57,58
 311 442 311 442 285 433 c 128,-1,59
 259 424 259 424 237.5 408 c 128,-1,60
 216 392 216 392 201 371 c 128,-1,61
 186 350 186 350 181 326 c 2,62,-1
 167 259 l 1,0,-1
EndSplineSet
EndChar
StartChar: F
Encoding: 70 70 39
Width: 484
Flags: W
Fore
117 326 m 2,0,1
 124 362 124 362 148 391 c 128,-1,2
 172 420 172 420 204.5 440 c 128,-1,3
 237 460 237 460 274.5 471 c 128,-1,4
 312 482 312 482 348 482 c 0,5,6
 380 482 380 482 409.5 474 c 128,-1,7
 439 466 439 466 462 450.5 c 128,-1,8
 485 435 485 435 500 411 c 128,-1,9
 515 387 515 387 517 355 c 0,10,11
 517 341 517 341 509.5 331.5 c 128,-1,12
 502 322 502 322 491.5 316 c 128,-1,13
 481 310 481 310 468.5 307 c 128,-1,14
 456 304 456 304 445 304 c 1,15,16
 447 309 447 309 448 315 c 128,-1,17
 449 321 449 321 451 326 c 1,18,19
 456 350 456 350 449.5 371 c 128,-1,20
 443 392 443 392 428 408 c 128,-1,21
 413 424 413 424 390 433 c 128,-1,22
 367 442 367 442 339 442 c 256,23,24
 311 442 311 442 285 433 c 128,-1,25
 259 424 259 424 237.5 408 c 128,-1,26
 216 392 216 392 201 371 c 128,-1,27
 186 350 186 350 181 326 c 2,28,-1
 167 259 l 1,29,-1
 364 259 l 1,30,31
 355 219 355 219 307 219 c 2,32,-1
 158 219 l 1,33,-1
 119 36 l 2,34,35
 110 -6 110 -6 46 -6 c 1,36,-1
 117 326 l 2,0,1
EndSplineSet
EndChar
StartChar: G
Encoding: 71 71 40
Width: 494
Flags: W
Fore
476 151 m 1,0,1
 468 114 468 114 444 85 c 128,-1,2
 420 56 420 56 387 35.5 c 128,-1,3
 354 15 354 15 316.5 4.5 c 128,-1,4
 279 -6 279 -6 244 -6 c 256,5,6
 209 -6 209 -6 176.5 4.5 c 128,-1,7
 144 15 144 15 120 35.5 c 128,-1,8
 96 56 96 56 84 85 c 128,-1,9
 72 114 72 114 80 151 c 2,10,-1
 117 326 l 2,11,12
 124 362 124 362 148 391 c 128,-1,13
 172 420 172 420 204.5 440 c 128,-1,14
 237 460 237 460 274.5 471 c 128,-1,15
 312 482 312 482 348 482 c 0,16,17
 380 482 380 482 410 474 c 128,-1,18
 440 466 440 466 463.5 450.5 c 128,-1,19
 487 435 487 435 501.5 411 c 128,-1,20
 516 387 516 387 517 355 c 0,21,22
 517 341 517 341 510 331.5 c 128,-1,23
 503 322 503 322 492.5 316 c 128,-1,24
 482 310 482 310 469 307 c 128,-1,25
 456 304 456 304 445 304 c 1,26,27
 447 309 447 309 448 315 c 128,-1,28
 449 321 449 321 451 326 c 1,29,30
 456 350 456 350 449.5 371 c 128,-1,31
 443 392 443 392 428 408 c 128,-1,32
 413 424 413 424 390 433 c 128,-1,33
 367 442 367 442 339 442 c 256,34,35
 311 442 311 442 285 433 c 128,-1,36
 259 424 259 424 237.5 408 c 128,-1,37
 216 392 216 392 201 371 c 128,-1,38
 186 350 186 350 181 326 c 2,39,-1
 144 151 l 2,40,41
 139 127 139 127 145 105.5 c 128,-1,42
 151 84 151 84 165.5 68.5 c 128,-1,43
 180 53 180 53 202.5 43.5 c 128,-1,44
 225 34 225 34 253 34 c 256,45,46
 281 34 281 34 307.5 43.5 c 128,-1,47
 334 53 334 53 356 68.5 c 128,-1,48
 378 84 378 84 393 105.5 c 128,-1,49
 408 127 408 127 413 151 c 2,50,-1
 427 219 l 1,51,-1
 281 219 l 1,52,53
 290 259 290 259 338 259 c 2,54,-1
 467 259 l 2,55,56
 481 259 481 259 488.5 252.5 c 128,-1,57
 496 246 496 246 494 237 c 2,58,-1
 476 151 l 1,59,-1
 476 151 l 1,0,1
EndSplineSet
EndChar
StartChar: H
Encoding: 72 72 41
Width: 514
Flags: W
Fore
461 36 m 2,0,1
 452 -6 452 -6 389 -6 c 1,2,-1
 437 219 l 1,3,-1
 168 219 l 1,4,-1
 129 36 l 2,5,6
 120 -6 120 -6 56 -6 c 1,7,-1
 151 440 l 2,8,9
 160 482 160 482 224 482 c 1,10,-1
 177 259 l 1,11,-1
 446 259 l 1,12,-1
 484 440 l 2,13,14
 493 482 493 482 556 482 c 1,15,-1
 461 36 l 2,0,1
EndSplineSet
EndChar
StartChar: I
Encoding: 73 73 42
Width: 180
Flags: W
Fore
129 36 m 2,0,1
 120 -6 120 -6 56 -6 c 1,2,-1
 151 440 l 2,3,4
 160 482 160 482 224 482 c 1,5,-1
 129 36 l 2,0,1
EndSplineSet
EndChar
StartChar: J
Encoding: 74 74 43
Width: 445
Flags: W
Fore
134 151 m 0,0,1
 129 127 129 127 133.5 105.5 c 128,-1,2
 138 84 138 84 150 68.5 c 128,-1,3
 162 53 162 53 181 43.5 c 128,-1,4
 200 34 200 34 224 34 c 256,5,6
 248 34 248 34 270.5 43.5 c 128,-1,7
 293 53 293 53 312 68.5 c 128,-1,8
 331 84 331 84 345 105.5 c 128,-1,9
 359 127 359 127 364 151 c 2,10,-1
 424 437 l 1,11,-1
 342 437 l 2,12,13
 294 437 294 437 303 476 c 1,14,-1
 466 476 l 2,15,16
 479 476 479 476 486 470 c 128,-1,17
 493 464 493 464 491 454 c 2,18,-1
 427 151 l 2,19,20
 420 119 420 119 400 90.5 c 128,-1,21
 380 62 380 62 351 40.5 c 128,-1,22
 322 19 322 19 287 6.5 c 128,-1,23
 252 -6 252 -6 215 -6 c 0,24,25
 182 -6 182 -6 154.5 4 c 128,-1,26
 127 14 127 14 107.5 31 c 128,-1,27
 88 48 88 48 77.5 72 c 128,-1,28
 67 96 67 96 67 123 c 0,29,30
 67 136 67 136 74 145.5 c 128,-1,31
 81 155 81 155 91.5 161 c 128,-1,32
 102 167 102 167 115 170 c 128,-1,33
 128 173 128 173 140 173 c 1,34,35
 138 168 138 168 136.5 162.5 c 128,-1,36
 135 157 135 157 134 151 c 0,0,1
EndSplineSet
EndChar
StartChar: K
Encoding: 75 75 44
Width: 474
Flags: W
Fore
151 440 m 2,0,1
 160 482 160 482 224 482 c 1,2,-1
 174 247 l 1,3,4
 249 307 249 307 326.5 369 c 128,-1,5
 404 431 404 431 478 489 c 1,6,7
 504 456 504 456 473 429 c 2,8,-1
 290 284 l 1,9,-1
 282 281 l 1,10,11
 285 282 285 282 288.5 282 c 128,-1,12
 292 282 292 282 295 282 c 0,13,14
 332 282 332 282 362 269.5 c 128,-1,15
 392 257 392 257 411.5 236 c 128,-1,16
 431 215 431 215 439 186.5 c 128,-1,17
 447 158 447 158 440 125 c 2,18,-1
 421 36 l 2,19,20
 412 -6 412 -6 349 -6 c 1,21,-1
 377 125 l 2,22,23
 382 149 382 149 377.5 170.5 c 128,-1,24
 373 192 373 192 361 208 c 128,-1,25
 349 224 349 224 330 233.5 c 128,-1,26
 311 243 311 243 287 243 c 0,27,28
 264 243 264 243 241 233.5 c 128,-1,29
 218 224 218 224 199.5 208 c 128,-1,30
 181 192 181 192 167 170.5 c 128,-1,31
 153 149 153 149 148 125 c 2,32,-1
 129 36 l 2,33,34
 120 -6 120 -6 56 -6 c 1,35,-1
 151 440 l 2,0,1
EndSplineSet
EndChar
StartChar: L
Encoding: 76 76 45
Width: 434
Flags: W
Fore
375 40 m 2,0,1
 421 40 421 40 414 0 c 1,2,-1
 90 0 l 2,3,4
 76 0 76 0 68 6.5 c 128,-1,5
 60 13 60 13 62 22 c 2,6,-1
 151 440 l 2,7,8
 160 482 160 482 224 482 c 1,9,-1
 130 40 l 1,10,-1
 375 40 l 2,0,1
EndSplineSet
EndChar
StartChar: M
Encoding: 77 77 46
Width: 588
Flags: W
Fore
152 440 m 2,0,1
 161 482 161 482 223 482 c 1,2,-1
 311 85 l 1,3,-1
 567 482 l 1,4,5
 630 482 630 482 621 440 c 2,6,-1
 535 36 l 2,7,8
 526 -6 526 -6 462 -6 c 1,9,-1
 535 336 l 1,10,-1
 323 8 l 2,11,12
 319 3 319 3 310.5 -1.5 c 128,-1,13
 302 -6 302 -6 291 -6 c 256,14,15
 280 -6 280 -6 273.5 -1.5 c 128,-1,16
 267 3 267 3 265 8 c 1,17,-1
 193 336 l 1,18,-1
 129 36 l 2,19,20
 120 -6 120 -6 57 -6 c 1,21,-1
 152 440 l 2,0,1
EndSplineSet
EndChar
StartChar: N
Encoding: 78 78 47
Width: 514
Flags: W
Fore
151 440 m 2,0,1
 160 482 160 482 224 482 c 1,2,-1
 413 106 l 1,3,-1
 493 482 l 1,4,5
 556 482 556 482 547 440 c 2,6,-1
 461 36 l 2,7,8
 452 -6 452 -6 400 -6 c 1,9,-1
 203 383 l 1,10,-1
 129 36 l 2,11,12
 120 -6 120 -6 56 -6 c 1,13,-1
 151 440 l 2,0,1
EndSplineSet
EndChar
StartChar: O
Encoding: 79 79 48
Width: 587
Flags: W
Fore
89 238 m 256,0,1
 100 289 100 289 129 333.5 c 128,-1,2
 158 378 158 378 199.5 411 c 128,-1,3
 241 444 241 444 291 463 c 128,-1,4
 341 482 341 482 394 482 c 256,5,6
 447 482 447 482 489.5 463 c 128,-1,7
 532 444 532 444 559.5 411 c 128,-1,8
 587 378 587 378 597.5 333.5 c 128,-1,9
 608 289 608 289 597 238 c 256,10,11
 586 187 586 187 556.5 142.5 c 128,-1,12
 527 98 527 98 485.5 65 c 128,-1,13
 444 32 444 32 393.5 13 c 128,-1,14
 343 -6 343 -6 290 -6 c 256,15,16
 237 -6 237 -6 195 13 c 128,-1,17
 153 32 153 32 126 65 c 128,-1,18
 99 98 99 98 88.5 142.5 c 128,-1,19
 78 187 78 187 89 238 c 256,0,1
152 238 m 0,20,21
 143 195 143 195 150 158 c 128,-1,22
 157 121 157 121 177 93.5 c 128,-1,23
 197 66 197 66 228.5 50 c 128,-1,24
 260 34 260 34 299 34 c 0,25,26
 339 34 339 34 377 50 c 128,-1,27
 415 66 415 66 446.5 93.5 c 128,-1,28
 478 121 478 121 501 158 c 128,-1,29
 524 195 524 195 533 238 c 0,30,31
 542 280 542 280 535 317.5 c 128,-1,32
 528 355 528 355 508 382.5 c 128,-1,33
 488 410 488 410 456.5 426 c 128,-1,34
 425 442 425 442 385 442 c 0,35,36
 346 442 346 442 308 426 c 128,-1,37
 270 410 270 410 238.5 382.5 c 128,-1,38
 207 355 207 355 184 317.5 c 128,-1,39
 161 280 161 280 152 238 c 0,20,21
EndSplineSet
EndChar
StartChar: P
Encoding: 80 80 49
Width: 494
Flags: W
Fore
154 454 m 2,0,1
 156 464 156 464 166.5 470 c 128,-1,2
 177 476 177 476 191 476 c 2,3,-1
 424 476 l 2,4,5
 451 476 451 476 473 465.5 c 128,-1,6
 495 455 495 455 508.5 437 c 128,-1,7
 522 419 522 419 527.5 396 c 128,-1,8
 533 373 533 373 527 348 c 0,9,10
 522 323 522 323 507 299.5 c 128,-1,11
 492 276 492 276 470.5 258 c 128,-1,12
 449 240 449 240 422.5 229.5 c 128,-1,13
 396 219 396 219 369 219 c 2,14,-1
 168 219 l 1,15,-1
 129 36 l 2,16,17
 120 -6 120 -6 56 -6 c 1,18,-1
 154 454 l 2,0,1
378 259 m 2,19,20
 392 259 392 259 406 267 c 128,-1,21
 420 275 420 275 432 287.5 c 128,-1,22
 444 300 444 300 452.5 316 c 128,-1,23
 461 332 461 332 464 348 c 256,24,25
 467 364 467 364 465.5 379.5 c 128,-1,26
 464 395 464 395 457.5 408 c 128,-1,27
 451 421 451 421 440 429 c 128,-1,28
 429 437 429 437 415 437 c 2,29,-1
 214 437 l 1,30,-1
 177 259 l 1,31,-1
 378 259 l 2,19,20
EndSplineSet
EndChar
StartChar: Q
Encoding: 81 81 50
Width: 587
Flags: W
Fore
552 27 m 1,0,1
 541 -22 541 -22 486 -3 c 0,2,3
 469 2 469 2 456.5 10.5 c 128,-1,4
 444 19 444 19 433 30 c 1,5,6
 400 13 400 13 363.5 3.5 c 128,-1,7
 327 -6 327 -6 290 -6 c 0,8,9
 237 -6 237 -6 195 13 c 128,-1,10
 153 32 153 32 126 65 c 128,-1,11
 99 98 99 98 88.5 142.5 c 128,-1,12
 78 187 78 187 89 238 c 256,13,14
 100 289 100 289 129 333.5 c 128,-1,15
 158 378 158 378 199.5 411 c 128,-1,16
 241 444 241 444 291 463 c 128,-1,17
 341 482 341 482 394 482 c 256,18,19
 447 482 447 482 489.5 463 c 128,-1,20
 532 444 532 444 559.5 411 c 128,-1,21
 587 378 587 378 597.5 333.5 c 128,-1,22
 608 289 608 289 597 238 c 0,23,24
 586 185 586 185 555.5 139.5 c 128,-1,25
 525 94 525 94 480 61 c 1,26,27
 496 47 496 47 510.5 38 c 128,-1,28
 525 29 525 29 541 29 c 1,29,-1
 552 27 l 1,0,1
152 238 m 0,30,31
 146 211 146 211 147 190 c 1,32,33
 189 201 189 201 228 201 c 0,34,35
 270 201 270 201 309.5 188.5 c 128,-1,36
 349 176 349 176 380 155 c 0,37,38
 401 140 401 140 414 128.5 c 128,-1,39
 427 117 427 117 436 106 c 2,40,-1
 443 98 l 1,41,-1
 447 94 l 1,42,43
 479 121 479 121 501.5 158 c 128,-1,44
 524 195 524 195 533 238 c 0,45,46
 542 280 542 280 535 317.5 c 128,-1,47
 528 355 528 355 508 382.5 c 128,-1,48
 488 410 488 410 456.5 426 c 128,-1,49
 425 442 425 442 385 442 c 0,50,51
 346 442 346 442 308 426 c 128,-1,52
 270 410 270 410 238.5 382.5 c 128,-1,53
 207 355 207 355 184 317.5 c 128,-1,54
 161 280 161 280 152 238 c 0,30,31
299 34 m 0,55,56
 353 34 353 34 404 62 c 1,57,-1
 399 68 l 1,58,-1
 399 67 l 1,59,60
 385 82 385 82 369 96.5 c 128,-1,61
 353 111 353 111 340 121 c 1,62,-1
 341 121 l 1,63,64
 315 140 315 140 283.5 150.5 c 128,-1,65
 252 161 252 161 220 161 c 0,66,67
 190 161 190 161 152 147 c 1,68,69
 164 96 164 96 203 65 c 128,-1,70
 242 34 242 34 299 34 c 0,55,56
EndSplineSet
EndChar
StartChar: R
Encoding: 82 82 51
Width: 505
Flags: W
Fore
378 259 m 2,0,1
 392 259 392 259 406 267 c 128,-1,2
 420 275 420 275 432 287.5 c 128,-1,3
 444 300 444 300 452.5 316 c 128,-1,4
 461 332 461 332 464 348 c 256,5,6
 467 364 467 364 465.5 379.5 c 128,-1,7
 464 395 464 395 457.5 408 c 128,-1,8
 451 421 451 421 440 429 c 128,-1,9
 429 437 429 437 415 437 c 2,10,-1
 214 437 l 1,11,-1
 177 259 l 1,12,-1
 378 259 l 2,0,1
129 36 m 2,13,14
 120 -6 120 -6 56 -6 c 1,15,-1
 154 454 l 2,16,17
 156 464 156 464 166.5 470 c 128,-1,18
 177 476 177 476 191 476 c 2,19,-1
 424 476 l 2,20,21
 451 476 451 476 473 465.5 c 128,-1,22
 495 455 495 455 508.5 437 c 128,-1,23
 522 419 522 419 527.5 396 c 128,-1,24
 533 373 533 373 527 348 c 0,25,26
 524 333 524 333 515.5 317 c 128,-1,27
 507 301 507 301 494.5 286 c 128,-1,28
 482 271 482 271 467.5 258.5 c 128,-1,29
 453 246 453 246 438 237 c 1,30,31
 464 221 464 221 476.5 191.5 c 128,-1,32
 489 162 489 162 482 130 c 2,33,-1
 462 36 l 2,34,35
 453 -6 453 -6 390 -6 c 1,36,-1
 419 130 l 2,37,38
 428 172 428 172 413 195.5 c 128,-1,39
 398 219 398 219 369 219 c 2,40,-1
 168 219 l 1,41,-1
 129 36 l 2,13,14
EndSplineSet
EndChar
StartChar: S
Encoding: 83 83 52
Width: 474
Flags: W
Fore
132 151 m 0,0,1
 127 127 127 127 133 106 c 128,-1,2
 139 85 139 85 154 69 c 128,-1,3
 169 53 169 53 191.5 43.5 c 128,-1,4
 214 34 214 34 242 34 c 256,5,6
 270 34 270 34 297.5 43.5 c 128,-1,7
 325 53 325 53 347 69 c 128,-1,8
 369 85 369 85 383.5 106 c 128,-1,9
 398 127 398 127 401 149 c 0,10,11
 403 167 403 167 394.5 179 c 128,-1,12
 386 191 386 191 369 199.5 c 128,-1,13
 352 208 352 208 328 214 c 128,-1,14
 304 220 304 220 277 226 c 0,15,16
 238 234 238 234 209 242.5 c 128,-1,17
 180 251 180 251 161 263.5 c 128,-1,18
 142 276 142 276 134.5 294 c 128,-1,19
 127 312 127 312 130 339 c 0,20,21
 133 367 133 367 150 392.5 c 128,-1,22
 167 418 167 418 194.5 438 c 128,-1,23
 222 458 222 458 258.5 470 c 128,-1,24
 295 482 295 482 337 482 c 0,25,26
 412 482 412 482 449 445 c 128,-1,27
 486 408 486 408 484 353 c 1,28,29
 478 331 478 331 455 317.5 c 128,-1,30
 432 304 432 304 411 304 c 1,31,32
 413 309 413 309 414 315 c 128,-1,33
 415 321 415 321 417 326 c 1,34,35
 422 350 422 350 418.5 371 c 128,-1,36
 415 392 415 392 404 407.5 c 128,-1,37
 393 423 393 423 374 432.5 c 128,-1,38
 355 442 355 442 328 442 c 256,39,40
 301 442 301 442 278 433.5 c 128,-1,41
 255 425 255 425 237 411 c 128,-1,42
 219 397 219 397 207.5 379.5 c 128,-1,43
 196 362 196 362 194 343 c 0,44,45
 190 308 190 308 216.5 292.5 c 128,-1,46
 243 277 243 277 297 265 c 0,47,48
 335 258 335 258 367.5 250 c 128,-1,49
 400 242 400 242 423 230 c 128,-1,50
 446 218 446 218 457.5 199.5 c 128,-1,51
 469 181 469 181 465 152 c 0,52,53
 460 121 460 121 439 92.5 c 128,-1,54
 418 64 418 64 385.5 42 c 128,-1,55
 353 20 353 20 313.5 7 c 128,-1,56
 274 -6 274 -6 233 -6 c 0,57,58
 196 -6 196 -6 165.5 4 c 128,-1,59
 135 14 135 14 112.5 31 c 128,-1,60
 90 48 90 48 77.5 72 c 128,-1,61
 65 96 65 96 65 123 c 0,62,63
 65 136 65 136 72 145.5 c 128,-1,64
 79 155 79 155 89.5 161 c 128,-1,65
 100 167 100 167 112.5 170 c 128,-1,66
 125 173 125 173 137 173 c 1,67,68
 135 168 135 168 134 162.5 c 128,-1,69
 133 157 133 157 132 151 c 0,0,1
EndSplineSet
EndChar
StartChar: T
Encoding: 84 84 53
Width: 393
Flags: W
Fore
494 476 m 1,0,1
 485 437 485 437 438 437 c 2,2,-1
 320 437 l 1,3,-1
 235 36 l 2,4,5
 226 -6 226 -6 163 -6 c 1,6,-1
 257 437 l 1,7,-1
 91 437 l 1,8,9
 100 476 100 476 147 476 c 2,10,-1
 494 476 l 1,0,1
EndSplineSet
EndChar
StartChar: U
Encoding: 85 85 54
Width: 514
Flags: W
Fore
154 151 m 2,0,1
 149 127 149 127 155 105.5 c 128,-1,2
 161 84 161 84 175.5 68.5 c 128,-1,3
 190 53 190 53 212.5 43.5 c 128,-1,4
 235 34 235 34 263 34 c 256,5,6
 291 34 291 34 317.5 43.5 c 128,-1,7
 344 53 344 53 366 68.5 c 128,-1,8
 388 84 388 84 403 105.5 c 128,-1,9
 418 127 418 127 423 151 c 2,10,-1
 484 440 l 2,11,12
 493 482 493 482 556 482 c 1,13,-1
 486 151 l 2,14,15
 478 114 478 114 454 85 c 128,-1,16
 430 56 430 56 397 35.5 c 128,-1,17
 364 15 364 15 326.5 4.5 c 128,-1,18
 289 -6 289 -6 254 -6 c 256,19,20
 219 -6 219 -6 186.5 4.5 c 128,-1,21
 154 15 154 15 130 35.5 c 128,-1,22
 106 56 106 56 94 85 c 128,-1,23
 82 114 82 114 90 151 c 2,24,-1
 151 440 l 2,25,26
 160 482 160 482 224 482 c 1,27,-1
 154 151 l 2,0,1
EndSplineSet
EndChar
StartChar: V
Encoding: 86 86 55
Width: 452
Flags: W
Fore
242 87 m 1,0,1
 298 181 298 181 353.5 272 c 128,-1,2
 409 363 409 363 464 456 c 0,3,4
 475 473 475 473 498 480 c 128,-1,5
 521 487 521 487 542 477 c 1,6,-1
 256 7 l 2,7,8
 246 -6 246 -6 223 -6 c 256,9,10
 200 -6 200 -6 197 7 c 2,11,-1
 111 477 l 1,12,13
 136 487 136 487 155.5 480 c 128,-1,14
 175 473 175 473 179 456 c 2,15,-1
 242 87 l 1,0,1
EndSplineSet
EndChar
StartChar: W
Encoding: 87 87 56
Width: 658
Flags: W
Fore
396 326 m 1,0,-1
 219 -6 l 1,1,2
 191 -6 191 -6 178.5 2.5 c 128,-1,3
 166 11 166 11 164 28 c 2,4,-1
 111 479 l 1,5,6
 137 487 137 487 156.5 479.5 c 128,-1,7
 176 472 176 472 178 454 c 2,8,-1
 218 104 l 1,9,-1
 386 423 l 2,10,11
 394 437 394 437 419 437 c 256,12,13
 444 437 444 437 446 423 c 2,14,-1
 480 104 l 1,15,16
 526 192 526 192 573 279 c 128,-1,17
 620 366 620 366 668 454 c 0,18,19
 678 472 678 472 700 479.5 c 128,-1,20
 722 487 722 487 745 479 c 1,21,-1
 500 28 l 2,22,23
 492 11 492 11 475.5 2.5 c 128,-1,24
 459 -6 459 -6 431 -6 c 1,25,-1
 396 326 l 1,0,-1
EndSplineSet
EndChar
StartChar: X
Encoding: 88 88 57
Width: 440
Flags: W
Fore
121 474 m 1,0,1
 144 488 144 488 163 484.5 c 128,-1,2
 182 481 182 481 190 465 c 2,3,-1
 280 289 l 1,4,-1
 445 465 l 2,5,6
 461 481 461 481 481 484.5 c 128,-1,7
 501 488 501 488 518 474 c 1,8,-1
 303 245 l 1,9,-1
 428 3 l 1,10,11
 405 -12 405 -12 386.5 -8 c 128,-1,12
 368 -4 368 -4 359 13 c 2,13,-1
 261 201 l 1,14,-1
 84 13 l 2,15,16
 69 -4 69 -4 48.5 -7.5 c 128,-1,17
 28 -11 28 -11 11 3 c 1,18,-1
 239 245 l 1,19,-1
 121 474 l 1,0,1
EndSplineSet
EndChar
StartChar: Y
Encoding: 89 89 58
Width: 420
Flags: W
Fore
248 36 m 2,0,1
 239 -6 239 -6 176 -6 c 1,2,-1
 230 245 l 1,3,-1
 111 474 l 1,4,5
 134 488 134 488 153 484.5 c 128,-1,6
 172 481 172 481 180 465 c 2,7,-1
 270 289 l 1,8,-1
 435 465 l 2,9,10
 451 481 451 481 471 484.5 c 128,-1,11
 491 488 491 488 508 474 c 1,12,-1
 293 245 l 1,13,-1
 248 36 l 2,0,1
EndSplineSet
EndChar
StartChar: Z
Encoding: 90 90 59
Width: 440
Flags: W
Fore
50 0 m 1,0,1
 34 0 34 0 28 12 c 128,-1,2
 22 24 22 24 32 34 c 2,3,-1
 435 437 l 1,4,-1
 158 437 l 2,5,6
 111 437 111 437 120 476 c 1,7,-1
 489 476 l 2,8,9
 505 476 505 476 510.5 464 c 128,-1,10
 516 452 516 452 506 442 c 2,11,-1
 103 40 l 1,12,-1
 381 40 l 2,13,14
 427 40 427 40 420 0 c 1,15,-1
 50 0 l 1,16,-1
 50 0 l 1,0,1
EndSplineSet
EndChar
StartChar: bracketleft
Encoding: 91 91 60
Width: 211
Flags: W
Fore
39 -85 m 1,0,-1
 162 493 l 1,1,-1
 321 493 l 1,2,3
 312 453 312 453 265 453 c 2,4,-1
 216 453 l 1,5,-1
 110 -46 l 1,6,-1
 159 -46 l 2,7,8
 207 -46 207 -46 198 -85 c 1,9,-1
 39 -85 l 1,0,-1
EndSplineSet
EndChar
StartChar: backslash
Encoding: 92 92 61
Width: 299
Flags: W
Fore
304 -17 m 1,0,1
 278 -29 278 -29 261 -24.5 c 128,-1,2
 244 -20 244 -20 238 -3 c 2,3,-1
 94 492 l 1,4,5
 149 517 149 517 160 478 c 2,6,-1
 304 -17 l 1,0,1
EndSplineSet
EndChar
StartChar: asciicircum
Encoding: 94 94 63
Width: 446
Flags: W
Fore
292 466 m 2,0,1
 301 478 301 478 324 478 c 0,2,3
 345 477 345 477 350 466 c 1,4,5
 388 304 l 128,-1,6
 407 223 407 223 427 142 c 1,7,8
 406 132 406 132 385.5 136 c 128,-1,9
 365 140 365 140 361 154 c 0,10,11
 347 215 347 215 333.5 274 c 128,-1,12
 320 333 320 333 306 396 c 1,13,14
 265 335 265 335 225.5 274.5 c 128,-1,15
 186 214 186 214 147 154 c 0,16,17
 136 140 136 140 115 136 c 128,-1,18
 94 132 94 132 78 142 c 1,19,-1
 292 466 l 2,0,1
EndSplineSet
EndChar
StartChar: underscore
Encoding: 95 95 64
Width: 382
Flags: W
Fore
-39 -186 m 1,0,-1
 -31 -150 l 1,1,-1
 349 -150 l 1,2,-1
 341 -186 l 1,3,-1
 -39 -186 l 1,0,-1
EndSplineSet
EndChar
StartChar: grave
Encoding: 96 96 65
Width: 236
Flags: W
Fore
268 370 m 1,0,1
 242 370 242 370 228 373.5 c 128,-1,2
 214 377 214 377 206 387 c 2,3,-1
 142 477 l 1,4,-1
 177 477 l 2,5,6
 222 477 222 477 229 458 c 2,7,-1
 268 370 l 1,0,1
EndSplineSet
EndChar
StartChar: a
Encoding: 97 97 66
Width: 390
Flags: W
Fore
231 223 m 0,0,1
 280 223 280 223 313 201 c 1,2,-1
 320 232 l 2,3,4
 327 263 327 263 306 286.5 c 128,-1,5
 285 310 285 310 249 310 c 0,6,7
 222 310 222 310 191.5 288.5 c 128,-1,8
 161 267 161 267 138 235 c 1,9,10
 123 249 123 249 120 267.5 c 128,-1,11
 117 286 117 286 129 298 c 0,12,13
 153 320 153 320 187.5 333 c 128,-1,14
 222 346 222 346 257 346 c 0,15,16
 283 346 283 346 307.5 338.5 c 128,-1,17
 332 331 332 331 350 316 c 128,-1,18
 368 301 368 301 376.5 280 c 128,-1,19
 385 259 385 259 379 232 c 2,20,-1
 336 32 l 2,21,22
 328 -6 328 -6 269 -6 c 1,23,-1
 274 15 l 1,24,25
 254 5 254 5 230.5 -0.5 c 128,-1,26
 207 -6 207 -6 182 -6 c 0,27,28
 152 -6 152 -6 127 3 c 128,-1,29
 102 12 102 12 85.5 27.5 c 128,-1,30
 69 43 69 43 62 63.5 c 128,-1,31
 55 84 55 84 60 108 c 256,32,33
 65 132 65 132 81 153 c 128,-1,34
 97 174 97 174 120.5 189.5 c 128,-1,35
 144 205 144 205 172.5 214 c 128,-1,36
 201 223 201 223 231 223 c 0,0,1
190 31 m 0,37,38
 228 31 228 31 257.5 54 c 128,-1,39
 287 77 287 77 293 108 c 0,40,41
 300 140 300 140 280.5 163.5 c 128,-1,42
 261 187 261 187 223 187 c 0,43,44
 205 187 205 187 187.5 180.5 c 128,-1,45
 170 174 170 174 156.5 163 c 128,-1,46
 143 152 143 152 133 138 c 128,-1,47
 123 124 123 124 120 108 c 0,48,49
 114 77 114 77 133.5 54 c 128,-1,50
 153 31 153 31 190 31 c 0,37,38
EndSplineSet
Substitution: 0 65534 'L026' uni0E38
Substitution: 0 65534 'L026' uni0E38
EndChar
StartChar: b
Encoding: 98 98 67
Width: 400
Flags: W
Fore
141 109 m 2,0,1
 134 77 134 77 153.5 54 c 128,-1,2
 173 31 173 31 210 31 c 0,3,4
 248 31 248 31 277.5 54 c 128,-1,5
 307 77 307 77 314 109 c 2,6,-1
 340 232 l 2,7,8
 347 263 347 263 327 286.5 c 128,-1,9
 307 310 307 310 269 310 c 0,10,11
 232 310 232 310 203 286.5 c 128,-1,12
 174 263 174 263 167 232 c 2,13,-1
 141 109 l 2,0,1
186 324 m 1,14,15
 228 346 228 346 277 346 c 0,16,17
 308 346 308 346 332.5 337 c 128,-1,18
 357 328 357 328 373.5 313 c 128,-1,19
 390 298 390 298 397 277 c 128,-1,20
 404 256 404 256 399 232 c 2,21,-1
 373 109 l 2,22,23
 368 85 368 85 352 64.5 c 128,-1,24
 336 44 336 44 313 28 c 128,-1,25
 290 12 290 12 261.5 3 c 128,-1,26
 233 -6 233 -6 202 -6 c 0,27,28
 151 -6 151 -6 119 17 c 1,29,30
 113 6 113 6 98.5 0 c 128,-1,31
 84 -6 84 -6 56 -6 c 1,32,-1
 152 443 l 2,33,34
 160 481 160 481 220 481 c 1,35,-1
 186 324 l 1,14,15
EndSplineSet
Substitution: 0 65534 'L026' uni0E39
Substitution: 0 65534 'L026' uni0E39
EndChar
StartChar: c
Encoding: 99 99 68
Width: 364
Flags: W
Fore
267 346 m 0,0,1
 315 346 315 346 347 326.5 c 128,-1,2
 379 307 379 307 387 275 c 0,3,4
 389 265 389 265 383.5 256.5 c 128,-1,5
 378 248 378 248 368.5 242 c 128,-1,6
 359 236 359 236 348 232.5 c 128,-1,7
 337 229 337 229 329 229 c 1,8,9
 336 261 336 261 316 285.5 c 128,-1,10
 296 310 296 310 259 310 c 256,11,12
 222 310 222 310 193 286.5 c 128,-1,13
 164 263 164 263 157 231 c 2,14,-1
 130 108 l 2,15,16
 124 77 124 77 143.5 54 c 128,-1,17
 163 31 163 31 200 31 c 0,18,19
 219 31 219 31 236 37.5 c 128,-1,20
 253 44 253 44 267 55 c 128,-1,21
 281 66 281 66 291 80.5 c 128,-1,22
 301 95 301 95 304 111 c 1,23,24
 312 111 312 111 321.5 107.5 c 128,-1,25
 331 104 331 104 338 98 c 128,-1,26
 345 92 345 92 347 83.5 c 128,-1,27
 349 75 349 75 342 65 c 0,28,29
 320 33 320 33 280 13.5 c 128,-1,30
 240 -6 240 -6 192 -6 c 0,31,32
 162 -6 162 -6 137 3 c 128,-1,33
 112 12 112 12 95.5 27.5 c 128,-1,34
 79 43 79 43 72 63.5 c 128,-1,35
 65 84 65 84 70 108 c 2,36,-1
 97 231 l 2,37,38
 102 255 102 255 117.5 276 c 128,-1,39
 133 297 133 297 156.5 312.5 c 128,-1,40
 180 328 180 328 208.5 337 c 128,-1,41
 237 346 237 346 267 346 c 0,0,1
EndSplineSet
Substitution: 0 65534 'L026' uni0E3A
Substitution: 0 65534 'L026' uni0E3A
EndChar
StartChar: d
Encoding: 100 100 69
Width: 400
Flags: W
Fore
330 231 m 2,0,1
 337 263 337 263 317 286.5 c 128,-1,2
 297 310 297 310 259 310 c 0,3,4
 222 310 222 310 193 286.5 c 128,-1,5
 164 263 164 263 157 231 c 2,6,-1
 130 108 l 2,7,8
 124 77 124 77 143.5 54 c 128,-1,9
 163 31 163 31 200 31 c 0,10,11
 238 31 238 31 267.5 54 c 128,-1,12
 297 77 297 77 303 108 c 2,13,-1
 330 231 l 2,0,1
267 346 m 0,14,15
 316 346 316 346 349 324 c 1,16,-1
 375 443 l 2,17,18
 383 481 383 481 442 481 c 1,19,-1
 346 32 l 2,20,21
 338 -6 338 -6 279 -6 c 1,22,-1
 284 15 l 1,23,24
 264 5 264 5 240.5 -0.5 c 128,-1,25
 217 -6 217 -6 192 -6 c 0,26,27
 162 -6 162 -6 137 3 c 128,-1,28
 112 12 112 12 95.5 27.5 c 128,-1,29
 79 43 79 43 72 63.5 c 128,-1,30
 65 84 65 84 70 108 c 2,31,-1
 97 231 l 2,32,33
 102 255 102 255 117.5 276 c 128,-1,34
 133 297 133 297 156.5 312.5 c 128,-1,35
 180 328 180 328 208.5 337 c 128,-1,36
 237 346 237 346 267 346 c 0,14,15
EndSplineSet
EndChar
StartChar: e
Encoding: 101 101 70
Width: 390
Flags: W
Fore
130 108 m 2,0,1
 124 77 124 77 143.5 54 c 128,-1,2
 163 31 163 31 200 31 c 0,3,4
 219 31 219 31 236 37.5 c 128,-1,5
 253 44 253 44 267 55 c 128,-1,6
 281 66 281 66 291 80.5 c 128,-1,7
 301 95 301 95 304 111 c 1,8,9
 312 111 312 111 321.5 107.5 c 128,-1,10
 331 104 331 104 338 98 c 128,-1,11
 345 92 345 92 347 83.5 c 128,-1,12
 349 75 349 75 342 65 c 0,13,14
 320 33 320 33 280 13.5 c 128,-1,15
 240 -6 240 -6 192 -6 c 0,16,17
 162 -6 162 -6 137 3 c 128,-1,18
 112 12 112 12 95.5 27.5 c 128,-1,19
 79 43 79 43 72 63.5 c 128,-1,20
 65 84 65 84 70 108 c 2,21,-1
 97 231 l 2,22,23
 102 255 102 255 117.5 276 c 128,-1,24
 133 297 133 297 156.5 312.5 c 128,-1,25
 180 328 180 328 208.5 337 c 128,-1,26
 237 346 237 346 267 346 c 0,27,28
 298 346 298 346 322.5 337 c 128,-1,29
 347 328 347 328 363.5 312.5 c 128,-1,30
 380 297 380 297 387 276 c 128,-1,31
 394 255 394 255 389 231 c 2,32,-1
 381 195 l 2,33,34
 379 187 379 187 368.5 181.5 c 128,-1,35
 358 176 358 176 347 176 c 2,36,-1
 145 176 l 1,37,-1
 130 108 l 2,0,1
153 212 m 1,38,-1
 326 212 l 1,39,-1
 330 231 l 2,40,41
 337 263 337 263 317 286.5 c 128,-1,42
 297 310 297 310 259 310 c 0,43,44
 222 310 222 310 193 286.5 c 128,-1,45
 164 263 164 263 157 231 c 2,46,-1
 153 212 l 1,38,-1
EndSplineSet
EndChar
StartChar: f
Encoding: 102 102 71
Width: 220
Flags: W
Fore
130 304 m 1,0,-1
 72 304 l 1,1,2
 80 340 80 340 125 340 c 2,3,-1
 138 340 l 1,4,-1
 148 389 l 2,5,6
 156 427 156 427 191.5 454 c 128,-1,7
 227 481 227 481 278 481 c 0,8,9
 303 481 303 481 309 465.5 c 128,-1,10
 315 450 315 450 303 433 c 1,11,12
 292 438 292 438 284 441 c 128,-1,13
 276 444 276 444 270 444 c 0,14,15
 245 444 245 444 228.5 428 c 128,-1,16
 212 412 212 412 207 389 c 2,17,-1
 197 340 l 1,18,-1
 260 340 l 1,19,20
 252 304 252 304 207 304 c 2,21,-1
 189 304 l 1,22,-1
 131 32 l 2,23,24
 123 -6 123 -6 64 -6 c 1,25,-1
 130 304 l 1,0,-1
EndSplineSet
EndChar
StartChar: g
Encoding: 103 103 72
Width: 400
Flags: W
Fore
330 231 m 2,0,1
 337 263 337 263 317 286.5 c 128,-1,2
 297 310 297 310 259 310 c 0,3,4
 222 310 222 310 193 286.5 c 128,-1,5
 164 263 164 263 157 231 c 2,6,-1
 130 108 l 2,7,8
 124 77 124 77 143.5 54 c 128,-1,9
 163 31 163 31 200 31 c 0,10,11
 238 31 238 31 267.5 54 c 128,-1,12
 297 77 297 77 303 108 c 2,13,-1
 330 231 l 2,0,1
284 15 m 1,14,15
 264 5 264 5 240.5 -0.5 c 128,-1,16
 217 -6 217 -6 192 -6 c 0,17,18
 162 -6 162 -6 137 3 c 128,-1,19
 112 12 112 12 95.5 27.5 c 128,-1,20
 79 43 79 43 72 63.5 c 128,-1,21
 65 84 65 84 70 108 c 2,22,-1
 97 231 l 2,23,24
 102 255 102 255 117.5 276 c 128,-1,25
 133 297 133 297 156.5 312.5 c 128,-1,26
 180 328 180 328 208.5 337 c 128,-1,27
 237 346 237 346 267 346 c 0,28,29
 292 346 292 346 313 340 c 128,-1,30
 334 334 334 334 350 323 c 1,31,32
 356 334 356 334 370.5 340 c 128,-1,33
 385 346 385 346 413 346 c 1,34,-1
 334 -27 l 2,35,36
 329 -51 329 -51 313 -71.5 c 128,-1,37
 297 -92 297 -92 274.5 -107.5 c 128,-1,38
 252 -123 252 -123 223.5 -132 c 128,-1,39
 195 -141 195 -141 164 -141 c 0,40,41
 116 -141 116 -141 84 -121 c 128,-1,42
 52 -101 52 -101 44 -69 c 0,43,44
 41 -60 41 -60 46.5 -51.5 c 128,-1,45
 52 -43 52 -43 61.5 -37 c 128,-1,46
 71 -31 71 -31 82 -27.5 c 128,-1,47
 93 -24 93 -24 102 -24 c 1,48,49
 95 -56 95 -56 114.5 -80 c 128,-1,50
 134 -104 134 -104 171 -104 c 0,51,52
 209 -104 209 -104 238.5 -80.5 c 128,-1,53
 268 -57 268 -57 275 -27 c 2,54,-1
 284 15 l 1,14,15
EndSplineSet
EndChar
StartChar: h
Encoding: 104 104 73
Width: 410
Flags: W
Fore
152 443 m 2,0,1
 160 481 160 481 220 481 c 1,2,-1
 186 324 l 1,3,4
 228 346 228 346 277 346 c 0,5,6
 308 346 308 346 332.5 337 c 128,-1,7
 357 328 357 328 373.5 312.5 c 128,-1,8
 390 297 390 297 397 276 c 128,-1,9
 404 255 404 255 399 231 c 2,10,-1
 356 32 l 2,11,12
 348 -6 348 -6 289 -6 c 1,13,-1
 340 231 l 2,14,15
 347 263 347 263 327 286.5 c 128,-1,16
 307 310 307 310 269 310 c 0,17,18
 232 310 232 310 203 286.5 c 128,-1,19
 174 263 174 263 167 231 c 2,20,-1
 124 32 l 2,21,22
 116 -6 116 -6 56 -6 c 1,23,-1
 152 443 l 2,0,1
EndSplineSet
EndChar
StartChar: i
Encoding: 105 105 74
Width: 176
Flags: W
Fore
123 309 m 2,0,1
 131 346 131 346 190 346 c 1,2,-1
 123 32 l 2,3,4
 115 -6 115 -6 56 -6 c 1,5,-1
 123 309 l 2,0,1
133 432 m 0,6,7
 136 446 136 446 151.5 456.5 c 128,-1,8
 167 467 167 467 187 467 c 256,9,10
 207 467 207 467 217 456.5 c 128,-1,11
 227 446 227 446 224 432 c 0,12,13
 221 417 221 417 206.5 406.5 c 128,-1,14
 192 396 192 396 172 396 c 256,15,16
 152 396 152 396 141 406.5 c 128,-1,17
 130 417 130 417 133 432 c 0,6,7
EndSplineSet
EndChar
StartChar: j
Encoding: 106 106 75
Width: 176
Flags: W
Fore
106 -49 m 2,0,1
 98 -87 98 -87 63.5 -114 c 128,-1,2
 29 -141 29 -141 -22 -141 c 0,3,4
 -47 -141 -47 -141 -53 -125 c 128,-1,5
 -59 -109 -59 -109 -47 -92 c 1,6,7
 -26 -104 -26 -104 -15 -104 c 0,8,9
 9 -104 9 -104 25.5 -88 c 128,-1,10
 42 -72 42 -72 47 -49 c 2,11,-1
 123 309 l 2,12,13
 131 346 131 346 190 346 c 1,14,-1
 106 -49 l 2,0,1
133 432 m 0,15,16
 136 446 136 446 151.5 456.5 c 128,-1,17
 167 467 167 467 187 467 c 256,18,19
 207 467 207 467 217 456.5 c 128,-1,20
 227 446 227 446 224 432 c 0,21,22
 221 417 221 417 206.5 406.5 c 128,-1,23
 192 396 192 396 172 396 c 256,24,25
 152 396 152 396 141 406.5 c 128,-1,26
 130 417 130 417 133 432 c 0,15,16
EndSplineSet
EndChar
StartChar: k
Encoding: 107 107 76
Width: 400
Flags: W
Fore
152 443 m 2,0,1
 160 481 160 481 220 481 c 1,2,-1
 165 223 l 1,3,-1
 395 352 l 1,4,5
 410 312 410 312 372 292 c 2,6,-1
 283 242 l 1,7,-1
 273 242 l 1,8,9
 327 237 327 237 356.5 205 c 128,-1,10
 386 173 386 173 377 128 c 2,11,-1
 356 32 l 2,12,13
 348 -6 348 -6 289 -6 c 1,14,-1
 318 128 l 2,15,16
 325 160 325 160 305 183 c 128,-1,17
 285 206 285 206 247 206 c 0,18,19
 210 206 210 206 181 183 c 128,-1,20
 152 160 152 160 145 128 c 2,21,-1
 124 32 l 2,22,23
 116 -6 116 -6 56 -6 c 1,24,-1
 152 443 l 2,0,1
EndSplineSet
EndChar
StartChar: l
Encoding: 108 108 77
Width: 212
Flags: W
Fore
166 -6 m 0,0,1
 115 -6 115 -6 91.5 21 c 128,-1,2
 68 48 68 48 76 86 c 2,3,-1
 152 443 l 2,4,5
 160 481 160 481 220 481 c 1,6,-1
 136 86 l 2,7,8
 131 63 131 63 140 47 c 128,-1,9
 149 31 149 31 174 31 c 0,10,11
 185 31 185 31 212 43 c 1,12,13
 217 26 217 26 204 10 c 128,-1,14
 191 -6 191 -6 166 -6 c 0,0,1
EndSplineSet
EndChar
StartChar: m
Encoding: 109 109 78
Width: 542
Flags: W
Fore
293 254 m 2,0,1
 298 277 298 277 283.5 293.5 c 128,-1,2
 269 310 269 310 244 310 c 0,3,4
 218 310 218 310 197 293.5 c 128,-1,5
 176 277 176 277 171 254 c 2,6,-1
 124 32 l 2,7,8
 116 -6 116 -6 57 -6 c 1,9,-1
 124 309 l 2,10,11
 132 346 132 346 191 346 c 1,12,-1
 188 334 l 1,13,14
 216 346 216 346 252 346 c 0,15,16
 278 346 278 346 299 337.5 c 128,-1,17
 320 329 320 329 334 314 c 1,18,19
 354 329 354 329 379.5 337.5 c 128,-1,20
 405 346 405 346 433 346 c 0,21,22
 484 346 484 346 513 319 c 128,-1,23
 542 292 542 292 534 254 c 2,24,-1
 487 32 l 2,25,26
 479 -6 479 -6 420 -6 c 1,27,-1
 475 254 l 2,28,29
 480 277 480 277 465.5 293.5 c 128,-1,30
 451 310 451 310 425 310 c 0,31,32
 400 310 400 310 379 293.5 c 128,-1,33
 358 277 358 277 353 254 c 2,34,-1
 306 32 l 2,35,36
 298 -6 298 -6 238 -6 c 1,37,-1
 293 254 l 2,0,1
EndSplineSet
EndChar
StartChar: n
Encoding: 110 110 79
Width: 410
Flags: W
Fore
123 309 m 2,0,1
 131 346 131 346 191 346 c 1,2,-1
 186 324 l 1,3,4
 228 346 228 346 277 346 c 0,5,6
 308 346 308 346 332.5 337 c 128,-1,7
 357 328 357 328 373.5 312.5 c 128,-1,8
 390 297 390 297 397 276 c 128,-1,9
 404 255 404 255 399 231 c 2,10,-1
 356 32 l 2,11,12
 348 -6 348 -6 289 -6 c 1,13,-1
 340 231 l 2,14,15
 347 263 347 263 327 286.5 c 128,-1,16
 307 310 307 310 269 310 c 0,17,18
 232 310 232 310 203 286.5 c 128,-1,19
 174 263 174 263 167 231 c 2,20,-1
 124 32 l 2,21,22
 116 -6 116 -6 56 -6 c 1,23,-1
 123 309 l 2,0,1
EndSplineSet
EndChar
StartChar: o
Encoding: 111 111 80
Width: 451
Flags: W
Fore
75 170 m 0,0,1
 82 206 82 206 103.5 238 c 128,-1,2
 125 270 125 270 155 294 c 128,-1,3
 185 318 185 318 221.5 332 c 128,-1,4
 258 346 258 346 297 346 c 256,5,6
 336 346 336 346 367 332 c 128,-1,7
 398 318 398 318 418 294 c 128,-1,8
 438 270 438 270 446 238 c 128,-1,9
 454 206 454 206 447 170 c 0,10,11
 439 133 439 133 417.5 101 c 128,-1,12
 396 69 396 69 365.5 45 c 128,-1,13
 335 21 335 21 298 7.5 c 128,-1,14
 261 -6 261 -6 222 -6 c 256,15,16
 183 -6 183 -6 152.5 7.5 c 128,-1,17
 122 21 122 21 102 45 c 128,-1,18
 82 69 82 69 74.5 101 c 128,-1,19
 67 133 67 133 75 170 c 0,0,1
134 170 m 256,20,21
 128 141 128 141 132.5 115.5 c 128,-1,22
 137 90 137 90 150 71 c 128,-1,23
 163 52 163 52 183.5 41.5 c 128,-1,24
 204 31 204 31 230 31 c 256,25,26
 256 31 256 31 281.5 41.5 c 128,-1,27
 307 52 307 52 328.5 71 c 128,-1,28
 350 90 350 90 365.5 115.5 c 128,-1,29
 381 141 381 141 387 170 c 256,30,31
 393 199 393 199 388.5 224.5 c 128,-1,32
 384 250 384 250 370.5 269 c 128,-1,33
 357 288 357 288 336 299 c 128,-1,34
 315 310 315 310 289 310 c 256,35,36
 263 310 263 310 238 299 c 128,-1,37
 213 288 213 288 192 269 c 128,-1,38
 171 250 171 250 155.5 224.5 c 128,-1,39
 140 199 140 199 134 170 c 256,20,21
EndSplineSet
EndChar
StartChar: p
Encoding: 112 112 81
Width: 400
Flags: W
Fore
140 108 m 2,0,1
 134 77 134 77 153.5 54 c 128,-1,2
 173 31 173 31 210 31 c 0,3,4
 248 31 248 31 277.5 54 c 128,-1,5
 307 77 307 77 313 108 c 2,6,-1
 340 231 l 2,7,8
 347 263 347 263 327 286.5 c 128,-1,9
 307 310 307 310 269 310 c 0,10,11
 232 310 232 310 203 286.5 c 128,-1,12
 174 263 174 263 167 231 c 2,13,-1
 140 108 l 2,0,1
123 309 m 2,14,15
 131 346 131 346 191 346 c 1,16,-1
 186 324 l 1,17,18
 228 346 228 346 277 346 c 0,19,20
 308 346 308 346 332.5 337 c 128,-1,21
 357 328 357 328 373.5 312.5 c 128,-1,22
 390 297 390 297 397 276 c 128,-1,23
 404 255 404 255 399 231 c 2,24,-1
 372 108 l 2,25,26
 367 84 367 84 351.5 63.5 c 128,-1,27
 336 43 336 43 313 27.5 c 128,-1,28
 290 12 290 12 261.5 3 c 128,-1,29
 233 -6 233 -6 202 -6 c 0,30,31
 177 -6 177 -6 157 -0.5 c 128,-1,32
 137 5 137 5 121 15 c 1,33,-1
 96 -103 l 2,34,35
 87 -141 87 -141 28 -141 c 1,36,-1
 123 309 l 2,14,15
EndSplineSet
EndChar
StartChar: q
Encoding: 113 113 82
Width: 400
Flags: W
Fore
330 231 m 2,0,1
 337 263 337 263 317 286.5 c 128,-1,2
 297 310 297 310 259 310 c 0,3,4
 222 310 222 310 193 286.5 c 128,-1,5
 164 263 164 263 157 231 c 2,6,-1
 130 108 l 2,7,8
 124 77 124 77 143.5 54 c 128,-1,9
 163 31 163 31 200 31 c 0,10,11
 238 31 238 31 267.5 54 c 128,-1,12
 297 77 297 77 303 108 c 2,13,-1
 330 231 l 2,0,1
284 15 m 1,14,15
 264 5 264 5 240.5 -0.5 c 128,-1,16
 217 -6 217 -6 192 -6 c 0,17,18
 162 -6 162 -6 137 3 c 128,-1,19
 112 12 112 12 95.5 27.5 c 128,-1,20
 79 43 79 43 72 63.5 c 128,-1,21
 65 84 65 84 70 108 c 2,22,-1
 97 231 l 2,23,24
 102 255 102 255 117.5 276 c 128,-1,25
 133 297 133 297 156.5 312.5 c 128,-1,26
 180 328 180 328 208.5 337 c 128,-1,27
 237 346 237 346 267 346 c 0,28,29
 292 346 292 346 313 340 c 128,-1,30
 334 334 334 334 350 323 c 1,31,32
 356 334 356 334 370.5 340 c 128,-1,33
 385 346 385 346 413 346 c 1,34,-1
 318 -103 l 2,35,36
 309 -141 309 -141 251 -141 c 1,37,-1
 284 15 l 1,14,15
EndSplineSet
EndChar
StartChar: r
Encoding: 114 114 83
Width: 271
Flags: W
Fore
324 340 m 1,0,1
 319 323 319 323 303.5 316 c 128,-1,2
 288 309 288 309 268 310 c 0,3,4
 232 308 232 308 202.5 285 c 128,-1,5
 173 262 173 262 167 231 c 2,6,-1
 124 32 l 2,7,8
 116 -6 116 -6 56 -6 c 1,9,-1
 123 309 l 2,10,11
 131 346 131 346 191 346 c 1,12,-1
 186 323 l 1,13,14
 227 346 227 346 277 346 c 0,15,16
 288 346 288 346 297.5 345 c 128,-1,17
 307 344 307 344 315 342 c 2,18,-1
 324 340 l 1,0,1
EndSplineSet
EndChar
StartChar: s
Encoding: 115 115 84
Width: 349
Flags: W
Fore
356 250 m 0,0,1
 354 230 354 230 334.5 219.5 c 128,-1,2
 315 209 315 209 289 213 c 1,3,4
 297 231 297 231 297 248.5 c 128,-1,5
 297 266 297 266 289.5 279.5 c 128,-1,6
 282 293 282 293 269 301.5 c 128,-1,7
 256 310 256 310 238 310 c 0,8,9
 205 310 205 310 180.5 289 c 128,-1,10
 156 268 156 268 153 244 c 0,11,12
 151 220 151 220 166.5 210.5 c 128,-1,13
 182 201 182 201 219 193 c 0,14,15
 248 187 248 187 272 181.5 c 128,-1,16
 296 176 296 176 312.5 167 c 128,-1,17
 329 158 329 158 336.5 144 c 128,-1,18
 344 130 344 130 341 108 c 256,19,20
 338 86 338 86 322.5 65.5 c 128,-1,21
 307 45 307 45 283.5 29 c 128,-1,22
 260 13 260 13 230.5 3.5 c 128,-1,23
 201 -6 201 -6 171 -6 c 0,24,25
 144 -6 144 -6 121.5 1 c 128,-1,26
 99 8 99 8 82.5 21 c 128,-1,27
 66 34 66 34 56.5 51.5 c 128,-1,28
 47 69 47 69 48 89 c 0,29,30
 50 107 50 107 66 118 c 128,-1,31
 82 129 82 129 114 126 c 1,32,33
 105 106 105 106 107.5 88.5 c 128,-1,34
 110 71 110 71 120 58 c 128,-1,35
 130 45 130 45 146 38 c 128,-1,36
 162 31 162 31 179 31 c 0,37,38
 197 31 197 31 215 37.5 c 128,-1,39
 233 44 233 44 247 54.5 c 128,-1,40
 261 65 261 65 270.5 78.5 c 128,-1,41
 280 92 280 92 282 106 c 0,42,43
 283 117 283 117 277.5 125 c 128,-1,44
 272 133 272 133 260.5 139 c 128,-1,45
 249 145 249 145 234 149 c 128,-1,46
 219 153 219 153 201 157 c 0,47,48
 172 163 172 163 150.5 169 c 128,-1,49
 129 175 129 175 115.5 184 c 128,-1,50
 102 193 102 193 96 206.5 c 128,-1,51
 90 220 90 220 93 240 c 0,52,53
 95 260 95 260 108 279 c 128,-1,54
 121 298 121 298 141 313 c 128,-1,55
 161 328 161 328 188 337 c 128,-1,56
 215 346 215 346 246 346 c 0,57,58
 304 346 304 346 331 319 c 128,-1,59
 358 292 358 292 356 250 c 0,0,1
EndSplineSet
EndChar
StartChar: t
Encoding: 116 116 85
Width: 220
Flags: W
Fore
175 -4 m 0,0,1
 124 -4 124 -4 100 23 c 128,-1,2
 76 50 76 50 84 88 c 2,3,-1
 130 304 l 1,4,-1
 72 304 l 1,5,6
 80 340 80 340 125 340 c 2,7,-1
 138 340 l 1,8,-1
 160 445 l 2,9,10
 168 483 168 483 228 483 c 1,11,-1
 198 340 l 1,12,-1
 260 340 l 1,13,14
 252 304 252 304 207 304 c 2,15,-1
 190 304 l 1,16,-1
 144 88 l 2,17,18
 139 65 139 65 148.5 49 c 128,-1,19
 158 33 158 33 183 33 c 0,20,21
 193 33 193 33 220 45 c 1,22,23
 225 28 225 28 212.5 12 c 128,-1,24
 200 -4 200 -4 175 -4 c 0,0,1
EndSplineSet
EndChar
StartChar: u
Encoding: 117 117 86
Width: 410
Flags: W
Fore
356 32 m 2,0,1
 348 -6 348 -6 289 -6 c 1,2,-1
 294 15 l 1,3,4
 274 5 274 5 250.5 -0.5 c 128,-1,5
 227 -6 227 -6 202 -6 c 0,6,7
 172 -6 172 -6 147 3 c 128,-1,8
 122 12 122 12 105.5 28 c 128,-1,9
 89 44 89 44 82.5 64.5 c 128,-1,10
 76 85 76 85 81 109 c 2,11,-1
 123 309 l 2,12,13
 131 346 131 346 191 346 c 1,14,-1
 141 109 l 2,15,16
 134 77 134 77 153.5 54 c 128,-1,17
 173 31 173 31 210 31 c 0,18,19
 248 31 248 31 277.5 54 c 128,-1,20
 307 77 307 77 314 109 c 2,21,-1
 356 309 l 2,22,23
 364 346 364 346 423 346 c 1,24,-1
 356 32 l 2,0,1
EndSplineSet
EndChar
StartChar: v
Encoding: 118 118 87
Width: 356
Flags: W
Fore
175 -6 m 256,0,1
 166 -6 166 -6 160 -2 c 128,-1,2
 154 2 154 2 152 6 c 1,3,4
 136 89 136 89 118.5 173 c 128,-1,5
 101 257 101 257 87 340 c 1,6,7
 113 350 113 350 129 344.5 c 128,-1,8
 145 339 145 339 147 324 c 2,9,-1
 193 78 l 1,10,-1
 344 324 l 2,11,12
 353 339 353 339 371.5 344.5 c 128,-1,13
 390 350 390 350 412 340 c 1,14,-1
 205 6 l 2,15,16
 202 1 202 1 193 -2.5 c 128,-1,17
 184 -6 184 -6 175 -6 c 256,0,1
EndSplineSet
EndChar
StartChar: w
Encoding: 119 119 88
Width: 504
Flags: W
Fore
296 213 m 1,0,-1
 178 -6 l 1,1,2
 152 -6 152 -6 141 1 c 128,-1,3
 130 8 130 8 128 22 c 2,4,-1
 87 341 l 1,5,6
 116 350 116 350 130 344 c 128,-1,7
 144 338 144 338 146 321 c 0,8,9
 152 266 152 266 160.5 207 c 128,-1,10
 169 148 169 148 177 91 c 1,11,-1
 286 297 l 2,12,13
 290 304 290 304 298.5 307.5 c 128,-1,14
 307 311 307 311 317 311 c 256,15,16
 327 311 327 311 334 307.5 c 128,-1,17
 341 304 341 304 342 297 c 2,18,-1
 363 90 l 1,19,-1
 492 321 l 2,20,21
 514 357 514 357 559 341 c 1,22,-1
 382 22 l 2,23,24
 374 8 374 8 360 1 c 128,-1,25
 346 -6 346 -6 320 -6 c 1,26,-1
 296 213 l 1,0,-1
EndSplineSet
EndChar
StartChar: x
Encoding: 120 120 89
Width: 358
Flags: W
Fore
342 6 m 1,0,1
 296 -25 296 -25 278 10 c 2,2,-1
 207 140 l 1,3,-1
 83 10 l 2,4,5
 47 -26 47 -26 17 6 c 1,6,-1
 185 181 l 1,7,-1
 103 336 l 1,8,9
 147 365 147 365 167 330 c 2,10,-1
 225 222 l 1,11,-1
 329 330 l 2,12,13
 347 348 347 348 363 349.5 c 128,-1,14
 379 351 379 351 396 336 c 1,15,-1
 247 181 l 1,16,-1
 342 6 l 1,0,1
EndSplineSet
EndChar
StartChar: y
Encoding: 121 121 90
Width: 356
Flags: W
Fore
40 -139 m 0,0,1
 -13 -151 -13 -151 -8 -108 c 1,2,3
 3 -108 3 -108 10.5 -107.5 c 128,-1,4
 18 -107 18 -107 25 -105 c 0,5,6
 83 -90 83 -90 129 -23 c 2,7,-1
 151 12 l 1,8,-1
 87 340 l 1,9,10
 113 350 113 350 129 344.5 c 128,-1,11
 145 339 145 339 147 324 c 2,12,-1
 193 78 l 1,13,-1
 344 324 l 2,14,15
 353 339 353 339 371.5 344.5 c 128,-1,16
 390 350 390 350 412 340 c 1,17,-1
 179 -35 l 2,18,19
 152 -78 152 -78 120 -103 c 128,-1,20
 88 -128 88 -128 40 -139 c 0,0,1
EndSplineSet
EndChar
StartChar: z
Encoding: 122 122 91
Width: 322
Flags: W
Fore
43 0 m 1,0,1
 29 0 29 0 23.5 11.5 c 128,-1,2
 18 23 18 23 28 33 c 2,3,-1
 300 304 l 1,4,-1
 122 304 l 2,5,6
 78 304 78 304 86 340 c 1,7,-1
 349 340 l 2,8,9
 363 340 363 340 369 328.5 c 128,-1,10
 375 317 375 317 365 308 c 2,11,-1
 91 37 l 1,12,-1
 270 37 l 2,13,14
 291 37 291 37 301 27.5 c 128,-1,15
 311 18 311 18 307 0 c 1,16,-1
 43 0 l 1,17,-1
 43 0 l 1,0,1
EndSplineSet
EndChar
StartChar: braceleft
Encoding: 123 123 92
Width: 211
Flags: W
Fore
65 204 m 256,0,1
 67 211 67 211 74 215 c 128,-1,2
 81 219 81 219 92 219 c 0,3,4
 112 219 112 219 122.5 234.5 c 128,-1,5
 133 250 133 250 139 279 c 2,6,-1
 166 405 l 2,7,8
 174 447 174 447 199 470 c 128,-1,9
 224 493 224 493 262 493 c 2,10,-1
 321 493 l 1,11,12
 314 457 314 457 270 457 c 2,13,-1
 264 457 l 2,14,15
 254 457 254 457 245 448.5 c 128,-1,16
 236 440 236 440 230 414 c 2,17,-1
 203 286 l 2,18,19
 195 251 195 251 179 232 c 128,-1,20
 163 213 163 213 135 204 c 1,21,22
 162 196 162 196 169.5 178.5 c 128,-1,23
 177 161 177 161 169 123 c 2,24,-1
 141 -5 l 2,25,26
 136 -31 136 -31 141 -40 c 128,-1,27
 146 -49 146 -49 156 -49 c 2,28,-1
 162 -49 l 2,29,30
 206 -49 206 -49 199 -84 c 1,31,-1
 140 -84 l 2,32,33
 102 -84 102 -84 86.5 -61.5 c 128,-1,34
 71 -39 71 -39 80 4 c 2,35,-1
 107 130 l 2,36,37
 113 159 113 159 109.5 174 c 128,-1,38
 106 189 106 189 86 189 c 0,39,40
 75 189 75 189 69 193 c 128,-1,41
 63 197 63 197 65 204 c 256,0,1
EndSplineSet
EndChar
StartChar: bar
Encoding: 124 124 93
Width: 174
Flags: W
Fore
162 491 m 2,0,1
 170 527 170 527 227 527 c 1,2,-1
 100 -67 l 2,3,4
 92 -103 92 -103 36 -103 c 1,5,-1
 162 491 l 2,0,1
EndSplineSet
EndChar
StartChar: asciitilde
Encoding: 126 126 95
Width: 453
Flags: W
Fore
85 168 m 1,0,1
 74 191 74 191 79 205 c 128,-1,2
 84 219 84 219 104 229 c 0,3,4
 134 242 134 242 179 242 c 0,5,6
 226 242 226 242 276 217 c 0,7,8
 325 193 325 193 352 193 c 0,9,10
 394 193 394 193 447 243 c 1,11,12
 463 229 463 229 462.5 212.5 c 128,-1,13
 462 196 462 196 445 185 c 1,14,-1
 446 185 l 1,15,16
 423 169 423 169 397.5 162 c 128,-1,17
 372 155 372 155 343 155 c 0,18,19
 300 155 300 155 242 182 c 0,20,21
 202 202 202 202 170 202 c 0,22,23
 149 202 149 202 129 193.5 c 128,-1,24
 109 185 109 185 85 168 c 1,0,1
EndSplineSet
EndChar
StartChar: quotedbl
Encoding: 34 34 97
Width: 272
Flags: W
Fore
139 432 m 2,0,1
 143 457 143 457 165 469 c 128,-1,2
 187 481 187 481 222 481 c 1,3,-1
 193 374 l 2,4,5
 188 360 188 360 169 347 c 128,-1,6
 150 334 150 334 124 334 c 1,7,-1
 139 432 l 2,0,1
245 432 m 2,8,9
 249 457 249 457 271 469 c 128,-1,10
 293 481 293 481 328 481 c 1,11,-1
 299 374 l 2,12,13
 294 360 294 360 275 347 c 128,-1,14
 256 334 256 334 230 334 c 1,15,-1
 245 432 l 2,8,9
EndSplineSet
EndChar
StartChar: exclam
Encoding: 33 33 98
Width: 167
Flags: W
Fore
134 425 m 2,0,1
 139 451 139 451 163.5 466 c 128,-1,2
 188 481 188 481 227 481 c 1,3,-1
 141 135 l 2,4,5
 136 116 136 116 120.5 105.5 c 128,-1,6
 105 95 105 95 74 95 c 1,7,-1
 134 425 l 2,0,1
41 33 m 0,8,9
 44 50 44 50 60.5 61 c 128,-1,10
 77 72 77 72 98 72 c 0,11,12
 118 72 118 72 130 61 c 128,-1,13
 142 50 142 50 139 33 c 0,14,15
 135 16 135 16 118 5 c 128,-1,16
 101 -6 101 -6 81 -6 c 0,17,18
 60 -6 60 -6 48.5 5 c 128,-1,19
 37 16 37 16 41 33 c 0,8,9
EndSplineSet
EndChar
StartChar: exclamdown
Encoding: 161 161 100
Width: 167
Flags: W
Fore
105 -84 m 2,0,1
 100 -111 100 -111 76 -126 c 128,-1,2
 52 -141 52 -141 12 -141 c 1,3,-1
 97 205 l 2,4,5
 107 245 107 245 165 245 c 1,6,-1
 105 -84 l 2,0,1
198 308 m 0,7,8
 194 291 194 291 177.5 279.5 c 128,-1,9
 161 268 161 268 141 268 c 0,10,11
 120 268 120 268 108 279.5 c 128,-1,12
 96 291 96 291 100 308 c 0,13,14
 103 324 103 324 120 335 c 128,-1,15
 137 346 137 346 158 346 c 0,16,17
 178 346 178 346 189.5 335 c 128,-1,18
 201 324 201 324 198 308 c 0,7,8
EndSplineSet
EndChar
StartChar: cent
Encoding: 162 162 101
Width: 364
Flags: W
Fore
241 360 m 2,0,1
 248 396 248 396 307 396 c 1,2,-1
 296 346 l 1,3,4
 333 341 333 341 357 322 c 128,-1,5
 381 303 381 303 388 277 c 0,6,7
 391 267 391 267 385.5 258.5 c 128,-1,8
 380 250 380 250 370.5 244 c 128,-1,9
 361 238 361 238 350 234.5 c 128,-1,10
 339 231 339 231 331 231 c 1,11,12
 336 257 336 257 324 278 c 128,-1,13
 312 299 312 299 288 307 c 1,14,-1
 230 37 l 1,15,16
 259 45 259 45 279.5 66 c 128,-1,17
 300 87 300 87 306 113 c 1,18,19
 314 113 314 113 323.5 109.5 c 128,-1,20
 333 106 333 106 339.5 100 c 128,-1,21
 346 94 346 94 348 85.5 c 128,-1,22
 350 77 350 77 344 67 c 0,23,24
 325 40 325 40 293 21.5 c 128,-1,25
 261 3 261 3 222 -2 c 1,26,-1
 218 -20 l 2,27,28
 214 -39 214 -39 199 -47.5 c 128,-1,29
 184 -56 184 -56 153 -56 c 1,30,-1
 164 -1 l 1,31,32
 115 7 115 7 89 37.5 c 128,-1,33
 63 68 63 68 72 110 c 2,34,-1
 98 233 l 2,35,36
 102 254 102 254 115 272.5 c 128,-1,37
 128 291 128 291 146.5 306 c 128,-1,38
 165 321 165 321 188.5 331 c 128,-1,39
 212 341 212 341 238 345 c 1,40,-1
 241 360 l 2,0,1
158 233 m 2,41,-1
 132 110 l 2,42,43
 127 86 127 86 138 65.5 c 128,-1,44
 149 45 149 45 172 37 c 1,45,-1
 230 307 l 1,46,47
 202 298 202 298 182.5 278 c 128,-1,48
 163 258 163 258 158 233 c 2,41,-1
EndSplineSet
EndChar
StartChar: sterling
Encoding: 163 163 102
Width: 402
Flags: W
Fore
86 218 m 1,0,1
 95 258 95 258 141 258 c 2,2,-1
 177 258 l 1,3,4
 179 280 179 280 181.5 300.5 c 128,-1,5
 184 321 184 321 189 344 c 0,6,7
 195 374 195 374 211 399.5 c 128,-1,8
 227 425 227 425 250 443 c 128,-1,9
 273 461 273 461 301 471 c 128,-1,10
 329 481 329 481 361 481 c 0,11,12
 390 481 390 481 410 475 c 128,-1,13
 430 469 430 469 439 459 c 0,14,15
 448 450 448 450 442 436 c 128,-1,16
 436 422 436 422 422 412 c 1,17,18
 395 442 395 442 349 442 c 0,19,20
 310 442 310 442 285.5 416.5 c 128,-1,21
 261 391 261 391 250 343 c 0,22,23
 247 328 247 328 243.5 305 c 128,-1,24
 240 282 240 282 237 258 c 1,25,-1
 353 258 l 1,26,27
 346 218 346 218 298 218 c 2,28,-1
 233 218 l 1,29,30
 231 196 231 196 229 179 c 128,-1,31
 227 162 227 162 225 154 c 0,32,33
 217 112 217 112 198.5 86.5 c 128,-1,34
 180 61 180 61 146 40 c 1,35,-1
 331 40 l 2,36,37
 378 40 378 40 371 0 c 1,38,-1
 49 0 l 1,39,40
 54 26 54 26 79 41 c 0,41,42
 90 47 90 47 103 57 c 128,-1,43
 116 67 116 67 128 80.5 c 128,-1,44
 140 94 140 94 149.5 110.5 c 128,-1,45
 159 127 159 127 164 147 c 0,46,47
 168 165 168 165 170 183 c 128,-1,48
 172 201 172 201 174 218 c 1,49,-1
 86 218 l 1,0,1
EndSplineSet
EndChar
StartChar: currency
Encoding: 164 164 103
Width: 513
Flags: W
Fore
126 125 m 1,0,1
 97 176 97 176 109 238 c 0,2,3
 115 267 115 267 132 297 c 128,-1,4
 149 327 149 327 176 353 c 1,5,-1
 145 394 l 1,6,-1
 192 434 l 1,7,-1
 225 393 l 1,8,9
 253 411 253 411 283.5 418.5 c 128,-1,10
 314 426 314 426 345 426 c 0,11,12
 379 426 379 426 405 417 c 128,-1,13
 431 408 431 408 453 391 c 1,14,-1
 507 435 l 1,15,-1
 534 394 l 1,16,-1
 486 353 l 1,17,18
 502 328 502 328 505.5 298.5 c 128,-1,19
 509 269 509 269 502 238 c 0,20,21
 496 209 496 209 480 180 c 128,-1,22
 464 151 464 151 438 125 c 1,23,-1
 468 83 l 1,24,-1
 422 45 l 1,25,-1
 389 87 l 1,26,27
 361 68 361 68 329.5 60 c 128,-1,28
 298 52 298 52 266 52 c 256,29,30
 234 52 234 52 207 59 c 128,-1,31
 180 66 180 66 160 86 c 1,32,-1
 110 44 l 1,33,-1
 79 83 l 1,34,-1
 126 125 l 1,0,1
172 238 m 256,35,36
 166 208 166 208 170.5 181 c 128,-1,37
 175 154 175 154 189 133.5 c 128,-1,38
 203 113 203 113 225 101.5 c 128,-1,39
 247 90 247 90 274 90 c 256,40,41
 301 90 301 90 328 101.5 c 128,-1,42
 355 113 355 113 377 133.5 c 128,-1,43
 399 154 399 154 415.5 181 c 128,-1,44
 432 208 432 208 438 238 c 256,45,46
 444 268 444 268 439.5 295 c 128,-1,47
 435 322 435 322 421.5 342.5 c 128,-1,48
 408 363 408 363 386 374.5 c 128,-1,49
 364 386 364 386 337 386 c 256,50,51
 310 386 310 386 283 374.5 c 128,-1,52
 256 363 256 363 233.5 342.5 c 128,-1,53
 211 322 211 322 194.5 295 c 128,-1,54
 178 268 178 268 172 238 c 256,35,36
EndSplineSet
EndChar
StartChar: yen
Encoding: 165 165 104
Width: 420
Flags: W
Fore
109 263 m 1,0,1
 118 303 118 303 166 303 c 2,2,-1
 202 303 l 1,3,-1
 113 476 l 1,4,5
 136 490 136 490 155 486.5 c 128,-1,6
 174 483 174 483 182 467 c 2,7,-1
 271 291 l 1,8,-1
 437 467 l 2,9,10
 452 483 452 483 472.5 486.5 c 128,-1,11
 493 490 493 490 510 476 c 1,12,-1
 346 303 l 1,13,-1
 428 303 l 1,14,15
 419 263 419 263 371 263 c 2,16,-1
 308 263 l 1,17,-1
 294 247 l 1,18,-1
 287 213 l 1,19,-1
 409 213 l 1,20,21
 400 174 400 174 352 174 c 2,22,-1
 278 174 l 1,23,-1
 250 38 l 2,24,25
 241 -4 241 -4 178 -4 c 1,26,-1
 215 174 l 1,27,-1
 90 174 l 1,28,29
 99 213 99 213 147 213 c 2,30,-1
 224 213 l 1,31,-1
 231 247 l 1,32,-1
 222 263 l 1,33,-1
 109 263 l 1,0,1
EndSplineSet
EndChar
StartChar: brokenbar
Encoding: 166 166 105
Width: 174
Flags: W
Fore
162 491 m 2,0,1
 170 527 170 527 227 527 c 1,2,-1
 174 281 l 2,3,4
 166 245 166 245 110 245 c 1,5,-1
 162 491 l 2,0,1
88 143 m 2,6,7
 96 179 96 179 153 179 c 1,8,-1
 100 -67 l 2,9,10
 92 -103 92 -103 36 -103 c 1,11,-1
 88 143 l 2,6,7
EndSplineSet
EndChar
StartChar: section
Encoding: 167 167 106
Width: 413
Flags: W
Fore
401 229 m 0,0,1
 396 206 396 206 380.5 187 c 128,-1,2
 365 168 365 168 342 149 c 1,3,4
 348 139 348 139 353 124.5 c 128,-1,5
 358 110 358 110 354 93 c 0,6,7
 344 46 344 46 298.5 20 c 128,-1,8
 253 -6 253 -6 192 -6 c 0,9,10
 166 -6 166 -6 142.5 0 c 128,-1,11
 119 6 119 6 106 15 c 0,12,13
 97 23 97 23 99 38 c 128,-1,14
 101 53 101 53 116 71 c 1,15,16
 131 54 131 54 152.5 43 c 128,-1,17
 174 32 174 32 202 32 c 0,18,19
 237 32 237 32 262.5 46.5 c 128,-1,20
 288 61 288 61 293 89 c 0,21,22
 299 115 299 115 283 132 c 128,-1,23
 267 149 267 149 221 164 c 0,24,25
 163 182 163 182 134.5 205 c 128,-1,26
 106 228 106 228 114 266 c 0,27,28
 118 282 118 282 131.5 300.5 c 128,-1,29
 145 319 145 319 176 339 c 1,30,31
 158 360 158 360 165 388 c 0,32,33
 169 409 169 409 183 426 c 128,-1,34
 197 443 197 443 217.5 455.5 c 128,-1,35
 238 468 238 468 264 474.5 c 128,-1,36
 290 481 290 481 319 481 c 0,37,38
 345 481 345 481 367.5 476 c 128,-1,39
 390 471 390 471 401 461 c 0,40,41
 409 455 409 455 405 440.5 c 128,-1,42
 401 426 401 426 390 415 c 1,43,44
 375 426 375 426 352 436 c 128,-1,45
 329 446 329 446 306 446 c 0,46,47
 278 446 278 446 255.5 432 c 128,-1,48
 233 418 233 418 228 394 c 0,49,50
 222 366 222 366 244 352.5 c 128,-1,51
 266 339 266 339 305 328 c 0,52,53
 328 320 328 320 347.5 311 c 128,-1,54
 367 302 367 302 380.5 290.5 c 128,-1,55
 394 279 394 279 399.5 264 c 128,-1,56
 405 249 405 249 401 229 c 0,0,1
337 224 m 0,57,58
 342 245 342 245 330 261 c 128,-1,59
 318 277 318 277 283 290 c 0,60,61
 266 296 266 296 246 303 c 128,-1,62
 226 310 226 310 212 317 c 1,63,64
 198 306 198 306 188.5 292.5 c 128,-1,65
 179 279 179 279 176 268 c 0,66,67
 172 250 172 250 184 232.5 c 128,-1,68
 196 215 196 215 241 201 c 0,69,70
 270 190 270 190 284.5 186 c 128,-1,71
 299 182 299 182 310 175 c 1,72,73
 319 185 319 185 326.5 197.5 c 128,-1,74
 334 210 334 210 337 224 c 0,57,58
EndSplineSet
EndChar
StartChar: dieresis
Encoding: 168 168 107
Width: 235
Flags: W
Fore
98 435 m 0,0,1
 101 449 101 449 116 459.5 c 128,-1,2
 131 470 131 470 151 470 c 256,3,4
 171 470 171 470 182 459.5 c 128,-1,5
 193 449 193 449 190 435 c 0,6,7
 187 420 187 420 171.5 409.5 c 128,-1,8
 156 399 156 399 136 399 c 256,9,10
 116 399 116 399 105.5 409.5 c 128,-1,11
 95 420 95 420 98 435 c 0,0,1
228 435 m 0,12,13
 231 449 231 449 246 459.5 c 128,-1,14
 261 470 261 470 281 470 c 256,15,16
 301 470 301 470 312 459.5 c 128,-1,17
 323 449 323 449 320 435 c 0,18,19
 317 420 317 420 301.5 409.5 c 128,-1,20
 286 399 286 399 266 399 c 256,21,22
 246 399 246 399 235.5 409.5 c 128,-1,23
 225 420 225 420 228 435 c 0,12,13
EndSplineSet
EndChar
StartChar: copyright
Encoding: 169 169 108
Width: 567
Flags: W
Fore
79 237 m 256,0,1
 90 288 90 288 119 332.5 c 128,-1,2
 148 377 148 377 189.5 410 c 128,-1,3
 231 443 231 443 281 462 c 128,-1,4
 331 481 331 481 384 481 c 256,5,6
 437 481 437 481 479 462 c 128,-1,7
 521 443 521 443 548.5 410 c 128,-1,8
 576 377 576 377 586.5 332.5 c 128,-1,9
 597 288 597 288 586 237 c 256,10,11
 575 186 575 186 545.5 142 c 128,-1,12
 516 98 516 98 475 65 c 128,-1,13
 434 32 434 32 383.5 13 c 128,-1,14
 333 -6 333 -6 280 -6 c 256,15,16
 227 -6 227 -6 185 13 c 128,-1,17
 143 32 143 32 116 65 c 128,-1,18
 89 98 89 98 78.5 142 c 128,-1,19
 68 186 68 186 79 237 c 256,0,1
138 236 m 256,20,21
 129 193 129 193 136 155.5 c 128,-1,22
 143 118 143 118 163.5 90 c 128,-1,23
 184 62 184 62 216 46 c 128,-1,24
 248 30 248 30 288 30 c 256,25,26
 328 30 328 30 366.5 46 c 128,-1,27
 405 62 405 62 437.5 90 c 128,-1,28
 470 118 470 118 493.5 155.5 c 128,-1,29
 517 193 517 193 526 236 c 256,30,31
 535 279 535 279 527.5 317.5 c 128,-1,32
 520 356 520 356 500 384 c 128,-1,33
 480 412 480 412 448 428.5 c 128,-1,34
 416 445 416 445 376 445 c 256,35,36
 336 445 336 445 297.5 428.5 c 128,-1,37
 259 412 259 412 226.5 384 c 128,-1,38
 194 356 194 356 170.5 317.5 c 128,-1,39
 147 279 147 279 138 236 c 256,20,21
359 349 m 0,40,41
 345 349 345 349 332.5 344 c 128,-1,42
 320 339 320 339 309.5 330.5 c 128,-1,43
 299 322 299 322 291.5 311.5 c 128,-1,44
 284 301 284 301 281 289 c 2,45,-1
 259 187 l 2,46,47
 254 163 254 163 269 145 c 128,-1,48
 284 127 284 127 311 127 c 256,49,50
 338 127 338 127 362 146.5 c 128,-1,51
 386 166 386 166 391 192 c 1,52,53
 418 196 418 196 433 187 c 128,-1,54
 448 178 448 178 437 158 c 0,55,56
 428 142 428 142 413 130 c 128,-1,57
 398 118 398 118 380 109.5 c 128,-1,58
 362 101 362 101 342 97 c 128,-1,59
 322 93 322 93 304 93 c 0,60,61
 283 93 283 93 262.5 99.5 c 128,-1,62
 242 106 242 106 227 118 c 128,-1,63
 212 130 212 130 204 147.5 c 128,-1,64
 196 165 196 165 201 187 c 2,65,-1
 223 289 l 2,66,67
 227 310 227 310 242 327 c 128,-1,68
 257 344 257 344 277 356.5 c 128,-1,69
 297 369 297 369 320.5 375.5 c 128,-1,70
 344 382 344 382 366 382 c 0,71,72
 404 382 404 382 435 366 c 128,-1,73
 466 350 466 350 471 318 c 0,74,75
 473 298 473 298 455 289 c 128,-1,76
 437 280 437 280 411 284 c 1,77,78
 416 309 416 309 401 329 c 128,-1,79
 386 349 386 349 359 349 c 0,40,41
EndSplineSet
EndChar
StartChar: ordfeminine
Encoding: 170 170 109
Width: 292
Flags: W
Fore
176 238 m 256,0,1
 202 238 202 238 222 255 c 128,-1,2
 242 272 242 272 247 294 c 0,3,4
 252 317 252 317 239 334 c 128,-1,5
 226 351 226 351 200 351 c 256,6,7
 174 351 174 351 153.5 334 c 128,-1,8
 133 317 133 317 128 294 c 0,9,10
 123 272 123 272 136.5 255 c 128,-1,11
 150 238 150 238 176 238 c 256,0,1
207 385 m 0,12,13
 238 385 238 385 264 372 c 1,14,-1
 267 389 l 2,15,16
 272 411 272 411 258.5 427.5 c 128,-1,17
 245 444 245 444 220 444 c 0,18,19
 201 444 201 444 177.5 427 c 128,-1,20
 154 410 154 410 137 386 c 1,21,22
 121 398 121 398 118 413.5 c 128,-1,23
 115 429 115 429 124 439 c 0,24,25
 143 458 143 458 170.5 468 c 128,-1,26
 198 478 198 478 227 478 c 0,27,28
 248 478 248 478 267.5 471.5 c 128,-1,29
 287 465 287 465 301 453.5 c 128,-1,30
 315 442 315 442 322 425.5 c 128,-1,31
 329 409 329 409 325 389 c 2,32,-1
 293 236 l 2,33,34
 285 204 285 204 228 204 c 1,35,-1
 230 216 l 1,36,37
 203 204 203 204 169 204 c 0,38,39
 119 204 119 204 90.5 230 c 128,-1,40
 62 256 62 256 70 294 c 0,41,42
 74 312 74 312 86.5 328.5 c 128,-1,43
 99 345 99 345 117.5 357.5 c 128,-1,44
 136 370 136 370 159 377.5 c 128,-1,45
 182 385 182 385 207 385 c 0,12,13
EndSplineSet
EndChar
StartChar: logicalnot
Encoding: 172 172 111
Width: 420
Flags: W
Fore
448 277 m 1,0,-1
 423 156 l 2,1,2
 415 120 415 120 357 120 c 1,3,-1
 382 239 l 1,4,-1
 79 239 l 1,5,6
 88 277 88 277 132 277 c 2,7,-1
 448 277 l 1,0,-1
EndSplineSet
EndChar
StartChar: registered
Encoding: 174 174 112
Width: 566
Flags: W
Fore
378 254 m 2,0,1
 389 254 389 254 400.5 269 c 128,-1,2
 412 284 412 284 415 299 c 256,3,4
 418 314 418 314 413 328.5 c 128,-1,5
 408 343 408 343 397 343 c 2,6,-1
 294 343 l 1,7,-1
 275 254 l 1,8,-1
 378 254 l 2,0,1
248 123 m 2,9,10
 245 109 245 109 228 101.5 c 128,-1,11
 211 94 211 94 184 94 c 1,12,-1
 241 359 l 2,13,14
 243 366 243 366 251 371 c 128,-1,15
 259 376 259 376 273 376 c 2,16,-1
 404 376 l 2,17,18
 440 376 440 376 459.5 353 c 128,-1,19
 479 330 479 330 472 299 c 0,20,21
 469 283 469 283 456 266 c 128,-1,22
 443 249 443 249 425 237 c 1,23,24
 439 226 439 226 445.5 209.5 c 128,-1,25
 452 193 452 193 448 176 c 2,26,-1
 437 123 l 2,27,28
 434 109 434 109 416.5 101.5 c 128,-1,29
 399 94 399 94 372 94 c 1,30,-1
 390 176 l 2,31,32
 395 197 395 197 388.5 208.5 c 128,-1,33
 382 220 382 220 371 220 c 2,34,-1
 268 220 l 1,35,-1
 248 123 l 2,9,10
79 237 m 256,36,37
 90 288 90 288 119 332.5 c 128,-1,38
 148 377 148 377 189.5 410 c 128,-1,39
 231 443 231 443 281 462 c 128,-1,40
 331 481 331 481 384 481 c 256,41,42
 437 481 437 481 479 462 c 128,-1,43
 521 443 521 443 548.5 410 c 128,-1,44
 576 377 576 377 586.5 332.5 c 128,-1,45
 597 288 597 288 586 237 c 256,46,47
 575 186 575 186 545.5 142 c 128,-1,48
 516 98 516 98 475 65 c 128,-1,49
 434 32 434 32 383.5 13 c 128,-1,50
 333 -6 333 -6 280 -6 c 256,51,52
 227 -6 227 -6 185 13 c 128,-1,53
 143 32 143 32 116 65 c 128,-1,54
 89 98 89 98 78.5 142 c 128,-1,55
 68 186 68 186 79 237 c 256,36,37
138 236 m 256,56,57
 129 193 129 193 136 155.5 c 128,-1,58
 143 118 143 118 163.5 90 c 128,-1,59
 184 62 184 62 216 46 c 128,-1,60
 248 30 248 30 288 30 c 256,61,62
 328 30 328 30 366.5 46 c 128,-1,63
 405 62 405 62 437.5 90 c 128,-1,64
 470 118 470 118 493.5 155.5 c 128,-1,65
 517 193 517 193 526 236 c 256,66,67
 535 279 535 279 527.5 317.5 c 128,-1,68
 520 356 520 356 500 384 c 128,-1,69
 480 412 480 412 448 428.5 c 128,-1,70
 416 445 416 445 376 445 c 256,71,72
 336 445 336 445 297.5 428.5 c 128,-1,73
 259 412 259 412 226.5 384 c 128,-1,74
 194 356 194 356 170.5 317.5 c 128,-1,75
 147 279 147 279 138 236 c 256,56,57
EndSplineSet
EndChar
StartChar: macron
Encoding: 175 175 113
Width: 236
Flags: W
Fore
115 419 m 1,0,-1
 122 454 l 1,1,-1
 304 454 l 1,2,-1
 297 419 l 1,3,-1
 115 419 l 1,0,-1
EndSplineSet
EndChar
StartChar: degree
Encoding: 176 176 114
Width: 236
Flags: W
Fore
95 389 m 256,0,1
 99 408 99 408 111 425 c 128,-1,2
 123 442 123 442 139.5 454.5 c 128,-1,3
 156 467 156 467 176.5 474 c 128,-1,4
 197 481 197 481 219 481 c 0,5,6
 262 481 262 481 286 454 c 128,-1,7
 310 427 310 427 302 389 c 0,8,9
 298 370 298 370 286.5 353 c 128,-1,10
 275 336 275 336 258.5 323.5 c 128,-1,11
 242 311 242 311 221.5 304 c 128,-1,12
 201 297 201 297 180 297 c 0,13,14
 158 297 158 297 140.5 304 c 128,-1,15
 123 311 123 311 111.5 323.5 c 128,-1,16
 100 336 100 336 95.5 353 c 128,-1,17
 91 370 91 370 95 389 c 256,0,1
144 389 m 256,18,19
 139 364 139 364 151.5 347 c 128,-1,20
 164 330 164 330 187 330 c 256,21,22
 210 330 210 330 229.5 347 c 128,-1,23
 249 364 249 364 254 389 c 256,24,25
 259 414 259 414 247 431 c 128,-1,26
 235 448 235 448 212 448 c 256,27,28
 189 448 189 448 169 431 c 128,-1,29
 149 414 149 414 144 389 c 256,18,19
EndSplineSet
EndChar
StartChar: plusminus
Encoding: 177 177 115
Width: 420
Flags: W
Fore
217 180 m 1,0,-1
 67 180 l 1,1,2
 75 217 75 217 120 217 c 2,3,-1
 225 217 l 1,4,-1
 243 303 l 2,5,6
 251 340 251 340 311 340 c 1,7,-1
 285 217 l 1,8,-1
 436 217 l 1,9,10
 427 180 427 180 382 180 c 2,11,-1
 277 180 l 1,12,-1
 258 94 l 2,13,14
 251 57 251 57 191 57 c 1,15,-1
 217 180 l 1,0,-1
31 1 m 1,16,17
 34 18 34 18 49 29 c 128,-1,18
 64 40 64 40 86 40 c 2,19,-1
 400 40 l 1,20,21
 396 22 396 22 381 11.5 c 128,-1,22
 366 1 366 1 344 1 c 2,23,-1
 31 1 l 1,16,17
EndSplineSet
EndChar
StartChar: twosuperior
Encoding: 178 178 116
Width: 298
Flags: W
Fore
272 240 m 2,0,1
 289 240 289 240 297.5 231.5 c 128,-1,2
 306 223 306 223 302 206 c 1,3,-1
 109 206 l 2,4,5
 98 206 98 206 90.5 210 c 128,-1,6
 83 214 83 214 85 222 c 0,7,8
 92 254 92 254 122.5 284 c 128,-1,9
 153 314 153 314 204 334 c 0,10,11
 233 346 233 346 257 358.5 c 128,-1,12
 281 371 281 371 286 394 c 0,13,14
 291 414 291 414 278 429.5 c 128,-1,15
 265 445 265 445 242 445 c 0,16,17
 220 445 220 445 201 429.5 c 128,-1,18
 182 414 182 414 177 394 c 0,19,20
 176 391 176 391 176 387.5 c 128,-1,21
 176 384 176 384 175 376 c 1,22,23
 154 376 154 376 137.5 385.5 c 128,-1,24
 121 395 121 395 125 405 c 0,25,26
 132 421 132 421 145.5 434.5 c 128,-1,27
 159 448 159 448 176 458 c 128,-1,28
 193 468 193 468 212 473 c 128,-1,29
 231 478 231 478 249 478 c 0,30,31
 268 478 268 478 287 472.5 c 128,-1,32
 306 467 306 467 319.5 456 c 128,-1,33
 333 445 333 445 339.5 429.5 c 128,-1,34
 346 414 346 414 342 394 c 0,35,36
 339 377 339 377 327.5 363.5 c 128,-1,37
 316 350 316 350 299 339.5 c 128,-1,38
 282 329 282 329 261.5 320 c 128,-1,39
 241 311 241 311 220 303 c 0,40,41
 165 281 165 281 148 240 c 1,42,-1
 272 240 l 2,0,1
EndSplineSet
EndChar
StartChar: threesuperior
Encoding: 179 179 117
Width: 298
Flags: W
Fore
142 419 m 0,0,1
 150 440 150 440 179.5 459 c 128,-1,2
 209 478 209 478 249 478 c 0,3,4
 288 478 288 478 312.5 457 c 128,-1,5
 337 436 337 436 331 407 c 0,6,7
 328 393 328 393 315.5 378.5 c 128,-1,8
 303 364 303 364 287 353 c 1,9,10
 304 341 304 341 314 323 c 128,-1,11
 324 305 324 305 319 286 c 0,12,13
 316 269 316 269 304 253.5 c 128,-1,14
 292 238 292 238 275 227 c 128,-1,15
 258 216 258 216 236 209.5 c 128,-1,16
 214 203 214 203 191 203 c 256,17,18
 168 203 168 203 149.5 209.5 c 128,-1,19
 131 216 131 216 119 226.5 c 128,-1,20
 107 237 107 237 101 249.5 c 128,-1,21
 95 262 95 262 97 275 c 0,22,23
 102 304 102 304 159 304 c 1,24,25
 157 299 157 299 156.5 295 c 128,-1,26
 156 291 156 291 154 286 c 1,27,28
 149 265 149 265 162.5 250.5 c 128,-1,29
 176 236 176 236 198 236 c 256,30,31
 220 236 220 236 238.5 250.5 c 128,-1,32
 257 265 257 265 262 286 c 0,33,34
 267 306 267 306 254 320.5 c 128,-1,35
 241 335 241 335 219 335 c 0,36,37
 208 335 208 335 200 339.5 c 128,-1,38
 192 344 192 344 194 351 c 0,39,40
 196 359 196 359 205.5 363.5 c 128,-1,41
 215 368 215 368 226 368 c 0,42,43
 243 368 243 368 257 379.5 c 128,-1,44
 271 391 271 391 274 407 c 256,45,46
 277 423 277 423 268 434 c 128,-1,47
 259 445 259 445 242 445 c 0,48,49
 226 445 226 445 212 434 c 128,-1,50
 198 423 198 423 195 407 c 2,51,52
 194 405 194 405 193.5 401 c 128,-1,53
 193 397 193 397 195 392 c 1,54,55
 169 388 169 388 151.5 395 c 128,-1,56
 134 402 134 402 142 419 c 0,0,1
EndSplineSet
EndChar
StartChar: acute
Encoding: 180 180 118
Width: 232
Flags: W
Fore
196 458 m 2,0,1
 214 477 214 477 256 477 c 2,2,-1
 291 477 l 1,3,-1
 190 387 l 2,4,5
 177 377 177 377 161 373.5 c 128,-1,6
 145 370 145 370 119 370 c 1,7,-1
 196 458 l 2,0,1
EndSplineSet
EndChar
StartChar: mu
Encoding: 181 181 119
Width: 410
Flags: W
Fore
202 -6 m 256,0,1
 177 -6 177 -6 157 -0.5 c 128,-1,2
 137 5 137 5 121 15 c 1,3,-1
 96 -103 l 2,4,5
 87 -141 87 -141 28 -141 c 1,6,-1
 123 309 l 2,7,8
 131 346 131 346 191 346 c 1,9,-1
 141 109 l 2,10,11
 134 77 134 77 153.5 54 c 128,-1,12
 173 31 173 31 210 31 c 0,13,14
 248 31 248 31 277.5 54 c 128,-1,15
 307 77 307 77 314 109 c 2,16,-1
 356 309 l 2,17,18
 364 346 364 346 423 346 c 1,19,-1
 356 32 l 2,20,21
 348 -6 348 -6 289 -6 c 1,22,-1
 294 15 l 1,23,24
 274 5 274 5 250.5 -0.5 c 128,-1,25
 227 -6 227 -6 202 -6 c 256,0,1
EndSplineSet
EndChar
StartChar: paragraph
Encoding: 182 182 120
Width: 411
Flags: W
Fore
339 -54 m 2,0,1
 335 -72 335 -72 317 -81.5 c 128,-1,2
 299 -91 299 -91 270 -91 c 1,3,-1
 384 445 l 1,4,-1
 340 445 l 1,5,-1
 234 -54 l 2,6,7
 230 -72 230 -72 211.5 -81.5 c 128,-1,8
 193 -91 193 -91 164 -91 c 1,9,-1
 222 179 l 1,10,11
 193 180 193 180 166 189.5 c 128,-1,12
 139 199 139 199 120 217 c 128,-1,13
 101 235 101 235 92 261 c 128,-1,14
 83 287 83 287 91 322 c 0,15,16
 97 349 97 349 112 377.5 c 128,-1,17
 127 406 127 406 156 429 c 128,-1,18
 185 452 185 452 229.5 466.5 c 128,-1,19
 274 481 274 481 339 481 c 0,20,21
 373 481 373 481 404.5 479 c 128,-1,22
 436 477 436 477 451 474 c 1,23,-1
 339 -54 l 2,0,1
EndSplineSet
EndChar
StartChar: periodcentered
Encoding: 183 183 121
Width: 250
Flags: W
Fore
90 198 m 0,0,1
 95 226 95 226 122 245.5 c 128,-1,2
 149 265 149 265 181 265 c 256,3,4
 213 265 213 265 230.5 245.5 c 128,-1,5
 248 226 248 226 243 198 c 0,6,7
 237 171 237 171 211 151.5 c 128,-1,8
 185 132 185 132 153 132 c 256,9,10
 121 132 121 132 102.5 151.5 c 128,-1,11
 84 171 84 171 90 198 c 0,0,1
EndSplineSet
EndChar
StartChar: cedilla
Encoding: 184 184 122
Width: 195
Flags: W
Fore
154 -77 m 0,0,1
 151 -92 151 -92 141 -103.5 c 128,-1,2
 131 -115 131 -115 117.5 -123 c 128,-1,3
 104 -131 104 -131 87.5 -135 c 128,-1,4
 71 -139 71 -139 56 -139 c 0,5,6
 27 -139 27 -139 11 -128 c 0,7,8
 2 -120 2 -120 2 -109.5 c 128,-1,9
 2 -99 2 -99 16 -84 c 1,10,11
 41 -108 41 -108 63 -108 c 0,12,13
 72 -108 72 -108 82 -101 c 128,-1,14
 92 -94 92 -94 94 -82 c 0,15,16
 98 -66 98 -66 77.5 -59.5 c 128,-1,17
 57 -53 57 -53 30 -55 c 1,18,-1
 88 11 l 1,19,-1
 138 11 l 1,20,-1
 103 -28 l 1,21,22
 129 -31 129 -31 143.5 -45 c 128,-1,23
 158 -59 158 -59 154 -77 c 0,0,1
EndSplineSet
EndChar
StartChar: onesuperior
Encoding: 185 185 123
Width: 298
Flags: W
Fore
263 475 m 1,0,1
 277 475 277 475 284.5 469.5 c 128,-1,2
 292 464 292 464 290 456 c 2,3,-1
 244 239 l 2,4,5
 236 203 236 203 180 203 c 1,6,-1
 230 441 l 1,7,8
 211 441 211 441 202 450.5 c 128,-1,9
 193 460 193 460 196 475 c 1,10,-1
 263 475 l 1,11,-1
 263 475 l 1,0,1
EndSplineSet
EndChar
StartChar: ordmasculine
Encoding: 186 186 124
Width: 314
Flags: W
Fore
71 340 m 0,0,1
 77 368 77 368 94 393.5 c 128,-1,2
 111 419 111 419 134.5 437.5 c 128,-1,3
 158 456 158 456 187 467 c 128,-1,4
 216 478 216 478 246 478 c 0,5,6
 277 478 277 478 302 467 c 128,-1,7
 327 456 327 456 343.5 437.5 c 128,-1,8
 360 419 360 419 366 393.5 c 128,-1,9
 372 368 372 368 366 340 c 0,10,11
 360 313 360 313 343 288 c 128,-1,12
 326 263 326 263 302 244.5 c 128,-1,13
 278 226 278 226 248.5 215 c 128,-1,14
 219 204 219 204 188 204 c 0,15,16
 158 204 158 204 133.5 215 c 128,-1,17
 109 226 109 226 93.5 244.5 c 128,-1,18
 78 263 78 263 71.5 288 c 128,-1,19
 65 313 65 313 71 340 c 0,0,1
128 340 m 0,20,21
 119 297 119 297 139 267.5 c 128,-1,22
 159 238 159 238 195 238 c 0,23,24
 214 238 214 238 232.5 246 c 128,-1,25
 251 254 251 254 266.5 267.5 c 128,-1,26
 282 281 282 281 293 300 c 128,-1,27
 304 319 304 319 309 340 c 0,28,29
 313 362 313 362 310 381 c 128,-1,30
 307 400 307 400 297.5 414 c 128,-1,31
 288 428 288 428 273 436 c 128,-1,32
 258 444 258 444 239 444 c 0,33,34
 221 444 221 444 203 436 c 128,-1,35
 185 428 185 428 170 414 c 128,-1,36
 155 400 155 400 143.5 381 c 128,-1,37
 132 362 132 362 128 340 c 0,20,21
EndSplineSet
EndChar
StartChar: onequarter
Encoding: 188 188 126
Width: 587
Flags: W
Fore
268 475 m 2,0,1
 282 475 282 475 289.5 469.5 c 128,-1,2
 297 464 297 464 295 456 c 2,3,-1
 249 239 l 2,4,5
 241 203 241 203 184 203 c 1,6,-1
 234 441 l 1,7,8
 215 441 215 441 206.5 450.5 c 128,-1,9
 198 460 198 460 201 475 c 1,10,-1
 268 475 l 2,0,1
574 97 m 1,11,12
 567 63 567 63 530 63 c 2,13,-1
 524 63 l 1,14,-1
 516 26 l 2,15,16
 510 -3 510 -3 453 -3 c 1,17,-1
 467 63 l 1,18,-1
 348 63 l 2,19,20
 334 63 334 63 327.5 72 c 128,-1,21
 321 81 321 81 331 91 c 2,22,-1
 511 259 l 2,23,24
 521 267 521 267 530.5 270.5 c 128,-1,25
 540 274 540 274 548 273.5 c 128,-1,26
 556 273 556 273 560.5 268 c 128,-1,27
 565 263 565 263 564 254 c 2,28,-1
 531 97 l 1,29,-1
 574 97 l 1,11,12
474 97 m 1,30,-1
 493 187 l 1,31,32
 469 164 469 164 445 142 c 128,-1,33
 421 120 421 120 396 97 c 1,34,-1
 474 97 l 1,30,-1
484 480 m 2,35,36
 498 498 498 498 516 502.5 c 128,-1,37
 534 507 534 507 556 494 c 1,38,-1
 202 -1 l 2,39,40
 173 -42 173 -42 131 -15 c 1,41,-1
 484 480 l 2,35,36
EndSplineSet
Ligature: 0 0 'frac' one fraction four
Ligature: 0 0 'frac' one slash four
EndChar
StartChar: onehalf
Encoding: 189 189 127
Width: 587
Flags: W
Fore
268 475 m 2,0,1
 282 475 282 475 289.5 469.5 c 128,-1,2
 297 464 297 464 295 456 c 2,3,-1
 249 239 l 2,4,5
 241 203 241 203 184 203 c 1,6,-1
 234 441 l 1,7,8
 215 441 215 441 206.5 450.5 c 128,-1,9
 198 460 198 460 201 475 c 1,10,-1
 268 475 l 2,0,1
511 34 m 2,11,12
 548 34 548 34 542 0 c 1,13,-1
 350 0 l 2,14,15
 339 0 339 0 331 4 c 128,-1,16
 323 8 323 8 325 16 c 0,17,18
 332 48 332 48 362 78 c 128,-1,19
 392 108 392 108 444 128 c 0,20,21
 473 140 473 140 496.5 152.5 c 128,-1,22
 520 165 520 165 525 187 c 0,23,24
 530 207 530 207 517.5 223 c 128,-1,25
 505 239 505 239 482 239 c 256,26,27
 459 239 459 239 440 223 c 128,-1,28
 421 207 421 207 416 187 c 1,29,30
 416 185 416 185 415.5 181.5 c 128,-1,31
 415 178 415 178 415 170 c 1,32,33
 395 170 395 170 378 179.5 c 128,-1,34
 361 189 361 189 365 198 c 0,35,36
 372 215 372 215 385 228.5 c 128,-1,37
 398 242 398 242 415 252 c 128,-1,38
 432 262 432 262 451.5 267 c 128,-1,39
 471 272 471 272 489 272 c 0,40,41
 508 272 508 272 526.5 266.5 c 128,-1,42
 545 261 545 261 558.5 250 c 128,-1,43
 572 239 572 239 578.5 223 c 128,-1,44
 585 207 585 207 581 187 c 0,45,46
 574 154 574 154 538.5 133 c 128,-1,47
 503 112 503 112 460 96 c 0,48,49
 433 85 433 85 414 69.5 c 128,-1,50
 395 54 395 54 387 34 c 1,51,-1
 511 34 l 2,11,12
484 480 m 2,52,53
 498 498 498 498 516 502.5 c 128,-1,54
 534 507 534 507 556 494 c 1,55,-1
 202 -1 l 2,56,57
 173 -42 173 -42 131 -15 c 1,58,-1
 484 480 l 2,52,53
EndSplineSet
Ligature: 0 0 'frac' one fraction two
Ligature: 0 0 'frac' one slash two
EndChar
StartChar: threequarters
Encoding: 190 190 128
Width: 587
Flags: W
Fore
574 97 m 1,0,1
 567 63 567 63 530 63 c 2,2,-1
 524 63 l 1,3,-1
 516 26 l 2,4,5
 510 -3 510 -3 453 -3 c 1,6,-1
 467 63 l 1,7,-1
 348 63 l 2,8,9
 334 63 334 63 327.5 72 c 128,-1,10
 321 81 321 81 331 91 c 2,11,-1
 511 259 l 2,12,13
 530 275 530 275 547.5 273 c 128,-1,14
 565 271 565 271 564 254 c 1,15,-1
 531 97 l 1,16,-1
 574 97 l 1,0,1
474 97 m 1,17,-1
 493 187 l 1,18,19
 469 164 469 164 445 142 c 128,-1,20
 421 120 421 120 396 97 c 1,21,-1
 474 97 l 1,17,-1
147 419 m 0,22,23
 155 440 155 440 184 459 c 128,-1,24
 213 478 213 478 254 478 c 0,25,26
 293 478 293 478 317 457 c 128,-1,27
 341 436 341 436 335 407 c 0,28,29
 332 393 332 393 319.5 378.5 c 128,-1,30
 307 364 307 364 292 353 c 1,31,32
 309 341 309 341 318.5 323 c 128,-1,33
 328 305 328 305 323 286 c 0,34,35
 316 251 316 251 279.5 227 c 128,-1,36
 243 203 243 203 196 203 c 0,37,38
 173 203 173 203 154.5 209.5 c 128,-1,39
 136 216 136 216 124 226.5 c 128,-1,40
 112 237 112 237 106 249.5 c 128,-1,41
 100 262 100 262 102 275 c 0,42,43
 107 304 107 304 163 304 c 1,44,45
 161 299 161 299 160.5 295 c 128,-1,46
 160 291 160 291 158 286 c 1,47,48
 153 265 153 265 166.5 250.5 c 128,-1,49
 180 236 180 236 203 236 c 0,50,51
 225 236 225 236 243.5 250.5 c 128,-1,52
 262 265 262 265 267 286 c 0,53,54
 272 306 272 306 259 320.5 c 128,-1,55
 246 335 246 335 224 335 c 0,56,57
 213 335 213 335 204.5 339.5 c 128,-1,58
 196 344 196 344 198 351 c 0,59,60
 200 359 200 359 210 363.5 c 128,-1,61
 220 368 220 368 231 368 c 0,62,63
 248 368 248 368 262 379.5 c 128,-1,64
 276 391 276 391 279 407 c 256,65,66
 282 423 282 423 273 434 c 128,-1,67
 264 445 264 445 247 445 c 256,68,69
 230 445 230 445 216 434 c 128,-1,70
 202 423 202 423 199 407 c 2,71,72
 198 405 198 405 197.5 401 c 128,-1,73
 197 397 197 397 199 392 c 1,74,75
 186 390 186 390 175 391 c 128,-1,76
 164 392 164 392 156.5 395.5 c 128,-1,77
 149 399 149 399 146 405 c 128,-1,78
 143 411 143 411 147 419 c 0,22,23
484 480 m 2,79,80
 498 498 498 498 516 502.5 c 128,-1,81
 534 507 534 507 556 494 c 1,82,-1
 202 -1 l 2,83,84
 173 -42 173 -42 131 -15 c 1,85,-1
 484 480 l 2,79,80
EndSplineSet
Ligature: 0 0 'frac' three fraction four
Ligature: 0 0 'frac' three slash four
EndChar
StartChar: questiondown
Encoding: 191 191 129
Width: 354
Flags: W
Fore
193 205 m 2,0,1
 202 245 202 245 263 245 c 1,2,-1
 250 185 l 2,3,4
 242 150 242 150 217 127.5 c 128,-1,5
 192 105 192 105 165 85 c 0,6,7
 140 68 140 68 118.5 47.5 c 128,-1,8
 97 27 97 27 89 -8 c 0,9,10
 80 -50 80 -50 100 -76.5 c 128,-1,11
 120 -103 120 -103 158 -103 c 0,12,13
 195 -103 195 -103 227 -77 c 128,-1,14
 259 -51 259 -51 268 -8 c 0,15,16
 270 -1 270 -1 270.5 3 c 128,-1,17
 271 7 271 7 271 13 c 1,18,19
 294 13 294 13 310 0.5 c 128,-1,20
 326 -12 326 -12 324 -27 c 1,21,22
 313 -51 313 -51 295.5 -71.5 c 128,-1,23
 278 -92 278 -92 255 -107.5 c 128,-1,24
 232 -123 232 -123 205 -132 c 128,-1,25
 178 -141 178 -141 150 -141 c 0,26,27
 120 -141 120 -141 94.5 -132 c 128,-1,28
 69 -123 69 -123 52 -105.5 c 128,-1,29
 35 -88 35 -88 28 -63.5 c 128,-1,30
 21 -39 21 -39 28 -8 c 0,31,32
 37 36 37 36 66 63 c 128,-1,33
 95 90 95 90 126 112 c 0,34,35
 149 127 149 127 166 143 c 128,-1,36
 183 159 183 159 189 185 c 2,37,-1
 193 205 l 2,0,1
294 308 m 0,38,39
 290 291 290 291 273.5 279.5 c 128,-1,40
 257 268 257 268 236 268 c 0,41,42
 216 268 216 268 204 279.5 c 128,-1,43
 192 291 192 291 196 308 c 0,44,45
 199 324 199 324 216 335 c 128,-1,46
 233 346 233 346 253 346 c 0,47,48
 274 346 274 346 285.5 335 c 128,-1,49
 297 324 297 324 294 308 c 0,38,39
EndSplineSet
EndChar
StartChar: AE
Encoding: 198 198 135
Width: 623
Flags: W
Fore
408 476 m 1,0,-1
 656 476 l 2,1,2
 703 476 703 476 694 437 c 1,3,-1
 458 437 l 1,4,-1
 442 259 l 1,5,-1
 638 259 l 1,6,7
 629 219 629 219 581 219 c 2,8,-1
 438 219 l 1,9,-1
 421 40 l 1,10,-1
 620 40 l 1,11,12
 611 0 611 0 565 0 c 2,13,-1
 350 0 l 1,14,-1
 366 154 l 1,15,-1
 185 154 l 1,16,17
 150 114 150 114 112.5 71 c 128,-1,18
 75 28 75 28 40 -11 c 1,19,20
 20 -2 20 -2 17 15 c 128,-1,21
 14 32 14 32 28 49 c 2,22,-1
 408 476 l 1,0,-1
390 388 m 1,23,-1
 221 194 l 1,24,-1
 371 194 l 1,25,-1
 390 388 l 1,23,-1
EndSplineSet
EndChar
StartChar: Eth
Encoding: 208 208 145
Width: 504
Flags: W
Fore
45 220 m 1,0,1
 54 258 54 258 98 258 c 2,2,-1
 288 258 l 1,3,4
 280 220 280 220 235 220 c 2,5,-1
 45 220 l 1,0,1
358 478 m 2,6,7
 393 478 393 478 426 467.5 c 128,-1,8
 459 457 459 457 483 437.5 c 128,-1,9
 507 418 507 418 519 388.5 c 128,-1,10
 531 359 531 359 523 322 c 2,11,-1
 488 159 l 2,12,13
 480 123 480 123 456.5 94 c 128,-1,14
 433 65 433 65 401 44.5 c 128,-1,15
 369 24 369 24 331 13 c 128,-1,16
 293 2 293 2 257 2 c 2,17,-1
 91 2 l 2,18,19
 77 2 77 2 69 8.5 c 128,-1,20
 61 15 61 15 63 24 c 2,21,-1
 155 456 l 2,22,23
 157 466 157 466 167.5 472 c 128,-1,24
 178 478 178 478 192 478 c 2,25,-1
 358 478 l 2,6,7
215 439 m 1,26,-1
 131 42 l 1,27,-1
 265 42 l 2,28,29
 293 42 293 42 319.5 51.5 c 128,-1,30
 346 61 346 61 368 76.5 c 128,-1,31
 390 92 390 92 405.5 113.5 c 128,-1,32
 421 135 421 135 426 159 c 2,33,-1
 461 322 l 2,34,35
 466 346 466 346 459.5 367.5 c 128,-1,36
 453 389 453 389 437.5 404.5 c 128,-1,37
 422 420 422 420 399.5 429.5 c 128,-1,38
 377 439 377 439 349 439 c 2,39,-1
 215 439 l 1,26,-1
EndSplineSet
EndChar
StartChar: multiply
Encoding: 215 215 152
Width: 420
Flags: W
Fore
366 320 m 2,0,1
 404 351 404 351 430 319 c 1,2,-1
 282 197 l 1,3,-1
 379 76 l 1,4,5
 338 46 338 46 313 75 c 2,6,-1
 242 164 l 1,7,-1
 134 75 l 2,8,9
 96 45 96 45 70 76 c 1,10,-1
 216 197 l 1,11,-1
 121 319 l 1,12,13
 140 333 140 333 157.5 333.5 c 128,-1,14
 175 334 175 334 187 320 c 2,15,-1
 256 230 l 1,16,-1
 366 320 l 2,0,1
EndSplineSet
EndChar
StartChar: Thorn
Encoding: 222 222 159
Width: 415
Flags: W
Fore
434 267 m 0,0,1
 426 232 426 232 405.5 204 c 128,-1,2
 385 176 385 176 354.5 156 c 128,-1,3
 324 136 324 136 284 125.5 c 128,-1,4
 244 115 244 115 199 115 c 0,5,6
 186 115 186 115 172.5 115 c 128,-1,7
 159 115 159 115 145 117 c 1,8,-1
 128 35 l 2,9,10
 123 15 123 15 104 4.5 c 128,-1,11
 85 -6 85 -6 56 -6 c 1,12,-1
 151 440 l 2,13,14
 155 459 155 459 174.5 470 c 128,-1,15
 194 481 194 481 223 481 c 1,16,-1
 204 395 l 1,17,18
 222 397 222 397 242.5 398 c 128,-1,19
 263 399 263 399 277 399 c 0,20,21
 374 399 374 399 411 356 c 0,22,23
 428 336 428 336 433.5 313 c 128,-1,24
 439 290 439 290 434 267 c 0,0,1
371 262 m 0,25,26
 377 290 377 290 371 309 c 128,-1,27
 365 328 365 328 350.5 340 c 128,-1,28
 336 352 336 352 314.5 357 c 128,-1,29
 293 362 293 362 269 362 c 256,30,31
 245 362 245 362 223 359.5 c 128,-1,32
 201 357 201 357 188 353 c 1,33,-1
 196 355 l 1,34,-1
 154 157 l 1,35,36
 168 155 168 155 182 154 c 128,-1,37
 196 153 196 153 209 153 c 0,38,39
 276 153 276 153 318 182 c 128,-1,40
 360 211 360 211 371 262 c 0,25,26
EndSplineSet
EndChar
StartChar: uni00DF
Encoding: 223 223 160
Width: 391
Flags: W
Fore
133 353 m 2,0,1
 145 411 145 411 184 446 c 128,-1,2
 223 481 223 481 289 481 c 0,3,4
 346 481 346 481 372.5 447 c 128,-1,5
 399 413 399 413 388 360 c 0,6,7
 374 295 374 295 305 261 c 1,8,9
 346 244 346 244 362.5 212 c 128,-1,10
 379 180 379 180 369 135 c 0,11,12
 355 69 355 69 315.5 31.5 c 128,-1,13
 276 -6 276 -6 214 -6 c 0,14,15
 201 -6 201 -6 192 -4.5 c 128,-1,16
 183 -3 183 -3 178 -1 c 1,17,18
 166 7 166 7 163.5 20 c 128,-1,19
 161 33 161 33 174 50 c 1,20,21
 187 42 187 42 201 36 c 128,-1,22
 215 30 215 30 225 30 c 0,23,24
 285 30 285 30 306 130 c 0,25,26
 318 188 318 188 293.5 212.5 c 128,-1,27
 269 237 269 237 209 237 c 1,28,-1
 216 272 l 1,29,30
 259 274 259 274 286.5 293.5 c 128,-1,31
 314 313 314 313 324 362 c 0,32,33
 332 401 332 401 320.5 423 c 128,-1,34
 309 445 309 445 274 445 c 0,35,36
 256 445 256 445 243 437 c 128,-1,37
 230 429 230 429 220.5 416.5 c 128,-1,38
 211 404 211 404 205 388 c 128,-1,39
 199 372 199 372 196 356 c 2,40,-1
 110 -50 l 2,41,42
 101 -91 101 -91 38 -91 c 1,43,-1
 133 353 l 2,0,1
EndSplineSet
EndChar
StartChar: ae
Encoding: 230 230 167
Width: 614
Flags: W
Fore
316 212 m 1,0,-1
 320 232 l 2,1,2
 323 247 323 247 319.5 261.5 c 128,-1,3
 316 276 316 276 306 286.5 c 128,-1,4
 296 297 296 297 282 303.5 c 128,-1,5
 268 310 268 310 250 310 c 0,6,7
 222 310 222 310 191.5 288.5 c 128,-1,8
 161 267 161 267 139 235 c 1,9,10
 124 249 124 249 121 267.5 c 128,-1,11
 118 286 118 286 130 298 c 0,12,13
 154 320 154 320 188 333 c 128,-1,14
 222 346 222 346 258 346 c 0,15,16
 290 346 290 346 320 334.5 c 128,-1,17
 350 323 350 323 366 302 c 1,18,19
 389 322 389 322 421.5 334 c 128,-1,20
 454 346 454 346 490 346 c 0,21,22
 520 346 520 346 545 337 c 128,-1,23
 570 328 570 328 586.5 312.5 c 128,-1,24
 603 297 603 297 610 276 c 128,-1,25
 617 255 617 255 612 231 c 2,26,-1
 604 195 l 2,27,28
 602 187 602 187 591.5 181.5 c 128,-1,29
 581 176 581 176 570 176 c 2,30,-1
 368 176 l 1,31,-1
 353 108 l 2,32,33
 347 77 347 77 366 54 c 128,-1,34
 385 31 385 31 423 31 c 0,35,36
 442 31 442 31 459 37.5 c 128,-1,37
 476 44 476 44 490 55 c 128,-1,38
 504 66 504 66 513.5 80.5 c 128,-1,39
 523 95 523 95 526 111 c 1,40,41
 535 111 535 111 544.5 107.5 c 128,-1,42
 554 104 554 104 561 98 c 128,-1,43
 568 92 568 92 570 83.5 c 128,-1,44
 572 75 572 75 565 65 c 0,45,46
 543 33 543 33 503 13.5 c 128,-1,47
 463 -6 463 -6 415 -6 c 0,48,49
 379 -6 379 -6 351.5 6.5 c 128,-1,50
 324 19 324 19 310 39 c 1,51,52
 284 16 284 16 250 5 c 128,-1,53
 216 -6 216 -6 183 -6 c 0,54,55
 152 -6 152 -6 127 2 c 128,-1,56
 102 10 102 10 85.5 24.5 c 128,-1,57
 69 39 69 39 62 59 c 128,-1,58
 55 79 55 79 60 103 c 256,59,60
 65 127 65 127 81 147 c 128,-1,61
 97 167 97 167 119.5 181.5 c 128,-1,62
 142 196 142 196 170.5 204 c 128,-1,63
 199 212 199 212 230 212 c 2,64,-1
 316 212 l 1,0,-1
222 176 m 2,65,66
 184 176 184 176 155 155.5 c 128,-1,67
 126 135 126 135 119 103 c 0,68,69
 113 72 113 72 133 51.5 c 128,-1,70
 153 31 153 31 191 31 c 0,71,72
 228 31 228 31 257.5 54 c 128,-1,73
 287 77 287 77 293 108 c 2,74,-1
 308 176 l 1,75,-1
 222 176 l 2,65,66
376 212 m 1,76,-1
 548 212 l 1,77,-1
 552 231 l 2,78,79
 559 263 559 263 539.5 286.5 c 128,-1,80
 520 310 520 310 482 310 c 0,81,82
 446 310 446 310 416.5 286.5 c 128,-1,83
 387 263 387 263 380 231 c 2,84,-1
 376 212 l 1,76,-1
EndSplineSet
EndChar
StartChar: eth
Encoding: 240 240 177
Width: 438
Flags: W
Fore
183 358 m 1,0,1
 174 396 174 396 213 413 c 2,2,-1
 271 437 l 1,3,4
 254 449 254 449 236.5 458 c 128,-1,5
 219 467 219 467 202 475 c 1,6,-1
 228 512 l 1,7,8
 259 499 259 499 284.5 486 c 128,-1,9
 310 473 310 473 327 460 c 1,10,-1
 434 506 l 1,11,12
 439 487 439 487 430.5 473 c 128,-1,13
 422 459 422 459 403 451 c 2,14,-1
 360 433 l 1,15,16
 385 407 385 407 404 377 c 128,-1,17
 423 347 423 347 433 313 c 0,18,19
 451 252 451 252 436 179 c 0,20,21
 425 131 425 131 401.5 96 c 128,-1,22
 378 61 378 61 347 38.5 c 128,-1,23
 316 16 316 16 281 5 c 128,-1,24
 246 -6 246 -6 213 -6 c 0,25,26
 174 -6 174 -6 144 7 c 128,-1,27
 114 20 114 20 96 43 c 128,-1,28
 78 66 78 66 72 97.5 c 128,-1,29
 66 129 66 129 74 165 c 0,30,31
 83 207 83 207 105.5 240.5 c 128,-1,32
 128 274 128 274 158 297.5 c 128,-1,33
 188 321 188 321 223 333.5 c 128,-1,34
 258 346 258 346 291 346 c 0,35,36
 314 346 314 346 334 340.5 c 128,-1,37
 354 335 354 335 371 325 c 1,38,39
 350 375 350 375 308 411 c 1,40,-1
 183 358 l 1,0,1
371 174 m 256,41,42
 379 210 379 210 376.5 234 c 128,-1,43
 374 258 374 258 364 273 c 1,44,45
 350 287 350 287 331 299 c 128,-1,46
 312 311 312 311 284 311 c 0,47,48
 253 311 253 311 227.5 297.5 c 128,-1,49
 202 284 202 284 182.5 263 c 128,-1,50
 163 242 163 242 150.5 216.5 c 128,-1,51
 138 191 138 191 133 166 c 0,52,53
 126 133 126 133 131 107.5 c 128,-1,54
 136 82 136 82 148.5 65 c 128,-1,55
 161 48 161 48 180 39 c 128,-1,56
 199 30 199 30 220 30 c 0,57,58
 245 30 245 30 269 39 c 128,-1,59
 293 48 293 48 313 66 c 128,-1,60
 333 84 333 84 348 111 c 128,-1,61
 363 138 363 138 371 174 c 256,41,42
EndSplineSet
EndChar
StartChar: divide
Encoding: 247 247 184
Width: 420
Flags: W
Fore
435 218 m 1,0,1
 431 200 431 200 416 189.5 c 128,-1,2
 401 179 401 179 379 179 c 2,3,-1
 67 179 l 1,4,5
 70 196 70 196 85 207 c 128,-1,6
 100 218 100 218 122 218 c 2,7,-1
 435 218 l 1,0,1
227 314 m 0,8,9
 231 330 231 330 247.5 341.5 c 128,-1,10
 264 353 264 353 284 353 c 256,11,12
 304 353 304 353 316 341.5 c 128,-1,13
 328 330 328 330 324 314 c 0,14,15
 321 299 321 299 304 287.5 c 128,-1,16
 287 276 287 276 267 276 c 256,17,18
 247 276 247 276 235.5 287.5 c 128,-1,19
 224 299 224 299 227 314 c 0,8,9
178 82 m 0,20,21
 181 98 181 98 197.5 109.5 c 128,-1,22
 214 121 214 121 234 121 c 256,23,24
 254 121 254 121 266 109.5 c 128,-1,25
 278 98 278 98 275 82 c 0,26,27
 272 67 272 67 255 55.5 c 128,-1,28
 238 44 238 44 218 44 c 256,29,30
 198 44 198 44 186.5 55.5 c 128,-1,31
 175 67 175 67 178 82 c 0,20,21
EndSplineSet
EndChar
StartChar: oslash
Encoding: 248 248 185
Width: 451
Flags: W
Fore
353 343 m 2,0,1
 383 381 383 381 425 357 c 1,2,-1
 168 -3 l 2,3,4
 154 -21 154 -21 135 -25 c 128,-1,5
 116 -29 116 -29 95 -17 c 1,6,-1
 353 343 l 2,0,1
76 172 m 0,7,8
 83 208 83 208 104.5 240 c 128,-1,9
 126 272 126 272 156 296 c 128,-1,10
 186 320 186 320 222.5 334 c 128,-1,11
 259 348 259 348 298 348 c 256,12,13
 337 348 337 348 368 334 c 128,-1,14
 399 320 399 320 419 296 c 128,-1,15
 439 272 439 272 447 240 c 128,-1,16
 455 208 455 208 448 172 c 0,17,18
 440 135 440 135 418.5 103 c 128,-1,19
 397 71 397 71 366.5 47 c 128,-1,20
 336 23 336 23 299 9.5 c 128,-1,21
 262 -4 262 -4 223 -4 c 256,22,23
 184 -4 184 -4 153.5 9.5 c 128,-1,24
 123 23 123 23 103 47 c 128,-1,25
 83 71 83 71 75.5 103 c 128,-1,26
 68 135 68 135 76 172 c 0,7,8
135 172 m 256,27,28
 129 143 129 143 133.5 117.5 c 128,-1,29
 138 92 138 92 151 73 c 128,-1,30
 164 54 164 54 184.5 43.5 c 128,-1,31
 205 33 205 33 231 33 c 256,32,33
 257 33 257 33 282.5 43.5 c 128,-1,34
 308 54 308 54 329.5 73 c 128,-1,35
 351 92 351 92 366.5 117.5 c 128,-1,36
 382 143 382 143 388 172 c 256,37,38
 394 201 394 201 389.5 226.5 c 128,-1,39
 385 252 385 252 371.5 271 c 128,-1,40
 358 290 358 290 337 301 c 128,-1,41
 316 312 316 312 290 312 c 256,42,43
 264 312 264 312 239 301 c 128,-1,44
 214 290 214 290 193 271 c 128,-1,45
 172 252 172 252 156.5 226.5 c 128,-1,46
 141 201 141 201 135 172 c 256,27,28
EndSplineSet
EndChar
StartChar: thorn
Encoding: 254 254 191
Width: 410
Flags: W
Fore
141 109 m 2,0,1
 134 77 134 77 153.5 54 c 128,-1,2
 173 31 173 31 210 31 c 0,3,4
 248 31 248 31 277.5 54 c 128,-1,5
 307 77 307 77 314 109 c 2,6,-1
 340 232 l 2,7,8
 347 263 347 263 327 286.5 c 128,-1,9
 307 310 307 310 269 310 c 0,10,11
 232 310 232 310 203 286.5 c 128,-1,12
 174 263 174 263 167 232 c 2,13,-1
 141 109 l 2,0,1
202 -6 m 0,14,15
 177 -6 177 -6 157 -0.5 c 128,-1,16
 137 5 137 5 121 15 c 1,17,-1
 95 -107 l 2,18,19
 91 -123 91 -123 75.5 -132 c 128,-1,20
 60 -141 60 -141 28 -141 c 1,21,-1
 152 443 l 2,22,23
 160 481 160 481 220 481 c 1,24,-1
 186 324 l 1,25,26
 228 346 228 346 277 346 c 0,27,28
 308 346 308 346 332.5 337 c 128,-1,29
 357 328 357 328 373.5 313 c 128,-1,30
 390 298 390 298 397 277 c 128,-1,31
 404 256 404 256 399 232 c 2,32,-1
 373 109 l 2,33,34
 368 85 368 85 352 64.5 c 128,-1,35
 336 44 336 44 313 28 c 128,-1,36
 290 12 290 12 261.5 3 c 128,-1,37
 233 -6 233 -6 202 -6 c 0,14,15
EndSplineSet
EndChar
StartChar: Lslash
Encoding: 321 321 193
Width: 434
Flags: W
Fore
46 157 m 1,0,1
 30 194 30 194 66 215 c 2,2,-1
 301 351 l 1,3,4
 317 312 317 312 282 293 c 2,5,-1
 46 157 l 1,0,1
376 42 m 2,6,7
 422 42 422 42 415 2 c 1,8,-1
 91 2 l 2,9,10
 77 2 77 2 69 8.5 c 128,-1,11
 61 15 61 15 63 24 c 2,12,-1
 152 442 l 2,13,14
 161 484 161 484 225 484 c 1,15,-1
 131 42 l 1,16,-1
 376 42 l 2,6,7
EndSplineSet
EndChar
StartChar: lslash
Encoding: 322 322 194
Width: 180
Flags: W
Fore
45 158 m 1,0,1
 29 193 29 193 65 214 c 2,2,-1
 232 310 l 1,3,4
 248 273 248 273 213 253 c 2,5,-1
 45 158 l 1,0,1
129 38 m 2,6,7
 120 -4 120 -4 56 -4 c 1,8,-1
 151 442 l 2,9,10
 160 484 160 484 224 484 c 1,11,-1
 129 38 l 2,6,7
EndSplineSet
EndChar
StartChar: OE
Encoding: 338 338 195
Width: 819
Flags: W
Fore
501 259 m 1,0,-1
 698 259 l 1,1,2
 689 219 689 219 641 219 c 2,3,-1
 492 219 l 1,4,-1
 478 151 l 2,5,6
 473 127 473 127 478.5 105.5 c 128,-1,7
 484 84 484 84 499 68.5 c 128,-1,8
 514 53 514 53 536.5 43.5 c 128,-1,9
 559 34 559 34 587 34 c 256,10,11
 615 34 615 34 641.5 43.5 c 128,-1,12
 668 53 668 53 690 68.5 c 128,-1,13
 712 84 712 84 727 105.5 c 128,-1,14
 742 127 742 127 747 151 c 0,15,16
 748 156 748 156 749 162 c 128,-1,17
 750 168 750 168 750 173 c 1,18,19
 761 173 761 173 772.5 170 c 128,-1,20
 784 167 784 167 792 161 c 128,-1,21
 800 155 800 155 803 145.5 c 128,-1,22
 806 136 806 136 802 123 c 0,23,24
 789 94 789 94 764.5 70 c 128,-1,25
 740 46 740 46 709.5 29 c 128,-1,26
 679 12 679 12 644.5 3 c 128,-1,27
 610 -6 610 -6 578 -6 c 0,28,29
 531 -6 531 -6 489.5 12 c 128,-1,30
 448 30 448 30 427 65 c 1,31,32
 393 31 393 31 343 12.5 c 128,-1,33
 293 -6 293 -6 245 -6 c 0,34,35
 210 -6 210 -6 177 4.5 c 128,-1,36
 144 15 144 15 120 35.5 c 128,-1,37
 96 56 96 56 84.5 85 c 128,-1,38
 73 114 73 114 81 151 c 2,39,-1
 118 326 l 2,40,41
 125 362 125 362 149 391 c 128,-1,42
 173 420 173 420 205 440 c 128,-1,43
 237 460 237 460 275 471 c 128,-1,44
 313 482 313 482 349 482 c 0,45,46
 396 482 396 482 438.5 464 c 128,-1,47
 481 446 481 446 501 412 c 1,48,49
 536 447 536 447 584.5 464.5 c 128,-1,50
 633 482 633 482 682 482 c 0,51,52
 713 482 713 482 743.5 474 c 128,-1,53
 774 466 774 466 797.5 450.5 c 128,-1,54
 821 435 821 435 835.5 411 c 128,-1,55
 850 387 850 387 851 355 c 0,56,57
 851 341 851 341 844 331.5 c 128,-1,58
 837 322 837 322 826 316 c 128,-1,59
 815 310 815 310 802.5 307 c 128,-1,60
 790 304 790 304 778 304 c 1,61,62
 780 309 780 309 781 315 c 128,-1,63
 782 321 782 321 784 326 c 1,64,65
 789 350 789 350 782.5 371 c 128,-1,66
 776 392 776 392 761 408 c 128,-1,67
 746 424 746 424 723.5 433 c 128,-1,68
 701 442 701 442 673 442 c 256,69,70
 645 442 645 442 618.5 433 c 128,-1,71
 592 424 592 424 570.5 408 c 128,-1,72
 549 392 549 392 534.5 371 c 128,-1,73
 520 350 520 350 515 326 c 2,74,-1
 501 259 l 1,0,-1
451 326 m 2,75,76
 456 350 456 350 449.5 371 c 128,-1,77
 443 392 443 392 428 408 c 128,-1,78
 413 424 413 424 390.5 433 c 128,-1,79
 368 442 368 442 340 442 c 256,80,81
 312 442 312 442 285.5 433 c 128,-1,82
 259 424 259 424 237.5 408 c 128,-1,83
 216 392 216 392 201.5 371 c 128,-1,84
 187 350 187 350 182 326 c 2,85,-1
 145 151 l 2,86,87
 140 127 140 127 145.5 105.5 c 128,-1,88
 151 84 151 84 166 68.5 c 128,-1,89
 181 53 181 53 203.5 43.5 c 128,-1,90
 226 34 226 34 254 34 c 256,91,92
 282 34 282 34 308.5 43.5 c 128,-1,93
 335 53 335 53 357 68.5 c 128,-1,94
 379 84 379 84 394 105.5 c 128,-1,95
 409 127 409 127 414 151 c 2,96,-1
 451 326 l 2,75,76
EndSplineSet
EndChar
StartChar: oe
Encoding: 339 339 196
Width: 624
Flags: W
Fore
363 108 m 2,0,1
 357 77 357 77 376 54 c 128,-1,2
 395 31 395 31 433 31 c 0,3,4
 451 31 451 31 468.5 37.5 c 128,-1,5
 486 44 486 44 499.5 55 c 128,-1,6
 513 66 513 66 523 80.5 c 128,-1,7
 533 95 533 95 536 111 c 1,8,9
 545 111 545 111 554.5 107.5 c 128,-1,10
 564 104 564 104 571 98 c 128,-1,11
 578 92 578 92 580 83.5 c 128,-1,12
 582 75 582 75 575 65 c 0,13,14
 553 33 553 33 513 13.5 c 128,-1,15
 473 -6 473 -6 425 -6 c 0,16,17
 388 -6 388 -6 360 6.5 c 128,-1,18
 332 19 332 19 318 39 c 1,19,20
 295 19 295 19 261.5 6.5 c 128,-1,21
 228 -6 228 -6 193 -6 c 0,22,23
 162 -6 162 -6 137.5 3 c 128,-1,24
 113 12 113 12 96.5 27.5 c 128,-1,25
 80 43 80 43 73 63.5 c 128,-1,26
 66 84 66 84 71 108 c 2,27,-1
 98 231 l 2,28,29
 103 255 103 255 118.5 276 c 128,-1,30
 134 297 134 297 157 312.5 c 128,-1,31
 180 328 180 328 208.5 337 c 128,-1,32
 237 346 237 346 268 346 c 0,33,34
 303 346 303 346 331.5 334 c 128,-1,35
 360 322 360 322 375 302 c 1,36,37
 398 322 398 322 430 334 c 128,-1,38
 462 346 462 346 500 346 c 0,39,40
 530 346 530 346 555 337 c 128,-1,41
 580 328 580 328 596.5 312.5 c 128,-1,42
 613 297 613 297 620 276 c 128,-1,43
 627 255 627 255 622 231 c 2,44,-1
 614 195 l 2,45,46
 612 187 612 187 601.5 181.5 c 128,-1,47
 591 176 591 176 580 176 c 2,48,-1
 378 176 l 1,49,-1
 363 108 l 2,0,1
260 310 m 0,50,51
 222 310 222 310 193 286.5 c 128,-1,52
 164 263 164 263 157 231 c 2,53,-1
 130 108 l 2,54,55
 124 77 124 77 143.5 54 c 128,-1,56
 163 31 163 31 201 31 c 0,57,58
 219 31 219 31 235.5 37 c 128,-1,59
 252 43 252 43 266 53.5 c 128,-1,60
 280 64 280 64 290 78 c 128,-1,61
 300 92 300 92 303 108 c 2,62,-1
 330 231 l 2,63,64
 337 263 337 263 317 286.5 c 128,-1,65
 297 310 297 310 260 310 c 0,50,51
386 212 m 1,66,-1
 558 212 l 1,67,-1
 562 231 l 2,68,69
 569 263 569 263 549 286.5 c 128,-1,70
 529 310 529 310 492 310 c 0,71,72
 454 310 454 310 425.5 286.5 c 128,-1,73
 397 263 397 263 390 231 c 2,74,-1
 386 212 l 1,66,-1
EndSplineSet
EndChar
StartChar: florin
Encoding: 402 402 202
Width: 402
Flags: W
Fore
444 433 m 1,0,1
 433 438 433 438 421.5 441.5 c 128,-1,2
 410 445 410 445 400 445 c 0,3,4
 380 445 380 445 364 435 c 128,-1,5
 348 425 348 425 334.5 408 c 128,-1,6
 321 391 321 391 311 368.5 c 128,-1,7
 301 346 301 346 294 322 c 2,8,-1
 283 291 l 1,9,-1
 386 291 l 1,10,11
 382 274 382 274 369 264.5 c 128,-1,12
 356 255 356 255 336 255 c 2,13,-1
 273 255 l 1,14,-1
 224 106 l 2,15,16
 200 32 200 32 160.5 -12.5 c 128,-1,17
 121 -57 121 -57 56 -57 c 0,18,19
 38 -57 38 -57 27 -53 c 0,20,21
 13 -47 13 -47 9.5 -35 c 128,-1,22
 6 -23 6 -23 18 -3 c 1,23,24
 36 -14 36 -14 46.5 -17.5 c 128,-1,25
 57 -21 57 -21 68 -21 c 0,26,27
 84 -21 84 -21 97.5 -11.5 c 128,-1,28
 111 -2 111 -2 122 13.5 c 128,-1,29
 133 29 133 29 142 48.5 c 128,-1,30
 151 68 151 68 157 89 c 2,31,-1
 211 255 l 1,32,-1
 136 255 l 1,33,34
 139 272 139 272 152.5 281.5 c 128,-1,35
 166 291 166 291 187 291 c 2,36,-1
 222 291 l 1,37,38
 223 294 223 294 224.5 298.5 c 128,-1,39
 226 303 226 303 228 306 c 1,40,41
 229 310 229 310 230 314.5 c 128,-1,42
 231 319 231 319 232 323 c 0,43,44
 255 394 255 394 300.5 438 c 128,-1,45
 346 482 346 482 413 482 c 0,46,47
 435 482 435 482 451 475 c 1,48,49
 463 467 463 467 466.5 456 c 128,-1,50
 470 445 470 445 461 434 c 1,51,-1
 444 433 l 1,0,1
EndSplineSet
EndChar
StartChar: circumflex
Encoding: 710 710 203
Width: 326
Flags: W
Fore
263 478 m 256,0,1
 277 478 277 478 282 472 c 2,2,-1
 350 382 l 1,3,4
 332 370 332 370 313 370 c 128,-1,5
 294 370 294 370 285 381 c 2,6,-1
 252 426 l 1,7,-1
 199 381 l 2,8,9
 185 370 185 370 167 370 c 128,-1,10
 149 370 149 370 137 382 c 1,11,-1
 242 472 l 2,12,13
 249 478 249 478 263 478 c 256,0,1
EndSplineSet
EndChar
StartChar: breve
Encoding: 728 728 205
Width: 320
Flags: W
Fore
237 370 m 256,0,1
 219 370 219 370 199.5 375.5 c 128,-1,2
 180 381 180 381 165 392 c 128,-1,3
 150 403 150 403 141.5 418.5 c 128,-1,4
 133 434 133 434 136 454 c 0,5,6
 138 465 138 465 156.5 473 c 128,-1,7
 175 481 175 481 199 481 c 1,8,9
 192 449 192 449 205 428.5 c 128,-1,10
 218 408 218 408 245 408 c 0,11,12
 273 408 273 408 295 428.5 c 128,-1,13
 317 449 317 449 324 481 c 1,14,15
 348 481 348 481 362.5 473 c 128,-1,16
 377 465 377 465 374 454 c 0,17,18
 369 434 369 434 354 418.5 c 128,-1,19
 339 403 339 403 319 392 c 128,-1,20
 299 381 299 381 277 375.5 c 128,-1,21
 255 370 255 370 237 370 c 256,0,1
EndSplineSet
EndChar
StartChar: dotaccent
Encoding: 729 729 206
Width: 178
Flags: W
Fore
140 459 m 0,0,1
 143 473 143 473 158.5 483.5 c 128,-1,2
 174 494 174 494 194 494 c 256,3,4
 214 494 214 494 224 483.5 c 128,-1,5
 234 473 234 473 231 459 c 0,6,7
 228 444 228 444 213 433.5 c 128,-1,8
 198 423 198 423 178 423 c 256,9,10
 158 423 158 423 147.5 433.5 c 128,-1,11
 137 444 137 444 140 459 c 0,0,1
EndSplineSet
EndChar
StartChar: ring
Encoding: 730 730 207
Width: 298
Flags: W
Fore
167 459 m 0,0,1
 170 471 170 471 178 483 c 128,-1,2
 186 495 186 495 198 504.5 c 128,-1,3
 210 514 210 514 225.5 520 c 128,-1,4
 241 526 241 526 259 526 c 0,5,6
 294 526 294 526 311 504.5 c 128,-1,7
 328 483 328 483 323 459 c 0,8,9
 317 430 317 430 291.5 411 c 128,-1,10
 266 392 266 392 231 392 c 0,11,12
 199 392 199 392 180 411.5 c 128,-1,13
 161 431 161 431 167 459 c 0,0,1
216 459 m 0,14,15
 212 442 212 442 218.5 431 c 128,-1,16
 225 420 225 420 237 420 c 0,17,18
 250 420 250 420 260.5 431 c 128,-1,19
 271 442 271 442 275 459 c 0,20,21
 278 473 278 473 272.5 485.5 c 128,-1,22
 267 498 267 498 253 498 c 256,23,24
 239 498 239 498 229 485.5 c 128,-1,25
 219 473 219 473 216 459 c 0,14,15
EndSplineSet
EndChar
StartChar: ogonek
Encoding: 731 731 208
Width: 194
Flags: W
Fore
11 -77 m 0,0,1
 15 -59 15 -59 36 -45 c 128,-1,2
 57 -31 57 -31 84 -28 c 1,3,-1
 65 11 l 1,4,-1
 115 11 l 1,5,-1
 145 -55 l 1,6,7
 118 -53 118 -53 95.5 -59.5 c 128,-1,8
 73 -66 73 -66 69 -82 c 0,9,10
 67 -94 67 -94 74 -101 c 128,-1,11
 81 -108 81 -108 90 -108 c 0,12,13
 110 -108 110 -108 147 -84 c 1,14,15
 160 -112 160 -112 132 -128 c 0,16,17
 113 -139 113 -139 83 -139 c 0,18,19
 68 -139 68 -139 53.5 -135 c 128,-1,20
 39 -131 39 -131 28.5 -123 c 128,-1,21
 18 -115 18 -115 13 -103.5 c 128,-1,22
 8 -92 8 -92 11 -77 c 0,0,1
EndSplineSet
EndChar
StartChar: tilde
Encoding: 732 732 209
Width: 253
Flags: W
Fore
239 447 m 1,0,1
 246 439 246 439 252.5 433.5 c 128,-1,2
 259 428 259 428 264 428 c 0,3,4
 272 428 272 428 279 440.5 c 128,-1,5
 286 453 286 453 281 470 c 1,6,7
 296 475 296 475 306.5 474 c 128,-1,8
 317 473 317 473 323.5 468.5 c 128,-1,9
 330 464 330 464 332.5 457 c 128,-1,10
 335 450 335 450 333 443 c 0,11,12
 325 422 325 422 305 407.5 c 128,-1,13
 285 393 285 393 257 393 c 0,14,15
 234 393 234 393 223 400 c 128,-1,16
 212 407 212 407 202 416 c 1,17,-1
 204 416 l 1,18,-1
 196 421 l 1,19,20
 190 427 190 427 182.5 433 c 128,-1,21
 175 439 175 439 170 439 c 0,22,23
 162 439 162 439 156 426.5 c 128,-1,24
 150 414 150 414 153 398 c 1,25,26
 138 393 138 393 127 393.5 c 128,-1,27
 116 394 116 394 109.5 398.5 c 128,-1,28
 103 403 103 403 101 410 c 128,-1,29
 99 417 99 417 102 424 c 0,30,31
 110 446 110 446 130.5 460 c 128,-1,32
 151 474 151 474 177 474 c 0,33,34
 200 474 200 474 211 467.5 c 128,-1,35
 222 461 222 461 232 452 c 1,36,-1
 230 452 l 1,37,-1
 236 447 l 1,38,-1
 239 447 l 1,0,1
EndSplineSet
EndChar
StartChar: uni0E01
Encoding: 3585 3585 212
Width: 438
Flags: W
Fore
117 193 m 1,0,1
 116 195 116 195 113.5 205.5 c 128,-1,2
 111 216 111 216 107 228 c 0,3,4
 103 242 103 242 97 259 c 1,5,6
 93 266 93 266 96 269 c 1,7,8
 102 299 102 299 122 323.5 c 128,-1,9
 142 348 142 348 170 366 c 128,-1,10
 198 384 198 384 230 393.5 c 128,-1,11
 262 403 262 403 293 403 c 0,12,13
 323 403 323 403 351.5 394 c 128,-1,14
 380 385 380 385 401 367.5 c 128,-1,15
 422 350 422 350 432 325 c 128,-1,16
 442 300 442 300 435 269 c 2,17,-1
 386 38 l 2,18,19
 381 19 381 19 360.5 6.5 c 128,-1,20
 340 -6 340 -6 314 -6 c 1,21,-1
 373 269 l 2,22,23
 377 288 377 288 372 305 c 128,-1,24
 367 322 367 322 355 335.5 c 128,-1,25
 343 349 343 349 325 357 c 128,-1,26
 307 365 307 365 285 365 c 0,27,28
 264 365 264 365 243 357.5 c 128,-1,29
 222 350 222 350 205 337.5 c 128,-1,30
 188 325 188 325 175.5 308.5 c 128,-1,31
 163 292 163 292 158 274 c 1,32,33
 158 271 158 271 161.5 260.5 c 128,-1,34
 165 250 165 250 169 238 c 0,35,36
 173 224 173 224 179 208 c 1,37,-1
 180 198 l 1,38,-1
 136 -6 l 1,39,40
 110 -6 110 -6 94.5 6.5 c 128,-1,41
 79 19 79 19 84 38 c 2,42,-1
 117 193 l 1,43,-1
 117 193 l 1,0,1
EndSplineSet
EndChar
StartChar: uni0E02
Encoding: 3586 3586 213
Width: 421
Flags: W
Fore
375 358 m 2,0,1
 379 376 379 376 399.5 389 c 128,-1,2
 420 402 420 402 446 402 c 1,3,-1
 380 92 l 2,4,5
 375 70 375 70 361.5 52 c 128,-1,6
 348 34 348 34 329 21 c 128,-1,7
 310 8 310 8 287 1 c 128,-1,8
 264 -6 264 -6 241 -6 c 256,9,10
 218 -6 218 -6 198.5 1 c 128,-1,11
 179 8 179 8 165.5 21 c 128,-1,12
 152 34 152 34 146 52 c 128,-1,13
 140 70 140 70 145 92 c 2,14,-1
 149 111 l 2,15,16
 157 146 157 146 181 176.5 c 128,-1,17
 205 207 205 207 234 238 c 0,18,19
 260 263 260 263 266 290 c 0,20,21
 272 319 272 319 259 342 c 128,-1,22
 246 365 246 365 221 365 c 0,23,24
 201 365 201 365 183 354 c 128,-1,25
 165 343 165 343 154 326 c 1,26,27
 159 327 159 327 163 327.5 c 128,-1,28
 167 328 167 328 172 328 c 0,29,30
 203 328 203 328 220.5 311.5 c 128,-1,31
 238 295 238 295 233 269 c 0,32,33
 227 243 227 243 202 224 c 128,-1,34
 177 205 177 205 146 205 c 0,35,36
 109 205 109 205 92 230.5 c 128,-1,37
 75 256 75 256 82 290 c 0,38,39
 87 313 87 313 101 333.5 c 128,-1,40
 115 354 115 354 134.5 369.5 c 128,-1,41
 154 385 154 385 178.5 394 c 128,-1,42
 203 403 203 403 229 403 c 0,43,44
 254 403 254 403 274.5 394 c 128,-1,45
 295 385 295 385 308.5 369.5 c 128,-1,46
 322 354 322 354 327.5 333.5 c 128,-1,47
 333 313 333 313 328 290 c 0,48,49
 324 272 324 272 308.5 252 c 128,-1,50
 293 232 293 232 273 212 c 0,51,52
 251 192 251 192 234.5 167.5 c 128,-1,53
 218 143 218 143 210 111 c 2,54,-1
 206 92 l 2,55,56
 201 66 201 66 213.5 49 c 128,-1,57
 226 32 226 32 249 32 c 256,58,59
 272 32 272 32 292 48 c 128,-1,60
 312 64 312 64 318 92 c 2,61,-1
 375 358 l 2,0,1
128 269 m 256,62,63
 125 255 125 255 132 246 c 128,-1,64
 139 237 139 237 153 237 c 256,65,66
 167 237 167 237 178 246 c 128,-1,67
 189 255 189 255 192 269 c 256,68,69
 195 283 195 283 187.5 292 c 128,-1,70
 180 301 180 301 166 301 c 256,71,72
 152 301 152 301 141.5 292 c 128,-1,73
 131 283 131 283 128 269 c 256,62,63
EndSplineSet
EndChar
StartChar: uni0E03
Encoding: 3587 3587 214
Width: 421
Flags: W
Fore
172 328 m 0,0,1
 203 328 203 328 220.5 311.5 c 128,-1,2
 238 295 238 295 233 269 c 0,3,4
 227 243 227 243 202 224 c 128,-1,5
 177 205 177 205 146 205 c 0,6,7
 109 205 109 205 92 230.5 c 128,-1,8
 75 256 75 256 82 290 c 0,9,10
 86 308 86 308 96 327.5 c 128,-1,11
 106 347 106 347 120 364 c 0,12,13
 136 382 136 382 156 392.5 c 128,-1,14
 176 403 176 403 199 403 c 0,15,16
 209 403 209 403 215.5 397.5 c 128,-1,17
 222 392 222 392 227 387 c 1,18,19
 233 392 233 392 241.5 397.5 c 128,-1,20
 250 403 250 403 262 403 c 0,21,22
 283 403 283 403 298 393 c 128,-1,23
 313 383 313 383 321 367 c 128,-1,24
 329 351 329 351 330.5 331 c 128,-1,25
 332 311 332 311 328 290 c 0,26,27
 324 272 324 272 308.5 252 c 128,-1,28
 293 232 293 232 273 212 c 0,29,30
 251 192 251 192 234.5 167.5 c 128,-1,31
 218 143 218 143 210 111 c 2,32,-1
 206 92 l 2,33,34
 201 66 201 66 213.5 49 c 128,-1,35
 226 32 226 32 249 32 c 256,36,37
 272 32 272 32 292 48 c 128,-1,38
 312 64 312 64 318 92 c 2,39,-1
 375 358 l 2,40,41
 379 376 379 376 399.5 389 c 128,-1,42
 420 402 420 402 446 402 c 1,43,-1
 380 92 l 2,44,45
 375 70 375 70 361.5 52 c 128,-1,46
 348 34 348 34 329 21 c 128,-1,47
 310 8 310 8 287 1 c 128,-1,48
 264 -6 264 -6 241 -6 c 256,49,50
 218 -6 218 -6 198.5 1 c 128,-1,51
 179 8 179 8 165.5 21 c 128,-1,52
 152 34 152 34 146 52 c 128,-1,53
 140 70 140 70 145 92 c 2,54,-1
 149 111 l 2,55,56
 157 146 157 146 181 176.5 c 128,-1,57
 205 207 205 207 234 238 c 0,58,59
 260 263 260 263 266 290 c 0,60,61
 270 309 270 309 269 330.5 c 128,-1,62
 268 352 268 352 262 362 c 1,63,64
 258 359 258 359 254 355.5 c 128,-1,65
 250 352 250 352 246 349 c 2,66,67
 242 345 242 345 238 343 c 2,68,69
 229 335 229 335 216.5 335 c 128,-1,70
 204 335 204 335 197 343 c 0,71,72
 195 346 195 346 192 350 c 0,73,74
 190 353 190 353 187 356.5 c 128,-1,75
 184 360 184 360 182 363 c 1,76,77
 175 358 175 358 167 348 c 128,-1,78
 159 338 159 338 152 325 c 1,79,80
 162 328 162 328 172 328 c 0,0,1
128 269 m 256,81,82
 125 255 125 255 132 246 c 128,-1,83
 139 237 139 237 153 237 c 256,84,85
 167 237 167 237 178 246 c 128,-1,86
 189 255 189 255 192 269 c 256,87,88
 195 283 195 283 187.5 292 c 128,-1,89
 180 301 180 301 166 301 c 256,90,91
 152 301 152 301 141.5 292 c 128,-1,92
 131 283 131 283 128 269 c 256,81,82
EndSplineSet
EndChar
StartChar: uni0E04
Encoding: 3588 3588 215
Width: 458
Flags: W
Fore
313 403 m 0,0,1
 343 403 343 403 371 393.5 c 128,-1,2
 399 384 399 384 420 367 c 128,-1,3
 441 350 441 350 451 325 c 128,-1,4
 461 300 461 300 455 269 c 2,5,-1
 406 38 l 2,6,7
 401 19 401 19 380.5 6.5 c 128,-1,8
 360 -6 360 -6 334 -6 c 1,9,-1
 393 269 l 2,10,11
 397 288 397 288 392 305 c 128,-1,12
 387 322 387 322 375 335.5 c 128,-1,13
 363 349 363 349 345 357 c 128,-1,14
 327 365 327 365 305 365 c 256,15,16
 283 365 283 365 261.5 357 c 128,-1,17
 240 349 240 349 222.5 335.5 c 128,-1,18
 205 322 205 322 193 305 c 128,-1,19
 181 288 181 288 177 269 c 2,20,-1
 149 141 l 1,21,-1
 216 261 l 2,22,23
 227 278 227 278 247 289 c 128,-1,24
 267 300 267 300 291 300 c 0,25,26
 320 300 320 300 338.5 281 c 128,-1,27
 357 262 357 262 352 236 c 0,28,29
 346 210 346 210 319.5 191.5 c 128,-1,30
 293 173 293 173 264 173 c 0,31,32
 240 173 240 173 227 182 c 1,33,-1
 117 -6 l 1,34,35
 91 -6 91 -6 76 6.5 c 128,-1,36
 61 19 61 19 66 38 c 2,37,-1
 115 269 l 2,38,39
 121 299 121 299 141.5 323.5 c 128,-1,40
 162 348 162 348 189.5 366 c 128,-1,41
 217 384 217 384 249.5 393.5 c 128,-1,42
 282 403 282 403 313 403 c 0,0,1
246 236 m 0,43,44
 243 222 243 222 250 213 c 128,-1,45
 257 204 257 204 271 204 c 256,46,47
 285 204 285 204 296 213 c 128,-1,48
 307 222 307 222 310 236 c 0,49,50
 312 250 312 250 305 259 c 128,-1,51
 298 268 298 268 284 268 c 256,52,53
 270 268 270 268 259 259 c 128,-1,54
 248 250 248 250 246 236 c 0,43,44
EndSplineSet
EndChar
StartChar: uni0E05
Encoding: 3589 3589 216
Width: 458
Flags: W
Fore
149 138 m 1,0,-1
 214 252 l 2,1,2
 225 269 225 269 245 280 c 128,-1,3
 265 291 265 291 289 291 c 0,4,5
 320 291 320 291 337.5 272 c 128,-1,6
 355 253 355 253 350 227 c 0,7,8
 344 201 344 201 318.5 182.5 c 128,-1,9
 293 164 293 164 262 164 c 0,10,11
 238 164 238 164 225 173 c 1,12,-1
 117 -6 l 1,13,14
 91 -6 91 -6 76 6.5 c 128,-1,15
 61 19 61 19 66 38 c 2,16,-1
 119 288 l 2,17,18
 125 315 125 315 140.5 336.5 c 128,-1,19
 156 358 156 358 176 373 c 128,-1,20
 196 388 196 388 217.5 395.5 c 128,-1,21
 239 403 239 403 256 403 c 0,22,23
 268 403 268 403 273 397 c 0,24,25
 279 391 279 391 285 387 c 2,26,27
 290 382 290 382 295.5 378 c 128,-1,28
 301 374 301 374 306 369 c 1,29,30
 313 374 313 374 321 378.5 c 128,-1,31
 329 383 329 383 336 388 c 2,32,-1
 351 398 l 2,33,34
 357 403 357 403 371 403 c 0,35,36
 388 403 388 403 406 395.5 c 128,-1,37
 424 388 424 388 437.5 373 c 128,-1,38
 451 358 451 358 458 336.5 c 128,-1,39
 465 315 465 315 459 288 c 2,40,-1
 406 38 l 2,41,42
 401 19 401 19 380.5 6.5 c 128,-1,43
 360 -6 360 -6 334 -6 c 1,44,-1
 397 288 l 2,45,46
 403 318 403 318 394 337.5 c 128,-1,47
 385 357 385 357 373 362 c 1,48,49
 367 358 367 358 358 351.5 c 128,-1,50
 349 345 349 345 340 339 c 128,-1,51
 331 333 331 333 324 328.5 c 128,-1,52
 317 324 317 324 315 323 c 1,53,-1
 316 323 l 1,54,55
 305 315 305 315 294.5 315 c 128,-1,56
 284 315 284 315 276 323 c 0,57,58
 267 331 267 331 259 339 c 2,59,-1
 236 362 l 1,60,61
 222 357 222 357 204.5 337.5 c 128,-1,62
 187 318 187 318 181 288 c 2,63,-1
 149 138 l 1,0,-1
244 227 m 256,64,65
 241 213 241 213 248 204 c 128,-1,66
 255 195 255 195 269 195 c 256,67,68
 283 195 283 195 294 204 c 128,-1,69
 305 213 305 213 308 227 c 256,70,71
 311 241 311 241 304 250 c 128,-1,72
 297 259 297 259 283 259 c 256,73,74
 269 259 269 259 258 250 c 128,-1,75
 247 241 247 241 244 227 c 256,64,65
EndSplineSet
EndChar
StartChar: uni0E06
Encoding: 3590 3590 217
Width: 479
Flags: W
Fore
182 363 m 1,0,1
 175 358 175 358 167 348 c 128,-1,2
 159 338 159 338 152 325 c 1,3,4
 162 328 162 328 172 328 c 0,5,6
 203 328 203 328 221 311.5 c 128,-1,7
 239 295 239 295 234 269 c 0,8,9
 228 243 228 243 202.5 224 c 128,-1,10
 177 205 177 205 146 205 c 0,11,12
 109 205 109 205 92 230.5 c 128,-1,13
 75 256 75 256 82 290 c 0,14,15
 86 308 86 308 96.5 327.5 c 128,-1,16
 107 347 107 347 121 364 c 0,17,18
 136 382 136 382 156 392.5 c 128,-1,19
 176 403 176 403 199 403 c 0,20,21
 209 403 209 403 215.5 397.5 c 128,-1,22
 222 392 222 392 227 387 c 1,23,24
 233 392 233 392 241.5 397.5 c 128,-1,25
 250 403 250 403 262 403 c 0,26,27
 283 403 283 403 298 393 c 128,-1,28
 313 383 313 383 321 367 c 128,-1,29
 329 351 329 351 330.5 331 c 128,-1,30
 332 311 332 311 328 290 c 0,31,32
 324 272 324 272 308.5 252 c 128,-1,33
 293 232 293 232 273 212 c 0,34,35
 253 193 253 193 235 168.5 c 128,-1,36
 217 144 217 144 211 115 c 0,37,38
 210 112 210 112 209.5 109.5 c 128,-1,39
 209 107 209 107 210 104 c 1,40,-1
 366 44 l 1,41,-1
 433 358 l 2,42,43
 437 376 437 376 457.5 389 c 128,-1,44
 478 402 478 402 504 402 c 1,45,-1
 427 38 l 2,46,47
 422 19 422 19 404 6.5 c 128,-1,48
 386 -6 386 -6 363 -6 c 1,49,-1
 200 57 l 1,50,51
 192 30 192 30 167 12 c 128,-1,52
 142 -6 142 -6 111 -6 c 0,53,54
 79 -6 79 -6 61.5 13 c 128,-1,55
 44 32 44 32 50 60 c 0,56,57
 56 86 56 86 81.5 105.5 c 128,-1,58
 107 125 107 125 139 125 c 0,59,60
 147 125 147 125 152 124 c 1,61,62
 162 154 162 154 185 182 c 128,-1,63
 208 210 208 210 234 238 c 0,64,65
 260 263 260 263 266 290 c 0,66,67
 270 309 270 309 269 330.5 c 128,-1,68
 268 352 268 352 262 362 c 1,69,70
 258 359 258 359 254 355.5 c 128,-1,71
 250 352 250 352 247 349 c 0,72,73
 243 345 243 345 239 343 c 2,74,75
 229 335 229 335 216.5 335 c 128,-1,76
 204 335 204 335 197 343 c 0,77,78
 195 346 195 346 192 350 c 0,79,80
 190 353 190 353 187 356.5 c 128,-1,81
 184 360 184 360 182 363 c 1,0,1
128 269 m 256,82,83
 125 255 125 255 132 246 c 128,-1,84
 139 237 139 237 153 237 c 256,85,86
 167 237 167 237 178 246 c 128,-1,87
 189 255 189 255 192 269 c 256,88,89
 195 283 195 283 187.5 292 c 128,-1,90
 180 301 180 301 166 301 c 256,91,92
 152 301 152 301 141.5 292 c 128,-1,93
 131 283 131 283 128 269 c 256,82,83
93 60 m 256,94,95
 90 46 90 46 97 37 c 128,-1,96
 104 28 104 28 118 28 c 256,97,98
 132 28 132 28 143 37 c 128,-1,99
 154 46 154 46 157 60 c 256,100,101
 160 74 160 74 153 83 c 128,-1,102
 146 92 146 92 132 92 c 256,103,104
 118 92 118 92 107 83 c 128,-1,105
 96 74 96 74 93 60 c 256,94,95
EndSplineSet
EndChar
StartChar: uni0E07
Encoding: 3591 3591 218
Width: 382
Flags: W
Fore
334 403 m 0,0,1
 364 403 364 403 381.5 384 c 128,-1,2
 399 365 399 365 394 339 c 2,3,-1
 330 38 l 2,4,5
 325 19 325 19 305.5 6.5 c 128,-1,6
 286 -6 286 -6 263 -6 c 1,7,8
 199 85 199 85 165 135 c 128,-1,9
 131 185 131 185 115 208 c 0,10,11
 97 235 97 235 93 239 c 1,12,-1
 94 239 l 1,13,14
 86 250 86 250 91.5 268 c 128,-1,15
 97 286 97 286 117 302 c 1,16,-1
 276 71 l 1,17,-1
 319 277 l 1,18,-1
 307 277 l 2,19,20
 276 277 276 277 258.5 295 c 128,-1,21
 241 313 241 313 247 339 c 0,22,23
 250 352 250 352 258 363.5 c 128,-1,24
 266 375 266 375 278 384 c 128,-1,25
 290 393 290 393 304.5 398 c 128,-1,26
 319 403 319 403 334 403 c 0,0,1
289 339 m 0,27,28
 286 325 286 325 293 316 c 128,-1,29
 300 307 300 307 314 307 c 256,30,31
 328 307 328 307 339 316 c 128,-1,32
 350 325 350 325 353 339 c 0,33,34
 355 353 355 353 348 362 c 128,-1,35
 341 371 341 371 327 371 c 256,36,37
 313 371 313 371 302 362 c 128,-1,38
 291 353 291 353 289 339 c 0,27,28
EndSplineSet
EndChar
StartChar: uni0E08
Encoding: 3592 3592 219
Width: 410
Flags: W
Fore
263 180 m 1,0,1
 246 174 246 174 225 174 c 0,2,3
 195 174 195 174 177.5 192.5 c 128,-1,4
 160 211 160 211 166 237 c 0,5,6
 169 250 169 250 177 261.5 c 128,-1,7
 185 273 185 273 196.5 282 c 128,-1,8
 208 291 208 291 222.5 296 c 128,-1,9
 237 301 237 301 252 301 c 0,10,11
 278 301 278 301 294 288 c 128,-1,12
 310 275 310 275 313 256 c 2,13,-1
 320 153 l 1,14,-1
 345 269 l 2,15,16
 349 288 349 288 345 305.5 c 128,-1,17
 341 323 341 323 329.5 336 c 128,-1,18
 318 349 318 349 301 357 c 128,-1,19
 284 365 284 365 262 365 c 0,20,21
 241 365 241 365 220.5 357 c 128,-1,22
 200 349 200 349 183.5 336 c 128,-1,23
 167 323 167 323 155 305.5 c 128,-1,24
 143 288 143 288 139 269 c 0,25,26
 137 262 137 262 136.5 258 c 128,-1,27
 136 254 136 254 135 248 c 1,28,29
 110 248 110 248 93.5 259.5 c 128,-1,30
 77 271 77 271 83 288 c 0,31,32
 92 312 92 312 111 333 c 128,-1,33
 130 354 130 354 154.5 369.5 c 128,-1,34
 179 385 179 385 208.5 394 c 128,-1,35
 238 403 238 403 270 403 c 0,36,37
 305 403 305 403 333 392.5 c 128,-1,38
 361 382 361 382 379 364 c 128,-1,39
 397 346 397 346 405 321.5 c 128,-1,40
 413 297 413 297 407 269 c 2,41,-1
 358 38 l 2,42,43
 353 20 353 20 333 7 c 128,-1,44
 313 -6 313 -6 287 -6 c 1,45,-1
 263 180 l 1,0,1
207 237 m 256,46,47
 204 223 204 223 211 214 c 128,-1,48
 218 205 218 205 232 205 c 256,49,50
 246 205 246 205 257 214 c 128,-1,51
 268 223 268 223 271 237 c 256,52,53
 274 251 274 251 267 260 c 128,-1,54
 260 269 260 269 246 269 c 256,55,56
 232 269 232 269 221 260 c 128,-1,57
 210 251 210 251 207 237 c 256,46,47
EndSplineSet
EndChar
StartChar: uni0E09
Encoding: 3593 3593 220
Width: 435
Flags: W
Fore
149 122 m 1,0,-1
 137 122 l 2,1,2
 106 122 106 122 89.5 141 c 128,-1,3
 73 160 73 160 78 186 c 256,4,5
 83 212 83 212 108 230.5 c 128,-1,6
 133 249 133 249 164 249 c 256,7,8
 195 249 195 249 212 230.5 c 128,-1,9
 229 212 229 212 224 186 c 2,10,-1
 195 51 l 1,11,-1
 299 107 l 2,12,13
 310 113 310 113 319 124 c 128,-1,14
 328 135 328 135 330 146 c 2,15,-1
 356 269 l 2,16,17
 360 288 360 288 354.5 305 c 128,-1,18
 349 322 349 322 337 335.5 c 128,-1,19
 325 349 325 349 307 357 c 128,-1,20
 289 365 289 365 267 365 c 256,21,22
 245 365 245 365 223.5 357 c 128,-1,23
 202 349 202 349 184.5 335.5 c 128,-1,24
 167 322 167 322 154.5 304 c 128,-1,25
 142 286 142 286 138 267 c 1,26,27
 109 265 109 265 96 279.5 c 128,-1,28
 83 294 83 294 95 312 c 0,29,30
 108 333 108 333 128.5 350 c 128,-1,31
 149 367 149 367 173 379 c 128,-1,32
 197 391 197 391 223.5 397 c 128,-1,33
 250 403 250 403 275 403 c 0,34,35
 304 403 304 403 332.5 394 c 128,-1,36
 361 385 361 385 382 367.5 c 128,-1,37
 403 350 403 350 413.5 325 c 128,-1,38
 424 300 424 300 417 269 c 2,39,-1
 391 146 l 2,40,41
 388 135 388 135 379 121 c 1,42,43
 399 114 399 114 410.5 97 c 128,-1,44
 422 80 422 80 417 60 c 0,45,46
 411 32 411 32 385 13 c 128,-1,47
 359 -6 359 -6 327 -6 c 0,48,49
 301 -6 301 -6 283.5 7 c 128,-1,50
 266 20 266 20 264 41 c 1,51,-1
 177 -6 l 1,52,53
 154 -6 154 -6 140.5 7 c 128,-1,54
 127 20 127 20 132 38 c 2,55,-1
 149 122 l 1,0,-1
119 186 m 256,56,57
 116 172 116 172 123 163 c 128,-1,58
 130 154 130 154 144 154 c 256,59,60
 158 154 158 154 169 163 c 128,-1,61
 180 172 180 172 183 186 c 256,62,63
 186 200 186 200 179 209 c 128,-1,64
 172 218 172 218 158 218 c 256,65,66
 144 218 144 218 133 209 c 128,-1,67
 122 200 122 200 119 186 c 256,56,57
307 60 m 256,68,69
 304 46 304 46 312 36 c 128,-1,70
 320 26 320 26 334 26 c 256,71,72
 348 26 348 26 360 36 c 128,-1,73
 372 46 372 46 375 60 c 256,74,75
 378 74 378 74 370 84 c 128,-1,76
 362 94 362 94 348 94 c 256,77,78
 334 94 334 94 322 84 c 128,-1,79
 310 74 310 74 307 60 c 256,68,69
EndSplineSet
EndChar
StartChar: uni0E0A
Encoding: 3594 3594 221
Width: 421
Flags: W
Fore
149 111 m 2,0,1
 157 146 157 146 181 176.5 c 128,-1,2
 205 207 205 207 234 238 c 0,3,4
 260 263 260 263 266 290 c 0,5,6
 272 319 272 319 259 342 c 128,-1,7
 246 365 246 365 221 365 c 0,8,9
 201 365 201 365 183 354 c 128,-1,10
 165 343 165 343 154 326 c 1,11,12
 159 327 159 327 163 327.5 c 128,-1,13
 167 328 167 328 172 328 c 0,14,15
 203 328 203 328 220.5 311.5 c 128,-1,16
 238 295 238 295 233 269 c 0,17,18
 227 243 227 243 202 224 c 128,-1,19
 177 205 177 205 146 205 c 0,20,21
 109 205 109 205 92 230.5 c 128,-1,22
 75 256 75 256 82 290 c 0,23,24
 87 313 87 313 101 333.5 c 128,-1,25
 115 354 115 354 134.5 369.5 c 128,-1,26
 154 385 154 385 178.5 394 c 128,-1,27
 203 403 203 403 229 403 c 0,28,29
 273 403 273 403 301 376.5 c 128,-1,30
 329 350 329 350 330 312 c 1,31,-1
 345 318 l 2,32,33
 354 321 354 321 363.5 329 c 128,-1,34
 373 337 373 337 380.5 348 c 128,-1,35
 388 359 388 359 394 371 c 128,-1,36
 400 383 400 383 402 394 c 2,37,38
 404 399 404 399 404 402.5 c 128,-1,39
 404 406 404 406 404 415 c 1,40,41
 429 415 429 415 446 403.5 c 128,-1,42
 463 392 463 392 457 376 c 0,43,44
 449 355 449 355 431.5 334 c 128,-1,45
 414 313 414 313 391 303 c 1,46,47
 406 289 406 289 409 267 c 128,-1,48
 412 245 412 245 407 217 c 2,49,-1
 380 92 l 2,50,51
 375 70 375 70 361.5 52 c 128,-1,52
 348 34 348 34 329 21 c 128,-1,53
 310 8 310 8 287 1 c 128,-1,54
 264 -6 264 -6 241 -6 c 256,55,56
 218 -6 218 -6 198.5 1 c 128,-1,57
 179 8 179 8 165.5 21 c 128,-1,58
 152 34 152 34 146 52 c 128,-1,59
 140 70 140 70 145 92 c 2,60,-1
 149 111 l 2,0,1
339 287 m 1,61,62
 331 289 331 289 328 291 c 1,63,-1
 328 290 l 1,64,65
 324 272 324 272 308.5 252 c 128,-1,66
 293 232 293 232 273 212 c 0,67,68
 251 192 251 192 234.5 167.5 c 128,-1,69
 218 143 218 143 210 111 c 2,70,-1
 206 92 l 2,71,72
 201 66 201 66 213.5 49 c 128,-1,73
 226 32 226 32 249 32 c 256,74,75
 272 32 272 32 292 48 c 128,-1,76
 312 64 312 64 318 92 c 2,77,-1
 345 217 l 2,78,79
 353 254 353 254 350.5 268.5 c 128,-1,80
 348 283 348 283 339 287 c 1,61,62
128 269 m 256,81,82
 125 255 125 255 132 246 c 128,-1,83
 139 237 139 237 153 237 c 256,84,85
 167 237 167 237 178 246 c 128,-1,86
 189 255 189 255 192 269 c 256,87,88
 195 283 195 283 187.5 292 c 128,-1,89
 180 301 180 301 166 301 c 256,90,91
 152 301 152 301 141.5 292 c 128,-1,92
 131 283 131 283 128 269 c 256,81,82
EndSplineSet
EndChar
StartChar: uni0E0B
Encoding: 3595 3595 222
Width: 421
Flags: W
Fore
149 111 m 2,0,1
 157 146 157 146 181 176.5 c 128,-1,2
 205 207 205 207 234 238 c 0,3,4
 260 263 260 263 266 290 c 0,5,6
 270 309 270 309 269 330.5 c 128,-1,7
 268 352 268 352 262 362 c 1,8,9
 258 359 258 359 254 355.5 c 128,-1,10
 250 352 250 352 247 349 c 0,11,12
 243 345 243 345 239 343 c 2,13,14
 229 335 229 335 216.5 335 c 128,-1,15
 204 335 204 335 197 343 c 0,16,17
 195 346 195 346 192 350 c 0,18,19
 190 353 190 353 187 356.5 c 128,-1,20
 184 360 184 360 182 363 c 1,21,22
 175 358 175 358 167 348 c 128,-1,23
 159 338 159 338 152 325 c 1,24,25
 162 328 162 328 172 328 c 0,26,27
 203 328 203 328 220.5 311.5 c 128,-1,28
 238 295 238 295 233 269 c 0,29,30
 227 243 227 243 202 224 c 128,-1,31
 177 205 177 205 146 205 c 0,32,33
 109 205 109 205 92 230.5 c 128,-1,34
 75 256 75 256 82 290 c 0,35,36
 86 308 86 308 96 327.5 c 128,-1,37
 106 347 106 347 120 364 c 0,38,39
 136 382 136 382 156 392.5 c 128,-1,40
 176 403 176 403 199 403 c 0,41,42
 209 403 209 403 215.5 397.5 c 128,-1,43
 222 392 222 392 227 387 c 1,44,45
 233 392 233 392 241.5 397.5 c 128,-1,46
 250 403 250 403 262 403 c 0,47,48
 299 403 299 403 316 375.5 c 128,-1,49
 333 348 333 348 331 312 c 1,50,51
 333 314 333 314 337 315 c 128,-1,52
 341 316 341 316 345 318 c 0,53,54
 354 321 354 321 363.5 329 c 128,-1,55
 373 337 373 337 380.5 348 c 128,-1,56
 388 359 388 359 394 371 c 128,-1,57
 400 383 400 383 402 394 c 2,58,59
 404 399 404 399 404 402.5 c 128,-1,60
 404 406 404 406 404 415 c 1,61,62
 429 415 429 415 446 403.5 c 128,-1,63
 463 392 463 392 457 376 c 0,64,65
 449 355 449 355 431.5 334 c 128,-1,66
 414 313 414 313 391 303 c 1,67,68
 406 289 406 289 409 267 c 128,-1,69
 412 245 412 245 407 217 c 2,70,-1
 380 92 l 2,71,72
 375 70 375 70 361.5 52 c 128,-1,73
 348 34 348 34 329 21 c 128,-1,74
 310 8 310 8 287 1 c 128,-1,75
 264 -6 264 -6 241 -6 c 256,76,77
 218 -6 218 -6 198.5 1 c 128,-1,78
 179 8 179 8 165.5 21 c 128,-1,79
 152 34 152 34 146 52 c 128,-1,80
 140 70 140 70 145 92 c 2,81,-1
 149 111 l 2,0,1
339 287 m 1,82,83
 331 289 331 289 328 291 c 1,84,-1
 328 290 l 1,85,86
 324 272 324 272 308.5 252 c 128,-1,87
 293 232 293 232 273 212 c 0,88,89
 251 192 251 192 234.5 167.5 c 128,-1,90
 218 143 218 143 210 111 c 2,91,-1
 206 92 l 2,92,93
 201 66 201 66 213.5 49 c 128,-1,94
 226 32 226 32 249 32 c 256,95,96
 272 32 272 32 292 48 c 128,-1,97
 312 64 312 64 318 92 c 2,98,-1
 345 217 l 2,99,100
 353 254 353 254 350.5 268.5 c 128,-1,101
 348 283 348 283 339 287 c 1,82,83
128 269 m 256,102,103
 125 255 125 255 132 246 c 128,-1,104
 139 237 139 237 153 237 c 256,105,106
 167 237 167 237 178 246 c 128,-1,107
 189 255 189 255 192 269 c 256,108,109
 195 283 195 283 187.5 292 c 128,-1,110
 180 301 180 301 166 301 c 256,111,112
 152 301 152 301 141.5 292 c 128,-1,113
 131 283 131 283 128 269 c 256,102,103
EndSplineSet
EndChar
StartChar: uni0E0C
Encoding: 3596 3596 223
Width: 623
Flags: W
Fore
163 120 m 1,0,1
 166 121 166 121 175 121 c 0,2,3
 206 121 206 121 223 102.5 c 128,-1,4
 240 84 240 84 235 58 c 0,5,6
 229 32 229 32 204 13 c 128,-1,7
 179 -6 179 -6 148 -6 c 256,8,9
 117 -6 117 -6 100 13 c 128,-1,10
 83 32 83 32 89 58 c 2,11,-1
 118 193 l 1,12,13
 117 195 117 195 114 205.5 c 128,-1,14
 111 216 111 216 107 228 c 0,15,16
 103 242 103 242 97 259 c 1,17,18
 93 266 93 266 96 269 c 1,19,20
 102 299 102 299 122 323.5 c 128,-1,21
 142 348 142 348 170 366 c 128,-1,22
 198 384 198 384 230.5 393.5 c 128,-1,23
 263 403 263 403 294 403 c 0,24,25
 324 403 324 403 352.5 394 c 128,-1,26
 381 385 381 385 401.5 367.5 c 128,-1,27
 422 350 422 350 432 325 c 128,-1,28
 442 300 442 300 435 269 c 2,29,-1
 398 97 l 1,30,-1
 509 44 l 1,31,-1
 576 358 l 2,32,33
 580 376 580 376 600.5 389 c 128,-1,34
 621 402 621 402 647 402 c 1,35,-1
 570 38 l 2,36,37
 565 19 565 19 546.5 6.5 c 128,-1,38
 528 -6 528 -6 505 -6 c 1,39,-1
 388 49 l 1,40,41
 380 25 380 25 356 9.5 c 128,-1,42
 332 -6 332 -6 303 -6 c 0,43,44
 272 -6 272 -6 254.5 13 c 128,-1,45
 237 32 237 32 243 58 c 0,46,47
 248 84 248 84 273.5 102.5 c 128,-1,48
 299 121 299 121 330 121 c 0,49,50
 338 121 338 121 342 120 c 1,51,-1
 374 269 l 2,52,53
 378 288 378 288 372.5 305 c 128,-1,54
 367 322 367 322 355 335.5 c 128,-1,55
 343 349 343 349 325.5 357 c 128,-1,56
 308 365 308 365 286 365 c 256,57,58
 264 365 264 365 243 357.5 c 128,-1,59
 222 350 222 350 205 337.5 c 128,-1,60
 188 325 188 325 175.5 308.5 c 128,-1,61
 163 292 163 292 158 274 c 1,62,63
 158 271 158 271 161.5 260.5 c 128,-1,64
 165 250 165 250 169 238 c 0,65,66
 173 224 173 224 179 208 c 1,67,-1
 180 198 l 1,68,-1
 163 120 l 1,0,1
130 58 m 256,69,70
 127 44 127 44 134 35 c 128,-1,71
 141 26 141 26 155 26 c 256,72,73
 169 26 169 26 180 35 c 128,-1,74
 191 44 191 44 194 58 c 256,75,76
 197 72 197 72 190 81 c 128,-1,77
 183 90 183 90 169 90 c 256,78,79
 155 90 155 90 144 81 c 128,-1,80
 133 72 133 72 130 58 c 256,69,70
285 58 m 256,81,82
 282 44 282 44 289 35 c 128,-1,83
 296 26 296 26 310 26 c 256,84,85
 324 26 324 26 335 35 c 128,-1,86
 346 44 346 44 349 58 c 256,87,88
 352 72 352 72 345 81 c 128,-1,89
 338 90 338 90 324 90 c 256,90,91
 310 90 310 90 299 81 c 128,-1,92
 288 72 288 72 285 58 c 256,81,82
EndSplineSet
EndChar
StartChar: uni0E0D
Encoding: 3597 3597 224
Width: 603
Flags: W
Fore
175 121 m 0,0,1
 206 121 206 121 223 102.5 c 128,-1,2
 240 84 240 84 235 58 c 0,3,4
 229 32 229 32 204 13 c 128,-1,5
 179 -6 179 -6 148 -6 c 256,6,7
 117 -6 117 -6 100 13 c 128,-1,8
 83 32 83 32 89 58 c 2,9,-1
 118 193 l 1,10,11
 117 195 117 195 114 205.5 c 128,-1,12
 111 216 111 216 107 228 c 0,13,14
 103 242 103 242 97 259 c 1,15,16
 93 266 93 266 96 269 c 1,17,18
 102 297 102 297 119 321.5 c 128,-1,19
 136 346 136 346 161.5 364 c 128,-1,20
 187 382 187 382 218 392.5 c 128,-1,21
 249 403 249 403 284 403 c 0,22,23
 318 403 318 403 345 392.5 c 128,-1,24
 372 382 372 382 390 364 c 128,-1,25
 408 346 408 346 415 321.5 c 128,-1,26
 422 297 422 297 416 269 c 2,27,-1
 378 92 l 2,28,29
 373 68 373 68 387 52 c 128,-1,30
 401 36 401 36 427 36 c 256,31,32
 453 36 453 36 473.5 52 c 128,-1,33
 494 68 494 68 499 92 c 2,34,-1
 556 358 l 2,35,36
 560 376 560 376 580.5 389 c 128,-1,37
 601 402 601 402 627 402 c 1,38,-1
 561 92 l 2,39,40
 556 70 556 70 542 52 c 128,-1,41
 528 34 528 34 508 21 c 128,-1,42
 488 8 488 8 464.5 1 c 128,-1,43
 441 -6 441 -6 418 -6 c 256,44,45
 395 -6 395 -6 375 0.5 c 128,-1,46
 355 7 355 7 340.5 20 c 128,-1,47
 326 33 326 33 319 51 c 128,-1,48
 312 69 312 69 317 92 c 2,49,-1
 355 269 l 2,50,51
 359 290 359 290 354.5 307.5 c 128,-1,52
 350 325 350 325 339 338 c 128,-1,53
 328 351 328 351 311.5 358 c 128,-1,54
 295 365 295 365 276 365 c 0,55,56
 240 365 240 365 206 341 c 128,-1,57
 172 317 172 317 158 274 c 1,58,59
 158 271 158 271 161.5 260.5 c 128,-1,60
 165 250 165 250 169 238 c 0,61,62
 173 224 173 224 179 208 c 1,63,-1
 180 198 l 1,64,-1
 163 120 l 1,65,66
 166 121 166 121 175 121 c 0,0,1
426 -83 m 0,67,68
 422 -101 422 -101 407 -114.5 c 128,-1,69
 392 -128 392 -128 372 -134 c 1,70,71
 382 -139 382 -139 388 -139 c 0,72,73
 405 -139 405 -139 419 -128.5 c 128,-1,74
 433 -118 433 -118 443 -101.5 c 128,-1,75
 453 -85 453 -85 458.5 -65 c 128,-1,76
 464 -45 464 -45 463 -26 c 1,77,78
 492 -26 492 -26 507.5 -36.5 c 128,-1,79
 523 -47 523 -47 519 -63 c 0,80,81
 514 -84 514 -84 501.5 -104.5 c 128,-1,82
 489 -125 489 -125 470.5 -141 c 128,-1,83
 452 -157 452 -157 429 -167 c 128,-1,84
 406 -177 406 -177 380 -177 c 0,85,86
 359 -177 359 -177 340.5 -170 c 128,-1,87
 322 -163 322 -163 309 -150.5 c 128,-1,88
 296 -138 296 -138 290 -120.5 c 128,-1,89
 284 -103 284 -103 289 -83 c 0,90,91
 294 -60 294 -60 317 -42.5 c 128,-1,92
 340 -25 340 -25 369 -25 c 256,93,94
 398 -25 398 -25 414.5 -42.5 c 128,-1,95
 431 -60 431 -60 426 -83 c 0,67,68
130 58 m 256,96,97
 127 44 127 44 134 35 c 128,-1,98
 141 26 141 26 155 26 c 256,99,100
 169 26 169 26 180 35 c 128,-1,101
 191 44 191 44 194 58 c 256,102,103
 197 72 197 72 190 81 c 128,-1,104
 183 90 183 90 169 90 c 256,105,106
 155 90 155 90 144 81 c 128,-1,107
 133 72 133 72 130 58 c 256,96,97
328 -83 m 0,108,109
 325 -95 325 -95 332 -103.5 c 128,-1,110
 339 -112 339 -112 351 -112 c 256,111,112
 363 -112 363 -112 373 -103.5 c 128,-1,113
 383 -95 383 -95 386 -83 c 0,114,115
 388 -71 388 -71 381.5 -62.5 c 128,-1,116
 375 -54 375 -54 363 -54 c 256,117,118
 351 -54 351 -54 340.5 -62.5 c 128,-1,119
 330 -71 330 -71 328 -83 c 0,108,109
EndSplineSet
Substitution: 0 65534 'L026' uni0E0D.alt1
Substitution: 0 65534 'L026' uni0E0D.alt1
EndChar
StartChar: uni0E0E
Encoding: 3598 3598 225
AltUni: 63259
Width: 457
Flags: W
Fore
82 58 m 256,0,1
 79 44 79 44 86 35 c 128,-1,2
 93 26 93 26 107 26 c 256,3,4
 121 26 121 26 132 35 c 128,-1,5
 143 44 143 44 146 58 c 256,6,7
 149 72 149 72 142 81 c 128,-1,8
 135 90 135 90 121 90 c 256,9,10
 107 90 107 90 96 81 c 128,-1,11
 85 72 85 72 82 58 c 256,0,1
154 -94 m 0,12,13
 147 -95 147 -95 135.5 -100.5 c 128,-1,14
 124 -106 124 -106 121 -120 c 0,15,16
 119 -131 119 -131 127 -137.5 c 128,-1,17
 135 -144 135 -144 143 -145 c 0,18,19
 153 -146 153 -146 168.5 -136.5 c 128,-1,20
 184 -127 184 -127 198 -109 c 1,21,22
 185 -98 185 -98 174.5 -95 c 128,-1,23
 164 -92 164 -92 154 -94 c 0,12,13
127 121 m 0,24,25
 135 121 135 121 139 120 c 1,26,-1
 154 191 l 1,27,28
 152 194 152 194 146 205.5 c 128,-1,29
 140 217 140 217 132 230 c 0,30,31
 123 245 123 245 112 263 c 1,32,33
 112 267 112 267 113 269 c 2,34,35
 119 299 119 299 139.5 324 c 128,-1,36
 160 349 160 349 187.5 366.5 c 128,-1,37
 215 384 215 384 247.5 393.5 c 128,-1,38
 280 403 280 403 311 403 c 0,39,40
 341 403 341 403 369.5 394 c 128,-1,41
 398 385 398 385 419 367.5 c 128,-1,42
 440 350 440 350 450 325 c 128,-1,43
 460 300 460 300 453 269 c 2,44,-1
 380 -72 l 2,45,46
 378 -78 378 -78 373.5 -86 c 128,-1,47
 369 -94 369 -94 362 -99 c 0,48,49
 340 -117 340 -117 316.5 -136.5 c 128,-1,50
 293 -156 293 -156 272 -173 c 0,51,52
 267 -177 267 -177 260 -178 c 128,-1,53
 253 -179 253 -179 248 -178 c 0,54,55
 242 -177 242 -177 236.5 -174 c 128,-1,56
 231 -171 231 -171 230 -166 c 0,57,58
 228 -153 228 -153 223 -142 c 1,59,60
 178 -181 178 -181 128 -178 c 0,61,62
 97 -176 97 -176 82 -160.5 c 128,-1,63
 67 -145 67 -145 72 -120 c 0,64,65
 77 -96 77 -96 98 -80.5 c 128,-1,66
 119 -65 119 -65 151 -60 c 0,67,68
 190 -55 190 -55 226 -74 c 1,69,70
 237 -59 237 -59 254 -28 c 1,71,72
 274 -36 274 -36 282.5 -49.5 c 128,-1,73
 291 -63 291 -63 282 -75 c 0,74,75
 275 -83 275 -83 270 -89.5 c 128,-1,76
 265 -96 265 -96 260 -103 c 1,77,78
 268 -113 l 128,-1,79
 272 -118 272 -118 274 -126 c 1,80,-1
 314 -94 l 1,81,-1
 391 269 l 2,82,83
 395 288 395 288 390 305 c 128,-1,84
 385 322 385 322 373 335.5 c 128,-1,85
 361 349 361 349 343 357 c 128,-1,86
 325 365 325 365 303 365 c 0,87,88
 282 365 282 365 261 357.5 c 128,-1,89
 240 350 240 350 223 337.5 c 128,-1,90
 206 325 206 325 193.5 308.5 c 128,-1,91
 181 292 181 292 176 274 c 1,92,93
 177 271 177 271 182.5 260.5 c 128,-1,94
 188 250 188 250 195 239 c 0,95,96
 203 226 203 226 212 210 c 0,97,98
 217 201 217 201 216 197 c 2,99,-1
 187 58 l 2,100,101
 181 32 181 32 156 13 c 128,-1,102
 131 -6 131 -6 100 -6 c 256,103,104
 69 -6 69 -6 52 13 c 128,-1,105
 35 32 35 32 41 58 c 0,106,107
 46 84 46 84 71 102.5 c 128,-1,108
 96 121 96 121 127 121 c 0,24,25
EndSplineSet
Substitution: 0 65534 'L026' uni0E0E.alt1
Substitution: 0 65534 'L026' uni0E0E.alt1
EndChar
StartChar: uni0E0F
Encoding: 3599 3599 226
AltUni: 63260
Width: 456
Flags: W
Fore
81 58 m 256,0,1
 78 44 78 44 85 35 c 128,-1,2
 92 26 92 26 106 26 c 256,3,4
 120 26 120 26 131 35 c 128,-1,5
 142 44 142 44 145 58 c 256,6,7
 148 72 148 72 141 81 c 128,-1,8
 134 90 134 90 120 90 c 256,9,10
 106 90 106 90 95 81 c 128,-1,11
 84 72 84 72 81 58 c 256,0,1
127 121 m 0,12,13
 135 121 135 121 139 120 c 1,14,-1
 154 191 l 1,15,-1
 112 263 l 1,16,17
 112 266 112 266 113 269 c 0,18,19
 119 299 119 299 139.5 324 c 128,-1,20
 160 349 160 349 187.5 366.5 c 128,-1,21
 215 384 215 384 247.5 393.5 c 128,-1,22
 280 403 280 403 311 403 c 0,23,24
 341 403 341 403 369.5 394 c 128,-1,25
 398 385 398 385 419 367.5 c 128,-1,26
 440 350 440 350 450 325 c 128,-1,27
 460 300 460 300 453 269 c 2,28,-1
 373 -105 l 2,29,30
 372 -109 372 -109 367 -116 c 128,-1,31
 362 -123 362 -123 355 -128 c 2,32,-1
 300 -173 l 2,33,34
 289 -181 289 -181 278 -181 c 128,-1,35
 267 -181 267 -181 262 -173 c 2,36,-1
 241 -146 l 1,37,-1
 208 -173 l 2,38,39
 203 -177 203 -177 196.5 -178 c 128,-1,40
 190 -179 190 -179 183 -178 c 0,41,42
 175 -177 175 -177 170 -173 c 128,-1,43
 165 -169 165 -169 164 -165 c 0,44,45
 163 -159 163 -159 161.5 -153 c 128,-1,46
 160 -147 160 -147 158 -142 c 1,47,48
 114 -181 114 -181 63 -178 c 0,49,50
 32 -176 32 -176 17.5 -160.5 c 128,-1,51
 3 -145 3 -145 8 -120 c 0,52,53
 13 -96 13 -96 33.5 -80.5 c 128,-1,54
 54 -65 54 -65 86 -60 c 0,55,56
 127 -55 127 -55 160 -74 c 1,57,58
 168 -65 168 -65 174.5 -54.5 c 128,-1,59
 181 -44 181 -44 189 -29 c 1,60,61
 209 -36 209 -36 217 -50 c 128,-1,62
 225 -64 225 -64 217 -75 c 2,63,-1
 194 -104 l 1,64,65
 204 -114 204 -114 211 -128 c 1,66,-1
 234 -109 l 2,67,68
 256 -92 256 -92 271 -109 c 2,69,-1
 291 -134 l 1,70,-1
 308 -122 l 1,71,-1
 391 269 l 2,72,73
 395 288 395 288 390 305 c 128,-1,74
 385 322 385 322 373 335.5 c 128,-1,75
 361 349 361 349 343 357 c 128,-1,76
 325 365 325 365 303 365 c 0,77,78
 282 365 282 365 261 357.5 c 128,-1,79
 240 350 240 350 223 337.5 c 128,-1,80
 206 325 206 325 193.5 308.5 c 128,-1,81
 181 292 181 292 176 274 c 1,82,83
 178 271 178 271 183 260.5 c 128,-1,84
 188 250 188 250 195 239 c 0,85,86
 202 226 202 226 212 210 c 0,87,88
 217 201 217 201 216 197 c 2,89,-1
 187 58 l 2,90,91
 181 32 181 32 156 13 c 128,-1,92
 131 -6 131 -6 100 -6 c 256,93,94
 69 -6 69 -6 52 13 c 128,-1,95
 35 32 35 32 41 58 c 0,96,97
 46 84 46 84 71 102.5 c 128,-1,98
 96 121 96 121 127 121 c 0,12,13
78 -145 m 0,99,100
 89 -146 89 -146 104.5 -137.5 c 128,-1,101
 120 -129 120 -129 134 -109 c 1,102,103
 121 -98 121 -98 110.5 -95 c 128,-1,104
 100 -92 100 -92 90 -94 c 0,105,106
 82 -95 82 -95 70.5 -100.5 c 128,-1,107
 59 -106 59 -106 56 -120 c 0,108,109
 54 -131 54 -131 62 -137.5 c 128,-1,110
 70 -144 70 -144 78 -145 c 0,99,100
EndSplineSet
Substitution: 0 65534 'L026' uni0E0F.alt1
Substitution: 0 65534 'L026' uni0E0F.alt1
EndChar
StartChar: uni0E10
Encoding: 3600 3600 227
Width: 405
Flags: W
Fore
250 -128 m 1,0,-1
 239 -128 l 2,1,2
 213 -128 213 -128 197 -112 c 128,-1,3
 181 -96 181 -96 186 -73 c 0,4,5
 191 -51 191 -51 213 -35 c 128,-1,6
 235 -19 235 -19 262 -19 c 0,7,8
 288 -19 288 -19 304 -35 c 128,-1,9
 320 -51 320 -51 315 -73 c 2,10,-1
 302 -135 l 2,11,12
 300 -144 300 -144 288 -155 c 0,13,14
 286 -157 286 -157 279 -163 c 128,-1,15
 272 -169 272 -169 264 -176 c 0,16,17
 255 -184 255 -184 244 -193 c 0,18,19
 239 -198 239 -198 226 -198 c 0,20,21
 215 -198 215 -198 210 -193 c 1,22,-1
 196 -173 l 1,23,-1
 172 -193 l 2,24,25
 169 -196 169 -196 163.5 -197 c 128,-1,26
 158 -198 158 -198 153 -198 c 0,27,28
 145 -198 145 -198 140 -189 c 0,29,30
 135 -181 135 -181 135 -180.5 c 128,-1,31
 135 -180 135 -180 131 -173 c 1,32,33
 117 -184 117 -184 97.5 -191 c 128,-1,34
 78 -198 78 -198 59 -198 c 0,35,36
 33 -198 33 -198 19.5 -183.5 c 128,-1,37
 6 -169 6 -169 11 -149 c 0,38,39
 16 -126 16 -126 37 -112 c 128,-1,40
 58 -98 58 -98 84 -98 c 0,41,42
 100 -98 100 -98 112 -100 c 128,-1,43
 124 -102 124 -102 135 -108 c 1,44,45
 138 -102 138 -102 143 -92.5 c 128,-1,46
 148 -83 148 -83 155 -67 c 1,47,48
 175 -76 175 -76 178.5 -86.5 c 128,-1,49
 182 -97 182 -97 180 -108 c 0,50,51
 176 -121 176 -121 163 -136 c 1,52,-1
 179 -158 l 1,53,-1
 192 -146 l 2,54,55
 194 -144 194 -144 199 -142.5 c 128,-1,56
 204 -141 204 -141 212 -141 c 256,57,58
 220 -141 220 -141 222.5 -142.5 c 128,-1,59
 225 -144 225 -144 227 -146 c 2,60,-1
 239 -162 l 1,61,-1
 244 -157 l 1,62,-1
 250 -128 l 1,0,-1
66 -170 m 0,63,64
 74 -170 74 -170 87 -162 c 128,-1,65
 100 -154 100 -154 111 -139 c 1,66,67
 101 -131 101 -131 93 -129 c 128,-1,68
 85 -127 85 -127 78 -127 c 0,69,70
 73 -127 73 -127 63 -132 c 128,-1,71
 53 -137 53 -137 51 -149 c 0,72,73
 49 -158 49 -158 55 -164 c 128,-1,74
 61 -170 61 -170 66 -170 c 0,63,64
274 403 m 0,75,76
 309 403 309 403 335.5 391 c 128,-1,77
 362 379 362 379 378 360 c 1,78,-1
 410 403 l 1,79,80
 432 392 432 392 437.5 376.5 c 128,-1,81
 443 361 443 361 433 347 c 2,82,-1
 398 298 l 2,83,84
 382 276 382 276 365.5 278 c 128,-1,85
 349 280 349 280 345 298 c 0,86,87
 339 327 339 327 317 346 c 128,-1,88
 295 365 295 365 266 365 c 0,89,90
 236 365 236 365 208.5 344 c 128,-1,91
 181 323 181 323 166 297 c 1,92,-1
 349 250 l 2,93,94
 363 245 363 245 372.5 233 c 128,-1,95
 382 221 382 221 378 207 c 2,96,-1
 343 38 l 2,97,98
 338 19 338 19 318 6.5 c 128,-1,99
 298 -6 298 -6 274 -6 c 1,100,-1
 239 82 l 1,101,102
 216 68 216 68 189 68 c 0,103,104
 159 68 159 68 141.5 87 c 128,-1,105
 124 106 124 106 130 132 c 0,106,107
 133 145 133 145 141 156.5 c 128,-1,108
 149 168 149 168 160.5 176.5 c 128,-1,109
 172 185 172 185 186.5 190 c 128,-1,110
 201 195 201 195 216 195 c 0,111,112
 238 195 238 195 253.5 186 c 128,-1,113
 269 177 269 177 275 162 c 2,114,-1
 294 97 l 1,115,-1
 319 214 l 1,116,117
 268 227 268 227 218.5 240.5 c 128,-1,118
 169 254 169 254 118 267 c 0,119,120
 109 269 109 269 103.5 275 c 128,-1,121
 98 281 98 281 100 289 c 0,122,123
 108 313 108 313 125 334 c 128,-1,124
 142 355 142 355 165 370.5 c 128,-1,125
 188 386 188 386 216 394.5 c 128,-1,126
 244 403 244 403 274 403 c 0,75,76
171 132 m 0,127,128
 168 118 168 118 175 109 c 128,-1,129
 182 100 182 100 196 100 c 256,130,131
 210 100 210 100 221 109 c 128,-1,132
 232 118 232 118 235 132 c 0,133,134
 237 146 237 146 230 155 c 128,-1,135
 223 164 223 164 209 164 c 256,136,137
 195 164 195 164 184 155 c 128,-1,138
 173 146 173 146 171 132 c 0,127,128
226 -73 m 256,139,140
 224 -84 224 -84 229.5 -91 c 128,-1,141
 235 -98 235 -98 246 -98 c 256,142,143
 257 -98 257 -98 265.5 -91 c 128,-1,144
 274 -84 274 -84 276 -73 c 256,145,146
 278 -62 278 -62 272.5 -55 c 128,-1,147
 267 -48 267 -48 256 -48 c 256,148,149
 245 -48 245 -48 236.5 -55 c 128,-1,150
 228 -62 228 -62 226 -73 c 256,139,140
EndSplineSet
Substitution: 0 65534 'L026' uni0E10.alt1
Substitution: 0 65534 'L026' uni0E10.alt1
EndChar
StartChar: uni0E11
Encoding: 3601 3601 228
Width: 507
Flags: W
Fore
182 363 m 1,0,1
 175 358 175 358 167 348 c 128,-1,2
 159 338 159 338 152 325 c 1,3,4
 162 328 162 328 172 328 c 0,5,6
 203 328 203 328 221 311.5 c 128,-1,7
 239 295 239 295 234 269 c 0,8,9
 228 243 228 243 202.5 224 c 128,-1,10
 177 205 177 205 146 205 c 0,11,12
 110 205 110 205 92.5 230.5 c 128,-1,13
 75 256 75 256 82 290 c 0,14,15
 86 308 86 308 96.5 327.5 c 128,-1,16
 107 347 107 347 121 364 c 0,17,18
 136 382 136 382 156 392.5 c 128,-1,19
 176 403 176 403 199 403 c 0,20,21
 209 403 209 403 215.5 397.5 c 128,-1,22
 222 392 222 392 227 387 c 1,23,24
 233 392 233 392 241.5 397.5 c 128,-1,25
 250 403 250 403 263 403 c 0,26,27
 284 403 284 403 298.5 393 c 128,-1,28
 313 383 313 383 321 367 c 128,-1,29
 329 351 329 351 330.5 331 c 128,-1,30
 332 311 332 311 328 290 c 0,31,32
 324 272 324 272 308.5 252 c 128,-1,33
 293 232 293 232 273 212 c 0,34,35
 251 192 251 192 239.5 169 c 128,-1,36
 228 146 228 146 221 114 c 1,37,-1
 424 392 l 2,38,39
 428 397 428 397 436.5 400 c 128,-1,40
 445 403 445 403 454 403 c 0,41,42
 489 403 489 403 506 384.5 c 128,-1,43
 523 366 523 366 517 335 c 2,44,-1
 454 38 l 2,45,46
 449 19 449 19 429 6.5 c 128,-1,47
 409 -6 409 -6 383 -6 c 1,48,-1
 456 335 l 2,49,50
 457 341 457 341 458 345.5 c 128,-1,51
 459 350 459 350 457 354 c 1,52,53
 391 263 391 263 325 174 c 128,-1,54
 259 85 259 85 193 -6 c 1,55,56
 169 -6 169 -6 154 6.5 c 128,-1,57
 139 19 139 19 144 38 c 2,58,-1
 159 111 l 2,59,60
 167 146 167 146 185 176 c 128,-1,61
 203 206 203 206 235 238 c 0,62,63
 247 250 247 250 255 262.5 c 128,-1,64
 263 275 263 275 266 290 c 0,65,66
 270 309 270 309 269 330.5 c 128,-1,67
 268 352 268 352 262 362 c 1,68,69
 258 359 258 359 254.5 355.5 c 128,-1,70
 251 352 251 352 247 349 c 2,71,72
 243 345 243 345 239 343 c 2,73,74
 229 335 229 335 216.5 335 c 128,-1,75
 204 335 204 335 197 343 c 0,76,77
 195 346 195 346 192 350 c 0,78,79
 190 353 190 353 187 356.5 c 128,-1,80
 184 360 184 360 182 363 c 1,0,1
128 269 m 256,81,82
 125 255 125 255 132 246 c 128,-1,83
 139 237 139 237 153 237 c 256,84,85
 167 237 167 237 178 246 c 128,-1,86
 189 255 189 255 192 269 c 256,87,88
 195 283 195 283 187.5 292 c 128,-1,89
 180 301 180 301 166 301 c 256,90,91
 152 301 152 301 141.5 292 c 128,-1,92
 131 283 131 283 128 269 c 256,81,82
EndSplineSet
EndChar
StartChar: uni0E12
Encoding: 3602 3602 229
Width: 642
Flags: W
Fore
135 72 m 1,0,-1
 239 168 l 1,1,2
 219 174 219 174 208.5 190 c 128,-1,3
 198 206 198 206 203 227 c 0,4,5
 206 240 206 240 214 251.5 c 128,-1,6
 222 263 222 263 233.5 272 c 128,-1,7
 245 281 245 281 259.5 286 c 128,-1,8
 274 291 274 291 289 291 c 0,9,10
 318 291 318 291 336.5 272 c 128,-1,11
 355 253 355 253 350 227 c 0,12,13
 346 206 346 206 323 187 c 2,14,-1
 114 -6 l 1,15,16
 91 -6 91 -6 76.5 6.5 c 128,-1,17
 62 19 62 19 67 38 c 2,18,-1
 120 288 l 2,19,20
 126 315 126 315 141.5 336.5 c 128,-1,21
 157 358 157 358 176.5 373 c 128,-1,22
 196 388 196 388 217.5 395.5 c 128,-1,23
 239 403 239 403 256 403 c 0,24,25
 269 403 269 403 274 397 c 0,26,27
 280 391 280 391 286 387 c 1,28,29
 291 382 291 382 296 378 c 128,-1,30
 301 374 301 374 306 369 c 1,31,32
 313 374 313 374 321 378.5 c 128,-1,33
 329 383 329 383 336 388 c 2,34,-1
 351 398 l 2,35,36
 357 403 357 403 371 403 c 0,37,38
 388 403 388 403 406 395.5 c 128,-1,39
 424 388 424 388 437.5 373 c 128,-1,40
 451 358 451 358 458 336.5 c 128,-1,41
 465 315 465 315 459 288 c 2,42,-1
 419 100 l 1,43,-1
 528 44 l 1,44,-1
 595 358 l 2,45,46
 599 376 599 376 619.5 389 c 128,-1,47
 640 402 640 402 666 402 c 1,48,-1
 589 38 l 2,49,50
 584 19 584 19 565.5 6.5 c 128,-1,51
 547 -6 547 -6 524 -6 c 1,52,-1
 408 52 l 1,53,54
 399 26 399 26 374.5 10 c 128,-1,55
 350 -6 350 -6 321 -6 c 0,56,57
 289 -6 289 -6 271 13 c 128,-1,58
 253 32 253 32 259 60 c 0,59,60
 262 73 262 73 270.5 85 c 128,-1,61
 279 97 279 97 291 106 c 128,-1,62
 303 115 303 115 318 120 c 128,-1,63
 333 125 333 125 349 125 c 0,64,65
 358 125 358 125 363 124 c 1,66,-1
 398 288 l 2,67,68
 404 318 404 318 395 337.5 c 128,-1,69
 386 357 386 357 373 362 c 1,70,71
 367 358 367 358 358 351.5 c 128,-1,72
 349 345 349 345 340 339 c 128,-1,73
 331 333 331 333 324 328.5 c 128,-1,74
 317 324 317 324 315 323 c 1,75,-1
 316 323 l 1,76,77
 293 307 293 307 277 323 c 0,78,79
 268 331 268 331 260 339 c 0,80,81
 253 346 253 346 246 352.5 c 128,-1,82
 239 359 239 359 236 362 c 1,83,84
 222 357 222 357 204.5 337.5 c 128,-1,85
 187 318 187 318 181 288 c 2,86,-1
 135 72 l 1,0,-1
244 227 m 256,87,88
 241 213 241 213 248 204 c 128,-1,89
 255 195 255 195 269 195 c 256,90,91
 283 195 283 195 294 204 c 128,-1,92
 305 213 305 213 308 227 c 256,93,94
 311 241 311 241 304 250 c 128,-1,95
 297 259 297 259 283 259 c 256,96,97
 269 259 269 259 258 250 c 128,-1,98
 247 241 247 241 244 227 c 256,87,88
301 60 m 256,99,100
 298 46 298 46 306 36 c 128,-1,101
 314 26 314 26 328 26 c 256,102,103
 342 26 342 26 354 36 c 128,-1,104
 366 46 366 46 369 60 c 256,105,106
 372 74 372 74 364 84 c 128,-1,107
 356 94 356 94 342 94 c 256,108,109
 328 94 328 94 316 84 c 128,-1,110
 304 74 304 74 301 60 c 256,99,100
EndSplineSet
EndChar
StartChar: uni0E13
Encoding: 3603 3603 230
Width: 620
Flags: W
Fore
175 121 m 0,0,1
 206 121 206 121 223.5 102.5 c 128,-1,2
 241 84 241 84 236 58 c 0,3,4
 230 32 230 32 204.5 13 c 128,-1,5
 179 -6 179 -6 148 -6 c 256,6,7
 117 -6 117 -6 100 13 c 128,-1,8
 83 32 83 32 89 58 c 2,9,-1
 118 193 l 1,10,11
 117 195 117 195 114 205.5 c 128,-1,12
 111 216 111 216 107 228 c 0,13,14
 103 242 103 242 97 259 c 1,15,16
 93 266 93 266 96 269 c 1,17,18
 102 297 102 297 119.5 321.5 c 128,-1,19
 137 346 137 346 162 364 c 128,-1,20
 187 382 187 382 218.5 392.5 c 128,-1,21
 250 403 250 403 285 403 c 0,22,23
 319 403 319 403 346 392.5 c 128,-1,24
 373 382 373 382 391 364 c 128,-1,25
 409 346 409 346 416 321.5 c 128,-1,26
 423 297 423 297 417 269 c 2,27,-1
 370 49 l 1,28,29
 397 63 397 63 427.5 78.5 c 128,-1,30
 458 94 458 94 484 108 c 0,31,32
 498 116 498 116 504.5 126.5 c 128,-1,33
 511 137 511 137 513 147 c 2,34,-1
 558 358 l 2,35,36
 562 376 562 376 582.5 389 c 128,-1,37
 603 402 603 402 629 402 c 1,38,-1
 575 147 l 2,39,40
 573 141 573 141 570.5 133.5 c 128,-1,41
 568 126 568 126 564 121 c 1,42,43
 584 113 584 113 595 96 c 128,-1,44
 606 79 606 79 601 60 c 0,45,46
 595 32 595 32 568 13 c 128,-1,47
 541 -6 541 -6 511 -6 c 0,48,49
 483 -6 483 -6 466.5 8 c 128,-1,50
 450 22 450 22 449 44 c 1,51,-1
 352 -6 l 1,52,53
 329 -6 329 -6 315.5 6.5 c 128,-1,54
 302 19 302 19 307 38 c 2,55,-1
 356 269 l 2,56,57
 364 312 364 312 343 334 c 0,58,59
 332 348 332 348 314.5 356.5 c 128,-1,60
 297 365 297 365 277 365 c 256,61,62
 257 365 257 365 236 357 c 128,-1,63
 215 349 215 349 197 335 c 0,64,65
 183 324 183 324 173 308 c 128,-1,66
 163 292 163 292 158 275 c 1,67,68
 158 272 158 272 161.5 261 c 128,-1,69
 165 250 165 250 169 238 c 0,70,71
 173 224 173 224 179 208 c 1,72,-1
 180 198 l 1,73,-1
 163 120 l 1,74,75
 166 121 166 121 175 121 c 0,0,1
130 58 m 256,76,77
 127 44 127 44 134 35 c 128,-1,78
 141 26 141 26 155 26 c 256,79,80
 169 26 169 26 180 35 c 128,-1,81
 191 44 191 44 194 58 c 256,82,83
 197 72 197 72 190 81 c 128,-1,84
 183 90 183 90 169 90 c 256,85,86
 155 90 155 90 144 81 c 128,-1,87
 133 72 133 72 130 58 c 256,76,77
491 60 m 256,88,89
 488 46 488 46 496 36 c 128,-1,90
 504 26 504 26 518 26 c 256,91,92
 532 26 532 26 544 36 c 128,-1,93
 556 46 556 46 559 60 c 256,94,95
 562 74 562 74 554 84 c 128,-1,96
 546 94 546 94 532 94 c 256,97,98
 518 94 518 94 506 84 c 128,-1,99
 494 74 494 74 491 60 c 256,88,89
EndSplineSet
EndChar
StartChar: uni0E14
Encoding: 3604 3604 231
Width: 458
Flags: W
Fore
135 75 m 1,0,-1
 241 177 l 1,1,2
 221 184 221 184 210.5 200 c 128,-1,3
 200 216 200 216 205 237 c 0,4,5
 208 250 208 250 216 261.5 c 128,-1,6
 224 273 224 273 235.5 282 c 128,-1,7
 247 291 247 291 261.5 296 c 128,-1,8
 276 301 276 301 291 301 c 0,9,10
 322 301 322 301 339.5 282 c 128,-1,11
 357 263 357 263 352 237 c 0,12,13
 347 218 347 218 326 197 c 2,14,-1
 114 -6 l 1,15,16
 90 -6 90 -6 75.5 6.5 c 128,-1,17
 61 19 61 19 66 38 c 2,18,-1
 115 269 l 2,19,20
 120 295 120 295 139 320 c 128,-1,21
 158 345 158 345 187 365 c 0,22,23
 213 383 213 383 245.5 393 c 128,-1,24
 278 403 278 403 313 403 c 256,25,26
 348 403 348 403 376 393 c 128,-1,27
 404 383 404 383 422 365 c 0,28,29
 465 321 465 321 455 269 c 2,30,-1
 406 38 l 2,31,32
 401 19 401 19 380.5 6.5 c 128,-1,33
 360 -6 360 -6 334 -6 c 1,34,-1
 393 269 l 2,35,36
 397 288 397 288 392 305 c 128,-1,37
 387 322 387 322 375 335.5 c 128,-1,38
 363 349 363 349 345 357 c 128,-1,39
 327 365 327 365 305 365 c 256,40,41
 283 365 283 365 261.5 357 c 128,-1,42
 240 349 240 349 222.5 335.5 c 128,-1,43
 205 322 205 322 193 305 c 128,-1,44
 181 288 181 288 177 269 c 2,45,-1
 135 75 l 1,0,-1
246 237 m 256,46,47
 243 223 243 223 250 214 c 128,-1,48
 257 205 257 205 271 205 c 256,49,50
 285 205 285 205 296 214 c 128,-1,51
 307 223 307 223 310 237 c 256,52,53
 313 251 313 251 306 260 c 128,-1,54
 299 269 299 269 285 269 c 256,55,56
 271 269 271 269 260 260 c 128,-1,57
 249 251 249 251 246 237 c 256,46,47
EndSplineSet
EndChar
StartChar: uni0E15
Encoding: 3605 3605 232
Width: 458
Flags: W
Fore
135 72 m 1,0,-1
 238 168 l 1,1,2
 218 174 218 174 208 190 c 128,-1,3
 198 206 198 206 203 227 c 0,4,5
 206 240 206 240 214 251.5 c 128,-1,6
 222 263 222 263 233.5 272 c 128,-1,7
 245 281 245 281 259.5 286 c 128,-1,8
 274 291 274 291 289 291 c 0,9,10
 318 291 318 291 336.5 272 c 128,-1,11
 355 253 355 253 350 227 c 0,12,13
 346 206 346 206 323 187 c 2,14,-1
 114 -6 l 1,15,16
 90 -6 90 -6 75.5 6.5 c 128,-1,17
 61 19 61 19 66 38 c 2,18,-1
 119 288 l 2,19,20
 125 315 125 315 140.5 336.5 c 128,-1,21
 156 358 156 358 176 373 c 128,-1,22
 196 388 196 388 217.5 395.5 c 128,-1,23
 239 403 239 403 256 403 c 0,24,25
 268 403 268 403 273 397 c 0,26,27
 279 391 279 391 285 387 c 2,28,29
 290 382 290 382 295.5 378 c 128,-1,30
 301 374 301 374 306 369 c 1,31,32
 313 374 313 374 321 378.5 c 128,-1,33
 329 383 329 383 336 388 c 2,34,-1
 351 398 l 2,35,36
 357 403 357 403 371 403 c 0,37,38
 388 403 388 403 406 395.5 c 128,-1,39
 424 388 424 388 437.5 373 c 128,-1,40
 451 358 451 358 458 336.5 c 128,-1,41
 465 315 465 315 459 288 c 2,42,-1
 406 38 l 2,43,44
 401 19 401 19 380.5 6.5 c 128,-1,45
 360 -6 360 -6 334 -6 c 1,46,-1
 397 288 l 2,47,48
 403 318 403 318 394 337.5 c 128,-1,49
 385 357 385 357 373 362 c 1,50,51
 367 358 367 358 358 351.5 c 128,-1,52
 349 345 349 345 340 339 c 128,-1,53
 331 333 331 333 324 328.5 c 128,-1,54
 317 324 317 324 316 323 c 0,55,56
 305 315 305 315 294.5 315 c 128,-1,57
 284 315 284 315 276 323 c 0,58,59
 267 331 267 331 259 339 c 2,60,-1
 236 362 l 1,61,62
 222 357 222 357 204.5 337.5 c 128,-1,63
 187 318 187 318 181 288 c 2,64,-1
 135 72 l 1,0,-1
244 227 m 256,65,66
 241 213 241 213 248 204 c 128,-1,67
 255 195 255 195 269 195 c 256,68,69
 283 195 283 195 294 204 c 128,-1,70
 305 213 305 213 308 227 c 256,71,72
 311 241 311 241 304 250 c 128,-1,73
 297 259 297 259 283 259 c 256,74,75
 269 259 269 259 258 250 c 128,-1,76
 247 241 247 241 244 227 c 256,65,66
EndSplineSet
EndChar
StartChar: uni0E16
Encoding: 3606 3606 233
Width: 438
Flags: W
Fore
175 121 m 0,0,1
 205 121 205 121 222.5 102.5 c 128,-1,2
 240 84 240 84 235 58 c 0,3,4
 229 32 229 32 203.5 13 c 128,-1,5
 178 -6 178 -6 148 -6 c 0,6,7
 117 -6 117 -6 99.5 13 c 128,-1,8
 82 32 82 32 88 58 c 2,9,-1
 117 193 l 1,10,-1
 97 259 l 1,11,12
 94 265 94 265 96 269 c 1,13,14
 102 299 102 299 122 323.5 c 128,-1,15
 142 348 142 348 170 366 c 128,-1,16
 198 384 198 384 230 393.5 c 128,-1,17
 262 403 262 403 293 403 c 0,18,19
 323 403 323 403 351.5 394 c 128,-1,20
 380 385 380 385 401 367.5 c 128,-1,21
 422 350 422 350 432 325 c 128,-1,22
 442 300 442 300 435 269 c 2,23,-1
 386 38 l 2,24,25
 381 19 381 19 360.5 6.5 c 128,-1,26
 340 -6 340 -6 314 -6 c 1,27,-1
 373 269 l 2,28,29
 377 288 377 288 372 305 c 128,-1,30
 367 322 367 322 355 335.5 c 128,-1,31
 343 349 343 349 325 357 c 128,-1,32
 307 365 307 365 285 365 c 0,33,34
 264 365 264 365 243 357.5 c 128,-1,35
 222 350 222 350 205 337.5 c 128,-1,36
 188 325 188 325 175.5 308.5 c 128,-1,37
 163 292 163 292 158 274 c 1,38,-1
 179 208 l 2,39,40
 180 205 180 205 180 198 c 1,41,-1
 163 120 l 1,42,43
 166 121 166 121 175 121 c 0,0,1
130 58 m 256,44,45
 127 44 127 44 134 35 c 128,-1,46
 141 26 141 26 155 26 c 256,47,48
 169 26 169 26 180 35 c 128,-1,49
 191 44 191 44 194 58 c 256,50,51
 197 72 197 72 190 81 c 128,-1,52
 183 90 183 90 169 90 c 256,53,54
 155 90 155 90 144 81 c 128,-1,55
 133 72 133 72 130 58 c 256,44,45
EndSplineSet
EndChar
StartChar: uni0E17
Encoding: 3607 3607 234
Width: 485
Flags: W
Fore
172 276 m 1,0,-1
 160 276 l 2,1,2
 129 276 129 276 112 294.5 c 128,-1,3
 95 313 95 313 101 339 c 0,4,5
 104 352 104 352 112 363.5 c 128,-1,6
 120 375 120 375 131.5 384 c 128,-1,7
 143 393 143 393 157.5 398 c 128,-1,8
 172 403 172 403 187 403 c 0,9,10
 218 403 218 403 235.5 384 c 128,-1,11
 253 365 253 365 248 339 c 2,12,-1
 202 126 l 1,13,14
 222 161 222 161 247.5 206 c 128,-1,15
 273 251 273 251 296.5 291.5 c 128,-1,16
 320 332 320 332 336 360 c 128,-1,17
 352 388 352 388 353 390 c 0,18,19
 357 396 357 396 365.5 399.5 c 128,-1,20
 374 403 374 403 385 403 c 0,21,22
 445 403 445 403 470 372 c 0,23,24
 497 339 497 339 486 288 c 2,25,-1
 433 38 l 2,26,27
 428 19 428 19 407.5 6.5 c 128,-1,28
 387 -6 387 -6 361 -6 c 1,29,-1
 424 288 l 2,30,31
 436 348 436 348 394 359 c 1,32,-1
 173 -6 l 1,33,34
 147 -6 147 -6 132 6.5 c 128,-1,35
 117 19 117 19 122 38 c 2,36,-1
 172 276 l 1,0,-1
142 339 m 0,37,38
 139 325 139 325 146 316 c 128,-1,39
 153 307 153 307 167 307 c 256,40,41
 181 307 181 307 192 316 c 128,-1,42
 203 325 203 325 206 339 c 0,43,44
 208 353 208 353 201 362 c 128,-1,45
 194 371 194 371 180 371 c 256,46,47
 166 371 166 371 155 362 c 128,-1,48
 144 353 144 353 142 339 c 0,37,38
EndSplineSet
EndChar
StartChar: uni0E18
Encoding: 3608 3608 235
Width: 405
Flags: W
Fore
371 127 m 2,0,1
 365 99 365 99 350.5 74.5 c 128,-1,2
 336 50 336 50 314 32 c 128,-1,3
 292 14 292 14 263 4 c 128,-1,4
 234 -6 234 -6 199 -6 c 256,5,6
 164 -6 164 -6 140 4 c 128,-1,7
 116 14 116 14 101.5 32 c 128,-1,8
 87 50 87 50 82.5 74.5 c 128,-1,9
 78 99 78 99 84 127 c 2,10,-1
 98 190 l 2,11,12
 102 208 102 208 122.5 221 c 128,-1,13
 143 234 143 234 169 234 c 1,14,-1
 146 127 l 2,15,16
 137 84 137 84 153.5 58 c 128,-1,17
 170 32 170 32 207 32 c 256,18,19
 244 32 244 32 272.5 57 c 128,-1,20
 301 82 301 82 310 127 c 2,21,-1
 328 211 l 1,22,-1
 118 267 l 2,23,24
 109 269 109 269 103.5 275 c 128,-1,25
 98 281 98 281 100 289 c 0,26,27
 108 313 108 313 125 334 c 128,-1,28
 142 355 142 355 165 370.5 c 128,-1,29
 188 386 188 386 216 394.5 c 128,-1,30
 244 403 244 403 274 403 c 0,31,32
 309 403 309 403 335.5 391 c 128,-1,33
 362 379 362 379 378 360 c 1,34,-1
 410 403 l 1,35,36
 432 392 432 392 437.5 376.5 c 128,-1,37
 443 361 443 361 433 347 c 2,38,-1
 398 298 l 2,39,40
 382 276 382 276 365.5 278 c 128,-1,41
 349 280 349 280 345 298 c 0,42,43
 339 327 339 327 317 346 c 128,-1,44
 295 365 295 365 266 365 c 0,45,46
 236 365 236 365 208.5 344 c 128,-1,47
 181 323 181 323 166 297 c 1,48,-1
 358 247 l 2,49,50
 373 242 373 242 382 230 c 128,-1,51
 391 218 391 218 388 204 c 2,52,-1
 371 127 l 2,0,1
EndSplineSet
EndChar
StartChar: uni0E19
Encoding: 3609 3609 236
Width: 491
Flags: W
Fore
172 276 m 1,0,-1
 160 276 l 2,1,2
 130 276 130 276 112.5 294.5 c 128,-1,3
 95 313 95 313 101 339 c 0,4,5
 104 352 104 352 112 363.5 c 128,-1,6
 120 375 120 375 131.5 384 c 128,-1,7
 143 393 143 393 157.5 398 c 128,-1,8
 172 403 172 403 187 403 c 0,9,10
 218 403 218 403 235.5 384 c 128,-1,11
 253 365 253 365 248 339 c 2,12,-1
 185 44 l 1,13,14
 227 60 227 60 269 76.5 c 128,-1,15
 311 93 311 93 354 110 c 0,16,17
 367 116 367 116 375 128 c 128,-1,18
 383 140 383 140 385 150 c 2,19,-1
 430 358 l 2,20,21
 434 376 434 376 454.5 389 c 128,-1,22
 475 402 475 402 501 402 c 1,23,-1
 447 150 l 2,24,25
 444 135 444 135 433 122 c 1,26,27
 456 115 456 115 466.5 98 c 128,-1,28
 477 81 477 81 472 60 c 0,29,30
 469 46 469 46 461 34 c 128,-1,31
 453 22 453 22 441 13 c 128,-1,32
 429 4 429 4 414 -1 c 128,-1,33
 399 -6 399 -6 383 -6 c 0,34,35
 354 -6 354 -6 337 11 c 128,-1,36
 320 28 320 28 322 54 c 1,37,-1
 167 -6 l 1,38,39
 144 -6 144 -6 130.5 6.5 c 128,-1,40
 117 19 117 19 122 38 c 2,41,-1
 172 276 l 1,0,-1
142 339 m 0,42,43
 139 325 139 325 146 316 c 128,-1,44
 153 307 153 307 167 307 c 256,45,46
 181 307 181 307 192 316 c 128,-1,47
 203 325 203 325 206 339 c 0,48,49
 208 353 208 353 201 362 c 128,-1,50
 194 371 194 371 180 371 c 256,51,52
 166 371 166 371 155 362 c 128,-1,53
 144 353 144 353 142 339 c 0,42,43
363 60 m 256,54,55
 360 46 360 46 368 36 c 128,-1,56
 376 26 376 26 390 26 c 256,57,58
 404 26 404 26 416 36 c 128,-1,59
 428 46 428 46 431 60 c 256,60,61
 434 74 434 74 426 84 c 128,-1,62
 418 94 418 94 404 94 c 256,63,64
 390 94 390 94 378 84 c 128,-1,65
 366 74 366 74 363 60 c 256,54,55
EndSplineSet
EndChar
StartChar: uni0E1A
Encoding: 3610 3610 237
Width: 475
Flags: W
Fore
160 276 m 2,0,1
 129 276 129 276 112 294.5 c 128,-1,2
 95 313 95 313 101 339 c 0,3,4
 104 352 104 352 112 363.5 c 128,-1,5
 120 375 120 375 131.5 384 c 128,-1,6
 143 393 143 393 157.5 398 c 128,-1,7
 172 403 172 403 187 403 c 0,8,9
 218 403 218 403 235.5 384 c 128,-1,10
 253 365 253 365 248 339 c 2,11,-1
 203 128 l 2,12,13
 194 86 194 86 212.5 59 c 128,-1,14
 231 32 231 32 270 32 c 0,15,16
 308 32 308 32 339.5 59 c 128,-1,17
 371 86 371 86 380 128 c 2,18,-1
 429 358 l 2,19,20
 433 376 433 376 453.5 389 c 128,-1,21
 474 402 474 402 500 402 c 1,22,-1
 442 128 l 2,23,24
 436 98 436 98 419 73.5 c 128,-1,25
 402 49 402 49 377.5 31 c 128,-1,26
 353 13 353 13 323.5 3.5 c 128,-1,27
 294 -6 294 -6 262 -6 c 256,28,29
 230 -6 230 -6 205 3.5 c 128,-1,30
 180 13 180 13 163.5 31 c 128,-1,31
 147 49 147 49 141 73.5 c 128,-1,32
 135 98 135 98 141 128 c 2,33,-1
 172 276 l 1,34,-1
 160 276 l 2,0,1
142 339 m 0,35,36
 139 325 139 325 146 316 c 128,-1,37
 153 307 153 307 167 307 c 256,38,39
 181 307 181 307 192 316 c 128,-1,40
 203 325 203 325 206 339 c 0,41,42
 208 353 208 353 201 362 c 128,-1,43
 194 371 194 371 180 371 c 256,44,45
 166 371 166 371 155 362 c 128,-1,46
 144 353 144 353 142 339 c 0,35,36
EndSplineSet
EndChar
StartChar: uni0E1B
Encoding: 3611 3611 238
Width: 485
Flags: W
Fore
160 276 m 2,0,1
 129 276 129 276 112 294.5 c 128,-1,2
 95 313 95 313 101 339 c 0,3,4
 104 352 104 352 112 363.5 c 128,-1,5
 120 375 120 375 131.5 384 c 128,-1,6
 143 393 143 393 157.5 398 c 128,-1,7
 172 403 172 403 187 403 c 0,8,9
 218 403 218 403 235.5 384 c 128,-1,10
 253 365 253 365 248 339 c 2,11,-1
 203 128 l 2,12,13
 194 86 194 86 213.5 59 c 128,-1,14
 233 32 233 32 275 32 c 256,15,16
 317 32 317 32 349 59 c 128,-1,17
 381 86 381 86 390 128 c 2,18,-1
 473 520 l 2,19,20
 477 538 477 538 497.5 550.5 c 128,-1,21
 518 563 518 563 544 563 c 1,22,-1
 452 128 l 2,23,24
 446 98 446 98 428 73.5 c 128,-1,25
 410 49 410 49 384.5 31 c 128,-1,26
 359 13 359 13 328.5 3.5 c 128,-1,27
 298 -6 298 -6 267 -6 c 0,28,29
 237 -6 237 -6 211 3.5 c 128,-1,30
 185 13 185 13 167.5 31 c 128,-1,31
 150 49 150 49 142.5 73.5 c 128,-1,32
 135 98 135 98 141 128 c 2,33,-1
 172 276 l 1,34,-1
 160 276 l 2,0,1
142 339 m 0,35,36
 139 325 139 325 146 316 c 128,-1,37
 153 307 153 307 167 307 c 256,38,39
 181 307 181 307 192 316 c 128,-1,40
 203 325 203 325 206 339 c 0,41,42
 208 353 208 353 201 362 c 128,-1,43
 194 371 194 371 180 371 c 256,44,45
 166 371 166 371 155 362 c 128,-1,46
 144 353 144 353 142 339 c 0,35,36
EndSplineSet
EndChar
StartChar: uni0E1C
Encoding: 3612 3612 239
Width: 440
Flags: W
Fore
337 93 m 1,0,-1
 394 358 l 2,1,2
 398 376 398 376 418.5 389 c 128,-1,3
 439 402 439 402 465 402 c 1,4,-1
 388 38 l 2,5,6
 383 19 383 19 363.5 6.5 c 128,-1,7
 344 -6 344 -6 319 -6 c 1,8,-1
 255 172 l 1,9,-1
 115 -6 l 1,10,11
 90 -6 90 -6 75.5 6.5 c 128,-1,12
 61 19 61 19 66 38 c 2,13,-1
 130 339 l 2,14,15
 133 352 133 352 141 363.5 c 128,-1,16
 149 375 149 375 161 384 c 128,-1,17
 173 393 173 393 187.5 398 c 128,-1,18
 202 403 202 403 217 403 c 0,19,20
 248 403 248 403 265 384 c 128,-1,21
 282 365 282 365 277 339 c 0,22,23
 271 313 271 313 246 294.5 c 128,-1,24
 221 276 221 276 190 276 c 2,25,-1
 178 276 l 1,26,-1
 139 93 l 1,27,-1
 239 220 l 2,28,29
 248 230 248 230 267 230 c 0,30,31
 276 230 276 230 282.5 227.5 c 128,-1,32
 289 225 289 225 291 220 c 2,33,-1
 337 93 l 1,0,-1
172 339 m 0,34,35
 169 325 169 325 176 316 c 128,-1,36
 183 307 183 307 197 307 c 256,37,38
 211 307 211 307 222 316 c 128,-1,39
 233 325 233 325 236 339 c 0,40,41
 238 353 238 353 231 362 c 128,-1,42
 224 371 224 371 210 371 c 256,43,44
 196 371 196 371 185 362 c 128,-1,45
 174 353 174 353 172 339 c 0,34,35
EndSplineSet
EndChar
StartChar: uni0E1D
Encoding: 3613 3613 240
Width: 440
Flags: W
Fore
337 93 m 1,0,-1
 428 520 l 2,1,2
 432 538 432 538 452.5 550.5 c 128,-1,3
 473 563 473 563 499 563 c 1,4,-1
 388 38 l 2,5,6
 383 19 383 19 363.5 6.5 c 128,-1,7
 344 -6 344 -6 319 -6 c 1,8,-1
 255 172 l 1,9,-1
 115 -6 l 1,10,11
 90 -6 90 -6 75.5 6.5 c 128,-1,12
 61 19 61 19 66 38 c 2,13,-1
 130 339 l 2,14,15
 133 352 133 352 141 363.5 c 128,-1,16
 149 375 149 375 161 384 c 128,-1,17
 173 393 173 393 187.5 398 c 128,-1,18
 202 403 202 403 217 403 c 0,19,20
 248 403 248 403 265 384 c 128,-1,21
 282 365 282 365 277 339 c 0,22,23
 271 313 271 313 246 294.5 c 128,-1,24
 221 276 221 276 190 276 c 2,25,-1
 178 276 l 1,26,-1
 139 93 l 1,27,-1
 239 220 l 2,28,29
 248 230 248 230 267 230 c 0,30,31
 276 230 276 230 282.5 227.5 c 128,-1,32
 289 225 289 225 291 220 c 2,33,-1
 337 93 l 1,0,-1
172 339 m 0,34,35
 169 325 169 325 176 316 c 128,-1,36
 183 307 183 307 197 307 c 256,37,38
 211 307 211 307 222 316 c 128,-1,39
 233 325 233 325 236 339 c 0,40,41
 238 353 238 353 231 362 c 128,-1,42
 224 371 224 371 210 371 c 256,43,44
 196 371 196 371 185 362 c 128,-1,45
 174 353 174 353 172 339 c 0,34,35
EndSplineSet
EndChar
StartChar: uni0E1E
Encoding: 3614 3614 241
Width: 494
Flags: W
Fore
160 276 m 2,0,1
 129 276 129 276 112 294.5 c 128,-1,2
 95 313 95 313 101 339 c 0,3,4
 104 352 104 352 112 363.5 c 128,-1,5
 120 375 120 375 131.5 384 c 128,-1,6
 143 393 143 393 157.5 398 c 128,-1,7
 172 403 172 403 187 403 c 0,8,9
 218 403 218 403 235.5 384 c 128,-1,10
 253 365 253 365 248 339 c 2,11,-1
 204 135 l 1,12,-1
 313 323 l 2,13,14
 323 336 323 336 345 336 c 0,15,16
 368 336 368 336 371 323 c 2,17,-1
 400 135 l 1,18,-1
 448 358 l 2,19,20
 452 376 452 376 472.5 389 c 128,-1,21
 493 402 493 402 518 402 c 1,22,-1
 441 38 l 2,23,24
 436 19 436 19 416.5 6.5 c 128,-1,25
 397 -6 397 -6 371 -6 c 1,26,-1
 329 262 l 1,27,28
 289 195 289 195 250.5 128 c 128,-1,29
 212 61 212 61 173 -6 c 1,30,31
 147 -6 147 -6 132 6.5 c 128,-1,32
 117 19 117 19 122 38 c 2,33,-1
 172 276 l 1,34,-1
 160 276 l 2,0,1
142 339 m 0,35,36
 139 325 139 325 146 316 c 128,-1,37
 153 307 153 307 167 307 c 256,38,39
 181 307 181 307 192 316 c 128,-1,40
 203 325 203 325 206 339 c 0,41,42
 208 353 208 353 201 362 c 128,-1,43
 194 371 194 371 180 371 c 256,44,45
 166 371 166 371 155 362 c 128,-1,46
 144 353 144 353 142 339 c 0,35,36
EndSplineSet
EndChar
StartChar: uni0E1F
Encoding: 3615 3615 242
Width: 494
Flags: W
Fore
160 276 m 2,0,1
 129 276 129 276 112 294.5 c 128,-1,2
 95 313 95 313 101 339 c 0,3,4
 104 352 104 352 112 363.5 c 128,-1,5
 120 375 120 375 131.5 384 c 128,-1,6
 143 393 143 393 157.5 398 c 128,-1,7
 172 403 172 403 187 403 c 0,8,9
 218 403 218 403 235.5 384 c 128,-1,10
 253 365 253 365 248 339 c 2,11,-1
 204 135 l 1,12,-1
 313 323 l 2,13,14
 323 336 323 336 345 336 c 0,15,16
 368 336 368 336 371 323 c 2,17,-1
 400 135 l 1,18,-1
 482 520 l 2,19,20
 486 538 486 538 506.5 550.5 c 128,-1,21
 527 563 527 563 552 563 c 1,22,-1
 441 38 l 2,23,24
 436 19 436 19 416.5 6.5 c 128,-1,25
 397 -6 397 -6 371 -6 c 1,26,-1
 329 262 l 1,27,28
 289 195 289 195 250.5 128 c 128,-1,29
 212 61 212 61 173 -6 c 1,30,31
 147 -6 147 -6 132 6.5 c 128,-1,32
 117 19 117 19 122 38 c 2,33,-1
 172 276 l 1,34,-1
 160 276 l 2,0,1
142 339 m 0,35,36
 139 325 139 325 146 316 c 128,-1,37
 153 307 153 307 167 307 c 256,38,39
 181 307 181 307 192 316 c 128,-1,40
 203 325 203 325 206 339 c 0,41,42
 208 353 208 353 201 362 c 128,-1,43
 194 371 194 371 180 371 c 256,44,45
 166 371 166 371 155 362 c 128,-1,46
 144 353 144 353 142 339 c 0,35,36
EndSplineSet
EndChar
StartChar: uni0E20
Encoding: 3616 3616 243
Width: 456
Flags: W
Fore
127 121 m 0,0,1
 135 121 135 121 139 120 c 1,2,-1
 154 191 l 1,3,-1
 112 263 l 1,4,5
 112 266 112 266 113 269 c 0,6,7
 119 299 119 299 139.5 324 c 128,-1,8
 160 349 160 349 187.5 366.5 c 128,-1,9
 215 384 215 384 247.5 393.5 c 128,-1,10
 280 403 280 403 311 403 c 0,11,12
 341 403 341 403 369.5 394 c 128,-1,13
 398 385 398 385 419 367.5 c 128,-1,14
 440 350 440 350 450 325 c 128,-1,15
 460 300 460 300 453 269 c 2,16,-1
 404 38 l 2,17,18
 399 19 399 19 378.5 6.5 c 128,-1,19
 358 -6 358 -6 332 -6 c 1,20,-1
 391 269 l 2,21,22
 395 288 395 288 390 305 c 128,-1,23
 385 322 385 322 373 335.5 c 128,-1,24
 361 349 361 349 343 357 c 128,-1,25
 325 365 325 365 303 365 c 0,26,27
 282 365 282 365 261 357.5 c 128,-1,28
 240 350 240 350 223 337.5 c 128,-1,29
 206 325 206 325 193.5 308.5 c 128,-1,30
 181 292 181 292 176 274 c 1,31,-1
 212 210 l 2,32,33
 217 201 217 201 216 197 c 2,34,-1
 187 58 l 2,35,36
 181 32 181 32 156 13 c 128,-1,37
 131 -6 131 -6 100 -6 c 256,38,39
 69 -6 69 -6 52 13 c 128,-1,40
 35 32 35 32 41 58 c 0,41,42
 46 84 46 84 71 102.5 c 128,-1,43
 96 121 96 121 127 121 c 0,0,1
82 58 m 256,44,45
 79 44 79 44 86 35 c 128,-1,46
 93 26 93 26 107 26 c 256,47,48
 121 26 121 26 132 35 c 128,-1,49
 143 44 143 44 146 58 c 256,50,51
 149 72 149 72 142 81 c 128,-1,52
 135 90 135 90 121 90 c 256,53,54
 107 90 107 90 96 81 c 128,-1,55
 85 72 85 72 82 58 c 256,44,45
EndSplineSet
EndChar
StartChar: uni0E21
Encoding: 3617 3617 244
Width: 471
Flags: W
Fore
176 276 m 1,0,-1
 164 276 l 2,1,2
 133 276 133 276 116 294.5 c 128,-1,3
 99 313 99 313 105 339 c 0,4,5
 108 352 108 352 116 363.5 c 128,-1,6
 124 375 124 375 135.5 384 c 128,-1,7
 147 393 147 393 161.5 398 c 128,-1,8
 176 403 176 403 191 403 c 0,9,10
 222 403 222 403 239 384 c 128,-1,11
 256 365 256 365 251 339 c 2,12,-1
 201 104 l 1,13,14
 240 88 240 88 276 73 c 128,-1,15
 312 58 312 58 357 41 c 1,16,-1
 425 358 l 2,17,18
 429 376 429 376 449.5 389 c 128,-1,19
 470 402 470 402 496 402 c 1,20,-1
 419 38 l 2,21,22
 414 19 414 19 396 6.5 c 128,-1,23
 378 -6 378 -6 355 -6 c 1,24,-1
 191 58 l 1,25,26
 184 31 184 31 159 12.5 c 128,-1,27
 134 -6 134 -6 102 -6 c 256,28,29
 70 -6 70 -6 52.5 13 c 128,-1,30
 35 32 35 32 41 60 c 0,31,32
 47 86 47 86 72.5 105.5 c 128,-1,33
 98 125 98 125 130 125 c 0,34,35
 139 125 139 125 144 124 c 1,36,-1
 176 276 l 1,0,-1
146 339 m 0,37,38
 143 325 143 325 150 316 c 128,-1,39
 157 307 157 307 171 307 c 256,40,41
 185 307 185 307 196 316 c 128,-1,42
 207 325 207 325 210 339 c 0,43,44
 212 353 212 353 205 362 c 128,-1,45
 198 371 198 371 184 371 c 256,46,47
 170 371 170 371 159 362 c 128,-1,48
 148 353 148 353 146 339 c 0,37,38
82 60 m 256,49,50
 79 46 79 46 87 36 c 128,-1,51
 95 26 95 26 109 26 c 256,52,53
 123 26 123 26 135 36 c 128,-1,54
 147 46 147 46 150 60 c 256,55,56
 153 74 153 74 145 84 c 128,-1,57
 137 94 137 94 123 94 c 256,58,59
 109 94 109 94 97 84 c 128,-1,60
 85 74 85 74 82 60 c 256,49,50
EndSplineSet
EndChar
StartChar: uni0E22
Encoding: 3618 3618 245
Width: 429
Flags: W
Fore
65 122 m 0,0,1
 72 151 72 151 90.5 173 c 128,-1,2
 109 195 109 195 138 211 c 1,3,4
 114 228 114 228 106 253 c 128,-1,5
 98 278 98 278 103 305 c 0,6,7
 106 321 106 321 116.5 338 c 128,-1,8
 127 355 127 355 142.5 369.5 c 128,-1,9
 158 384 158 384 177.5 393.5 c 128,-1,10
 197 403 197 403 218 403 c 0,11,12
 248 403 248 403 265.5 384 c 128,-1,13
 283 365 283 365 278 339 c 0,14,15
 272 313 272 313 246.5 295 c 128,-1,16
 221 277 221 277 191 277 c 0,17,18
 184 277 184 277 177 278 c 128,-1,19
 170 279 170 279 162 283 c 1,20,21
 162 260 162 260 175.5 248 c 128,-1,22
 189 236 189 236 213 236 c 2,23,-1
 244 236 l 2,24,25
 258 236 258 236 265 230 c 128,-1,26
 272 224 272 224 270 215 c 0,27,28
 268 207 268 207 258.5 200.5 c 128,-1,29
 249 194 249 194 235 194 c 0,30,31
 220 194 220 194 203 190.5 c 128,-1,32
 186 187 186 187 170.5 178.5 c 128,-1,33
 155 170 155 170 142.5 156.5 c 128,-1,34
 130 143 130 143 126 122 c 0,35,36
 118 83 118 83 142.5 57.5 c 128,-1,37
 167 32 167 32 210 32 c 0,38,39
 232 32 232 32 252 38.5 c 128,-1,40
 272 45 272 45 288.5 57 c 128,-1,41
 305 69 305 69 316.5 85.5 c 128,-1,42
 328 102 328 102 332 122 c 2,43,-1
 383 358 l 2,44,45
 387 376 387 376 407.5 389 c 128,-1,46
 428 402 428 402 454 402 c 1,47,-1
 394 122 l 2,48,49
 388 94 388 94 370.5 70.5 c 128,-1,50
 353 47 353 47 327 30 c 128,-1,51
 301 13 301 13 268.5 3.5 c 128,-1,52
 236 -6 236 -6 202 -6 c 0,53,54
 167 -6 167 -6 139 3.5 c 128,-1,55
 111 13 111 13 93 30 c 128,-1,56
 75 47 75 47 67 70.5 c 128,-1,57
 59 94 59 94 65 122 c 0,0,1
173 339 m 0,58,59
 170 325 170 325 177 316 c 128,-1,60
 184 307 184 307 198 307 c 256,61,62
 212 307 212 307 223 316 c 128,-1,63
 234 325 234 325 237 339 c 0,64,65
 239 353 239 353 232 362 c 128,-1,66
 225 371 225 371 211 371 c 256,67,68
 197 371 197 371 186 362 c 128,-1,69
 175 353 175 353 173 339 c 0,58,59
EndSplineSet
EndChar
StartChar: uni0E23
Encoding: 3619 3619 246
Width: 405
Flags: W
Fore
287 121 m 0,0,1
 295 121 295 121 299 120 c 1,2,-1
 319 214 l 1,3,4
 268 227 268 227 218.5 240.5 c 128,-1,5
 169 254 169 254 118 267 c 0,6,7
 109 269 109 269 103.5 275 c 128,-1,8
 98 281 98 281 100 289 c 0,9,10
 108 313 108 313 125 334 c 128,-1,11
 142 355 142 355 165 370.5 c 128,-1,12
 188 386 188 386 216 394.5 c 128,-1,13
 244 403 244 403 274 403 c 0,14,15
 309 403 309 403 335.5 391 c 128,-1,16
 362 379 362 379 378 360 c 1,17,-1
 410 403 l 1,18,19
 432 392 432 392 437.5 376.5 c 128,-1,20
 443 361 443 361 433 347 c 2,21,-1
 398 298 l 2,22,23
 382 276 382 276 365.5 278 c 128,-1,24
 349 280 349 280 345 298 c 0,25,26
 339 327 339 327 317 346 c 128,-1,27
 295 365 295 365 266 365 c 0,28,29
 236 365 236 365 208.5 344 c 128,-1,30
 181 323 181 323 166 297 c 1,31,-1
 349 250 l 2,32,33
 363 245 363 245 372.5 233 c 128,-1,34
 382 221 382 221 378 207 c 2,35,-1
 347 58 l 2,36,37
 341 32 341 32 315.5 13 c 128,-1,38
 290 -6 290 -6 260 -6 c 0,39,40
 229 -6 229 -6 211.5 13 c 128,-1,41
 194 32 194 32 200 58 c 0,42,43
 205 84 205 84 230.5 102.5 c 128,-1,44
 256 121 256 121 287 121 c 0,0,1
242 58 m 256,45,46
 239 44 239 44 246 35 c 128,-1,47
 253 26 253 26 267 26 c 256,48,49
 281 26 281 26 292 35 c 128,-1,50
 303 44 303 44 306 58 c 256,51,52
 309 72 309 72 302 81 c 128,-1,53
 295 90 295 90 281 90 c 256,54,55
 267 90 267 90 256 81 c 128,-1,56
 245 72 245 72 242 58 c 256,45,46
EndSplineSet
EndChar
